<svg xmlns="http://www.w3.org/2000/svg" xmlns:xlink="http://www.w3.org/1999/xlink" viewBox="0 0 291.02 295.08">
  <defs>
    <style>
      .a {
        fill: none;
      }

      .b {
        fill: #00427e;
      }

      .c {
        fill: #9ddcf9;
        opacity: 0.4;
        isolation: isolate;
      }

      .d {
        fill: #fd0;
      }

      .e {
        fill: url(#a);
      }

      .f {
        fill: #fff;
      }
    </style>
    <pattern id="a" width="108.34" height="109.64" patternTransform="translate(-299.28 243.88) rotate(-90) scale(1.47)" patternUnits="userSpaceOnUse" viewBox="0 0 108.34 109.64">
      <rect class="a" width="108.34" height="109.64"/>
      <rect class="a" width="108.34" height="109.64"/>
      <rect class="a" width="108.34" height="109.64"/>
      <path class="b" d="M87.47,144.34a.25.25,0,0,1,.25-.21c12.91-.13,24.75-3.27,34-11.51-8,5.56-22.94,7.51-31.53,3.62a.25.25,0,0,1-.13-.33h0a.25.25,0,0,1,.24-.15c10.68.29,19.28-3,26-9-6.87-.42-12.57-4.74-12.56-9.84a.25.25,0,0,1,.22-.28h0a.25.25,0,0,1,.23.15c1.12,2.49,4.75,3.78,8.58,2.88,4.18-1,7-4.19,6.3-7.16-.47-2-2.44-3.4-5-3.79a.25.25,0,0,1,0-.5,17.43,17.43,0,0,1,3.32,0c6.49.62,11.51,4.6,11.95,9.18,4.71-.55,8.88-3.16,10.38-6.77a.25.25,0,0,1,.49.08c.38,4.75-1.26,7.84-5,10.85a21.81,21.81,0,0,1,17.25.54.25.25,0,0,1,.13.33h0a.25.25,0,0,1-.23.15,16.25,16.25,0,0,0-11.74,5.06c18.25-5.13,33.09,6.2,28,23a.25.25,0,0,1-.49-.05c-.92-9.71-7.7-16.12-17.86-17.08A17.46,17.46,0,0,1,161.87,149a.25.25,0,0,1-.48.12,16.75,16.75,0,0,0-14.16-9.81c6.33,2.58,10.4,8.6,11.57,16.42a.25.25,0,0,1-.15.32h0a.25.25,0,0,1-.32-.16h0c-3.87-7.58-12.16-12.79-22.45-8.81-10.62,4.11-15.27,16.39-16.3,25a.26.26,0,0,1-.24.22.25.25,0,0,1-.26-.2c-3.72-15.69,3.58-32,16.64-38.84-7.1,2-13.44,6.26-17,13.35-8.29,1-14,3.86-16.86,9.24a.25.25,0,1,1-.48-.14h0c.18-2.11.94-6.33,4.07-8.27-7,0-12.51-.89-17.8-3A.26.26,0,0,1,87.47,144.34ZM117,197.81a.23.23,0,0,0-.35.3c1.62,2.8.14,6.81-3.05,6.81-5.72,0-8.47-10.77-7.6-20.59,2.16,5.76,4,8.05,7.35,10.79a.24.24,0,1,0,.35-.32,46.55,46.55,0,0,1-5.9-24.09c1.46,6,3.2,9.32,8.13,14.38a.26.26,0,0,0,.41-.3,44.25,44.25,0,0,1-.92-34.15.25.25,0,0,0-.13-.33h0a.25.25,0,0,0-.22,0c-5.21,2.55-8.26,4.23-12.75,10.39,1.36,7.4.23,11-3.17,17.2,3.85-10,1.85-23.9-8.23-29.64a.25.25,0,1,0-.35.35,17.91,17.91,0,0,1,4.16,17.93C96.3,156.2,87.17,147.47,77,147.47c-9.6,0-16.15,7.51-15.61,14.94s5.44,11,9.67,12.5a.25.25,0,0,0,.27-.42c-5.61-5.69-6.38-16.49,3.58-19.76-5.91,5.06-3.7,16.83,5.68,17.72a.25.25,0,0,0,.3-.19h0a.25.25,0,0,0-.14-.28,8,8,0,0,1-3.68-6.57c0-4.67,3.42-6.51,5.68-6.51,3.42,0,6.26,3.26,6.26,8.18,0,5.84-5.26,10.68-12,11.44s-12.78-2.15-15.75-6.46a.25.25,0,0,0-.45.21,17.14,17.14,0,0,0,26.89,9.47c-6.61,7.5-17,7.61-25.72-.09a.23.23,0,1,0-.35.3c2.67,5.41,9.25,11.82,18.61,10.88,8.56-.86,13.52-9,14.52-15.69.56,8.52-1.39,14.54-8.75,20.15a.25.25,0,0,0-.11.34h0a.25.25,0,0,0,.33.11c6.79-2,12.23-5.43,15-12.54,0,6.16-2.14,12.37-7.53,16.51a.25.25,0,0,0-.11.34h0a.25.25,0,0,0,.33.11c3.45-1,6.17-2.49,8.14-5.19,1.31,11.1,6.52,17.69,12.53,17.69,4.12,0,7.2-3,7.2-7.87A11.37,11.37,0,0,0,117,197.81Zm99.23-91.62c-3.16-3.9-9.54-5.39-16.43-4a22.7,22.7,0,0,0-1.61-11.48.25.25,0,0,0-.48.12c.38,8.81-4.62,15.81-13.45,18.91,6.91-4.76,8.93-14.19,5.64-19.07a.25.25,0,0,0-.46.19c.37,2.06-.61,4.68-2.71,6.73-2.91,2.81-6.85,3.45-8.81,1.43s-1.2-6,1.71-8.76A9.68,9.68,0,0,1,183,88.08a.25.25,0,0,0-.06-.49c-6.39-.55-10.77,3.25-13.52,7.88s-7.57,8.41-13.21,7.67a.27.27,0,1,0-.21.5h0a11,11,0,0,0,9.91,1c-5.79,4.91-14,7.74-21.84,5.23a.25.25,0,0,0-.33.13h0a.25.25,0,0,0,.06.27c5.91,6.56,17.69,6.7,25.11,1.37-3,4.32-7.07,7.48-14.29,8.48a.25.25,0,0,0-.23.27h0a.25.25,0,0,0,.18.22c8.29,3.08,16.6,0,23.45-8.21a26.34,26.34,0,0,1-14.77,14,.25.25,0,0,0,.08.49c3.94.08,7.49-.86,12.27-3.57-3.5,5.65-2.73,15.65,2.4,22.26a.25.25,0,0,0,.35.07h0a.25.25,0,0,0,.1-.27c-1.18-7.2,1.3-15.33,5.61-19.64A18.18,18.18,0,0,0,190,145.41a.25.25,0,0,0,.26,0,.26.26,0,0,0,.16-.2c1.23-9.42,11.77-19,20.6-19.78a.25.25,0,0,0,0-.5,20.83,20.83,0,0,0-12.39,1,21.79,21.79,0,0,1,9.51-6.29.25.25,0,0,0,.22-.28h0a.25.25,0,0,0-.28-.22h0a20.42,20.42,0,0,0-12.73,3.54A31.44,31.44,0,0,1,214.8,109.3a.25.25,0,0,0,0-.5c-11.92-1.3-21.75,3.32-28.22,11.92,1.65-4.9,6.37-9.76,12.95-12.62,5.85-2.55,11.85-2.95,16.42-1.51a.25.25,0,0,0,.27-.4Zm-52.9,75.57c4.81-10.49,4.46-18.69.59-29a.25.25,0,0,0-.49.1c.62,12.62-2.83,21.65-10.3,27.81,8.25-9.85,4.35-29.56-8.82-29.56-9.59,0-17.52,8-19.45,17.52a.25.25,0,0,0,.47.17c2.84-4.76,7.41-7.85,12.46-7.85,8.13,0,10.54,6.47,10.54,11,0,6.19-4.93,11.34-8.71,11.34a4.94,4.94,0,0,1-5-4.88h0v-.05a8.87,8.87,0,0,1,6.38-8.15.25.25,0,0,0,.21-.28h0a.25.25,0,0,0-.28-.21h0a10.47,10.47,0,0,0-9.63,5.57,17.39,17.39,0,0,1,.64-7.72.25.25,0,0,0-.44-.23c-7.36,9.39-3.84,25.63,2,32.36-5.53-4-10.42-12.63-10.34-24.39a.25.25,0,0,0-.49-.1h0c-4.11,10.25-1.93,29.25,9.28,39.85a20.13,20.13,0,0,1-9.12-.69.25.25,0,0,0-.34.1h0a.25.25,0,0,0,.1.34h0c4.09,3.46,9.81,4.54,15.27,4.54-4.7-5.5-3.14-16.55,4.36-16.55,5.35,0,7.78,8.3,3.65,12.78a.25.25,0,0,0,.27.41c4.78-1.65,9.95-5.79,9.95-11,0-5-4.81-9.39-11.8-9.05,8.82-2.51,18.05.27,22.88,6.25a.25.25,0,0,0,.31.07.26.26,0,0,0,.13-.29c-2.79-10.72-12-15.2-23.44-13.71,9.28-3.76,23.25-.48,29.42,7.31a.25.25,0,0,0,.45-.21c-1.51-6.64-5-11.59-10.76-13.54Z"/>
      <path class="c" d="M189.67,162.47a.25.25,0,0,1-.25.21c-12.91.14-24.75,3.27-34,11.52,8-5.56,22.94-7.51,31.53-3.62a.26.26,0,0,1-.11.49c-10.68-.29-19.28,3-26,9,6.87.42,12.57,4.74,12.56,9.85a.25.25,0,0,1-.48.1c-1.12-2.49-4.75-3.78-8.58-2.88-4.18,1-7,4.19-6.3,7.17.47,2,2.44,3.4,5,3.79a.28.28,0,0,1,0,.54H163a17.42,17.42,0,0,1-3.32,0c-6.49-.62-11.51-4.59-11.95-9.18-4.71.55-8.88,3.16-10.38,6.77a.25.25,0,0,1-.49-.08c-.38-4.75,1.26-7.84,5-10.85a21.82,21.82,0,0,1-17.26-.54.26.26,0,0,1-.14-.28.25.25,0,0,1,.24-.2,16.26,16.26,0,0,0,11.73-5.07c-18.26,5.13-33.09-6.2-28-23a.25.25,0,0,1,.49,0c.92,9.71,7.7,16.12,17.86,17.08a17.46,17.46,0,0,1-11.52-15.6.25.25,0,0,1,.48-.12,16.75,16.75,0,0,0,14.16,9.81c-6.33-2.58-10.4-8.6-11.57-16.42a.25.25,0,0,1,.16-.32h0a.25.25,0,0,1,.32.16h0c3.86,7.61,12.18,12.82,22.44,8.88,10.62-4.11,15.27-16.38,16.3-25a.25.25,0,0,1,.5,0c3.72,15.69-3.58,32-16.64,38.84,7.1-2,13.44-6.26,17-13.35,8.29-1,14-3.86,16.86-9.24a.25.25,0,1,1,.48.14h0c-.18,2.11-.94,6.33-4.07,8.27,7,0,12.51.89,17.8,3A.25.25,0,0,1,189.67,162.47ZM160.18,109a.25.25,0,0,0,.36-.34c-1.62-2.8-.14-6.81,3.05-6.81,5.72,0,8.47,10.77,7.6,20.59-2.16-5.75-4-8.05-7.35-10.79a.23.23,0,0,0-.35.31,46.55,46.55,0,0,1,5.9,24.08c-1.46-6-3.2-9.32-8.13-14.38a.26.26,0,0,0-.41.3,44.25,44.25,0,0,1,.95,34.26.25.25,0,0,0,.13.33h0a.25.25,0,0,0,.22,0c5.21-2.55,8.26-4.23,12.75-10.39-1.36-7.4-.23-11,3.17-17.19-3.94,9.92-1.84,23.89,8.19,29.59a.25.25,0,0,0,.35-.35h0a17.9,17.9,0,0,1-4.16-17.93c-1.6,10.36,7.55,19,17.71,19,9.6,0,16.15-7.51,15.61-14.94s-5.44-11-9.67-12.5a.25.25,0,0,0-.27.42c5.61,5.69,6.38,16.49-3.58,19.76,5.86-5.06,3.69-16.83-5.69-17.72a.26.26,0,0,0-.16.47,8,8,0,0,1,3.68,6.57c0,4.67-3.42,6.51-5.68,6.51-3.42,0-6.26-3.26-6.26-8.18,0-5.84,5.26-10.68,12-11.43s12.78,2.15,15.75,6.46a.25.25,0,0,0,.33.12h0a.25.25,0,0,0,.14-.33h0a17.14,17.14,0,0,0-20.82-12.42h0a17.14,17.14,0,0,0-6.06,2.89c6.61-7.5,17-7.61,25.72.09a.22.22,0,1,0,.35-.28c-2.64-5.42-9.22-11.83-18.55-10.89-8.56.86-13.52,9-14.52,15.69-.56-8.52,1.39-14.54,8.75-20.14A.26.26,0,0,0,191,109c-6.79,2-12.23,5.42-15,12.54,0-6.16,2.11-12.37,7.5-16.51a.25.25,0,1,0-.22-.45h0c-3.45,1-6.17,2.49-8.14,5.18-1.31-11.1-6.52-17.69-12.53-17.69-4.12,0-7.21,3-7.21,7.87A11.37,11.37,0,0,0,160.18,109ZM61,200.64c3.16,3.9,9.54,5.39,16.43,4A22.71,22.71,0,0,0,79,216.1a.25.25,0,0,0,.32.14h0a.25.25,0,0,0,.15-.26c-.37-8.77,4.62-15.84,13.45-18.91C86,201.82,84,211.26,87.29,216.13a.25.25,0,0,0,.34.1h0a.25.25,0,0,0,.12-.29c-.37-2.06.61-4.68,2.71-6.72,2.91-2.81,6.85-3.45,8.81-1.43s1.2,5.95-1.71,8.76a9.67,9.67,0,0,1-3.45,2.19.26.26,0,0,0,.12.48c6.39.55,10.77-3.25,13.52-7.88s7.57-8.41,13.25-7.7a.25.25,0,0,0,.3-.19h0a.25.25,0,0,0-.14-.28,11,11,0,0,0-9.86-1.05c5.8-4.91,14-7.74,21.84-5.23a.25.25,0,0,0,.33-.13h0a.25.25,0,0,0-.06-.27c-5.91-6.56-17.69-6.7-25.11-1.37,3-4.32,7.07-7.49,14.29-8.48a.25.25,0,0,0,.23-.27h0a.25.25,0,0,0-.18-.22c-8.29-3.08-16.6,0-23.45,8.22a26.34,26.34,0,0,1,14.77-14,.25.25,0,0,0-.08-.49c-3.94-.08-7.49.86-12.27,3.57,3.51-5.69,2.74-15.64-2.37-22.26a.25.25,0,0,0-.35-.07h0a.25.25,0,0,0-.1.27c1.18,7.2-1.3,15.33-5.61,19.64a18.17,18.17,0,0,0-5.9-19.64.25.25,0,0,0-.42.15c-1.23,9.42-11.77,19-20.6,19.78a.29.29,0,0,0,0,.58,20.84,20.84,0,0,0,12.39-1A21.81,21.81,0,0,1,69,187a.25.25,0,0,0-.22.28h0a.25.25,0,0,0,.28.22h0A20.42,20.42,0,0,0,81.77,184a31.45,31.45,0,0,1-19.43,13.51.25.25,0,1,0,0,.5c11.92,1.3,21.75-3.37,28.22-11.92-1.65,4.9-6.37,9.76-12.95,12.62-5.85,2.55-11.85,2.93-16.42,1.51a.25.25,0,0,0-.32.15h0a.25.25,0,0,0,0,.24ZM113.86,125c-4.81,10.49-4.46,18.69-.59,29a.25.25,0,0,0,.3.19h0a.25.25,0,0,0,.19-.29h0c-.62-12.62,2.83-21.65,10.3-27.81-8.25,9.85-4.35,29.56,8.82,29.56,9.59,0,17.52-8,19.46-17.53a.25.25,0,1,0-.47-.17c-2.84,4.76-7.41,7.85-12.46,7.85-8.13,0-10.54-6.47-10.54-11,0-6.19,4.93-11.34,8.71-11.34a4.94,4.94,0,0,1,5,4.88h0v0a8.88,8.88,0,0,1-6.37,8.18.25.25,0,0,0-.21.28h0a.25.25,0,0,0,.28.21h0a10.47,10.47,0,0,0,9.63-5.57,17.41,17.41,0,0,1-.64,7.72.25.25,0,0,0,.44.23c7.36-9.39,3.84-25.62-2-32.36,5.53,4,10.42,12.63,10.34,24.39a.25.25,0,0,0,.49.1h0c4.11-10.25,1.93-29.25-9.28-39.85a20.1,20.1,0,0,1,9.12.69.25.25,0,0,0,.24-.44h0c-4.09-3.46-9.81-4.54-15.27-4.54,4.7,5.5,3.14,16.55-4.35,16.55-5.35,0-7.78-8.3-3.65-12.78a.25.25,0,0,0-.27-.41c-4.78,1.66-9.95,5.79-9.95,11,0,5,4.81,9.39,11.8,9.05-8.83,2.45-18.06-.28-22.89-6.28a.25.25,0,0,0-.44.22c2.79,10.71,12,15.2,23.44,13.71-9.28,3.76-23.25.48-29.42-7.31a.25.25,0,0,0-.45.21c1.42,6.68,4.92,11.62,10.68,13.53Z"/>
      <path class="b" d="M-20.86,144.34a.25.25,0,0,1,.25-.21c12.91-.13,24.75-3.27,34-11.51-8,5.56-22.94,7.51-31.53,3.62a.25.25,0,0,1-.14-.29.25.25,0,0,1,.25-.2c10.68.29,19.28-3,26-9C1.1,126.33-4.6,122-4.59,116.91a.25.25,0,0,1,.2-.25.25.25,0,0,1,.28.14c1.11,2.49,4.75,3.78,8.58,2.84,4.18-1,7-4.19,6.3-7.16-.47-2-2.44-3.4-5-3.79a.25.25,0,1,1,0-.5,17.43,17.43,0,0,1,3.32,0c6.49.66,11.51,4.64,11.91,9.22,4.71-.55,8.88-3.16,10.38-6.77a.25.25,0,0,1,.49.08c.38,4.75-1.26,7.84-5,10.85a21.81,21.81,0,0,1,17.25.54.25.25,0,0,1,.13.33h0a.25.25,0,0,1-.23.15,16.25,16.25,0,0,0-11.69,5.05c18.25-5.13,33.09,6.2,28,23a.25.25,0,0,1-.31.17h0a.25.25,0,0,1-.18-.22c-.92-9.64-7.7-16-17.84-17a17.46,17.46,0,0,1,11.54,15.53.25.25,0,0,1-.48.12,16.75,16.75,0,0,0-14.16-9.81c6.33,2.58,10.4,8.6,11.57,16.42a.25.25,0,0,1-.19.3h0A.25.25,0,0,1,50,156c-3.87-7.58-12.16-12.79-22.45-8.81-10.62,4.11-15.27,16.39-16.3,25a.26.26,0,0,1-.24.22.25.25,0,0,1-.26-.2C7,156.64,14.32,140.34,27.38,133.45c-7.1,2-13.44,6.26-17,13.35-8.29,1-14,3.86-16.86,9.24a.25.25,0,0,1-.3.13A.25.25,0,0,1-7,155.9c.18-2.11.94-6.33,4.07-8.27-7,0-12.51-.89-17.8-3A.26.26,0,0,1-20.86,144.34ZM8.62,197.81a.23.23,0,0,0-.35.3c1.62,2.8.14,6.81-3.05,6.81-5.72,0-8.47-10.77-7.6-20.59,2.16,5.76,4,8.05,7.35,10.79a.24.24,0,1,0,.35-.32,46.55,46.55,0,0,1-5.87-24c1.46,6,3.2,9.32,8.13,14.38a.26.26,0,0,0,.41-.3,44.25,44.25,0,0,1-1-34.25.25.25,0,0,0-.13-.33h0a.25.25,0,0,0-.22,0c-5.21,2.56-8.26,4.24-12.75,10.38,1.36,7.4.23,11-3.17,17.2,3.94-9.92,1.84-23.89-8.19-29.59a.25.25,0,0,0-.32.06.25.25,0,0,0,0,.33,17.91,17.91,0,0,1,4.16,17.93c1.53-10.39-7.6-19.12-17.78-19.12-9.6,0-16.15,7.51-15.61,14.94s5.44,11,9.67,12.5a.26.26,0,0,0,.3-.1.26.26,0,0,0,0-.32c-5.61-5.69-6.38-16.49,3.58-19.76-5.86,5.06-3.69,16.83,5.69,17.72a.25.25,0,0,0,.26-.17.25.25,0,0,0-.1-.3,8,8,0,0,1-3.68-6.57c0-4.67,3.42-6.51,5.68-6.51,3.42,0,6.26,3.26,6.26,8.18,0,5.84-5.26,10.68-12,11.44S-44.13,176.35-47.1,172a.25.25,0,0,0-.31-.09.25.25,0,0,0-.14.29,17.14,17.14,0,0,0,20.82,12.4,17.14,17.14,0,0,0,6.07-2.9c-6.61,7.5-17,7.61-25.72-.09a.25.25,0,0,0-.32,0,.25.25,0,0,0-.07.31c2.67,5.41,9.25,11.82,18.61,10.88,8.56-.86,13.52-9,14.52-15.69.56,8.52-1.39,14.54-8.75,20.15a.26.26,0,0,0-.07.32.26.26,0,0,0,.3.13c6.79-2,12.23-5.43,15-12.54,0,6.16-2.14,12.37-7.53,16.51a.25.25,0,0,0-.07.31.25.25,0,0,0,.3.13c3.45-1,6.17-2.49,8.14-5.19C-5,208.11.22,214.7,6.23,214.7c4.13,0,7.21-3,7.21-7.87A11.37,11.37,0,0,0,8.62,197.81Zm99.23-91.62c-3.16-3.9-9.54-5.39-16.43-4a22.7,22.7,0,0,0-1.61-11.48.25.25,0,0,0-.48.12c.37,8.81-4.62,15.81-13.45,18.91,6.91-4.76,8.93-14.19,5.64-19.1a.25.25,0,0,0-.46.19c.37,2.06-.61,4.68-2.71,6.73C75.44,100.37,71.5,101,69.54,99s-1.2-5.95,1.71-8.76A9.68,9.68,0,0,1,74.7,88a.25.25,0,0,0-.06-.49C68.23,87,63.85,90.8,61.1,95.43s-7.57,8.44-13.21,7.7a.27.27,0,0,0-.16.51h0a11,11,0,0,0,9.86,1c-5.79,4.92-14,7.75-21.84,5.24a.25.25,0,0,0-.33.13h0a.25.25,0,0,0,.06.27c5.91,6.56,17.69,6.7,25.11,1.35-3,4.32-7.07,7.48-14.29,8.48a.25.25,0,0,0-.23.27h0a.25.25,0,0,0,.18.22c8.29,3.08,16.6,0,23.45-8.21a26.34,26.34,0,0,1-14.77,14,.25.25,0,0,0,.08.49c3.94.08,7.49-.86,12.27-3.57C63.77,129,64.53,139,69.64,145.64a.25.25,0,0,0,.35,0h0a.25.25,0,0,0,.1-.27c-1.18-7.2,1.3-15.33,5.61-19.64a18.18,18.18,0,0,0,5.9,19.64.25.25,0,0,0,.26,0,.26.26,0,0,0,.16-.2c1.23-9.42,11.77-19,20.6-19.78a.25.25,0,0,0,0-.5,20.83,20.83,0,0,0-12.39,1,21.79,21.79,0,0,1,9.54-6.25.25.25,0,0,0,.22-.28h0a.25.25,0,0,0-.28-.22h0A20.42,20.42,0,0,0,87,122.81a31.44,31.44,0,0,1,19.43-13.51.25.25,0,0,0,0-.5c-11.92-1.3-21.75,3.32-28.22,11.92,1.65-4.9,6.37-9.76,12.95-12.62,5.84-2.55,11.84-2.95,16.42-1.51a.25.25,0,0,0,.27-.4ZM55,181.76c4.81-10.49,4.46-18.69.59-29a.25.25,0,0,0-.3-.19h0a.25.25,0,0,0-.19.29h0c.62,12.62-2.83,21.65-10.3,27.81,8.2-9.85,4.3-29.56-8.87-29.56-9.59,0-17.52,8-19.46,17.52a.25.25,0,1,0,.47.17c2.84-4.76,7.41-7.85,12.46-7.85,8.13,0,10.54,6.47,10.54,11,0,6.19-4.93,11.34-8.71,11.34a4.94,4.94,0,0,1-5-4.88h0v-.05a8.87,8.87,0,0,1,6.38-8.16.25.25,0,0,0,.22-.28h0a.25.25,0,0,0-.28-.21,10.47,10.47,0,0,0-9.63,5.57,17.39,17.39,0,0,1,.64-7.72.26.26,0,0,0-.13-.3.25.25,0,0,0-.32.07c-7.37,9.37-3.85,25.64,2,32.37-5.53-4-10.42-12.63-10.34-24.39a.25.25,0,0,0-.49-.1h0c-4.17,10.25-2,29.24,9.22,39.85a20.13,20.13,0,0,1-9.13-.69.25.25,0,0,0-.34.1h0a.25.25,0,0,0,.1.34h0c4.09,3.46,9.81,4.54,15.27,4.54-4.7-5.5-3.14-16.55,4.36-16.55,5.35,0,7.78,8.3,3.65,12.78a.25.25,0,0,0,.27.41c4.78-1.65,10-5.79,10-11,0-5-4.81-9.39-11.8-9.05,8.82-2.51,18,.27,22.88,6.25a.25.25,0,0,0,.31.07.26.26,0,0,0,.13-.29c-2.79-10.72-12-15.2-23.44-13.71,9.25-3.76,23.25-.48,29.37,7.31a.25.25,0,0,0,.45-.21c-1.37-6.66-4.87-11.59-10.63-13.54Z"/>
      <path class="c" d="M81.33,162.47a.25.25,0,0,1-.25.21c-12.91.14-24.75,3.27-34,11.52,8-5.56,22.94-7.51,31.53-3.62a.26.26,0,0,1-.11.49c-10.68-.29-19.28,3-26,9,6.87.42,12.57,4.74,12.56,9.85a.25.25,0,0,1-.48.1c-1.12-2.49-4.75-3.78-8.58-2.88-4.18,1-7,4.19-6.3,7.17.47,2,2.44,3.4,5,3.79a.27.27,0,0,1,0,.54h0a17.42,17.42,0,0,1-3.32,0c-6.49-.62-11.51-4.59-12-9.18-4.71.55-8.88,3.16-10.38,6.77a.25.25,0,0,1-.49-.08c-.38-4.75,1.26-7.84,5-10.85a21.82,21.82,0,0,1-17.26-.54.26.26,0,0,1-.14-.28.25.25,0,0,1,.24-.2,16.26,16.26,0,0,0,11.73-5.07c-18.26,5-33.08-6.29-28-23.14a.25.25,0,0,1,.49,0c.92,9.71,7.7,16.12,17.86,17.08A17.46,17.46,0,0,1,6.92,157.64a.25.25,0,0,1,.48-.12,16.75,16.75,0,0,0,14.16,9.81c-6.33-2.58-10.4-8.6-11.57-16.42a.25.25,0,0,1,.16-.32h0a.25.25,0,0,1,.31.17c3.87,7.6,12.16,12.81,22.45,8.88,10.62-4.11,15.27-16.38,16.3-25a.25.25,0,0,1,.5,0c3.72,15.69-3.58,32-16.64,38.84,7.1-2,13.44-6.26,17-13.35,8.29-1,14-3.86,16.86-9.24a.25.25,0,1,1,.48.14h0c-.18,2.11-.94,6.33-4.07,8.27,7,0,12.51.89,17.8,3A.25.25,0,0,1,81.33,162.47ZM51.84,109a.25.25,0,1,0,.36-.36c-1.62-2.8-.14-6.81,3-6.81,5.8,0,8.52,10.81,7.65,20.61-2.16-5.75-4-8.05-7.35-10.8a.23.23,0,0,0-.35.31,46.55,46.55,0,0,1,5.88,24c-1.46-6-3.2-9.32-8.13-14.38a.26.26,0,0,0-.41.3,44.25,44.25,0,0,1,1,34.26.25.25,0,0,0,.13.33h0a.25.25,0,0,0,.22,0C59,154,62,152.31,66.52,146.15c-1.36-7.4-.23-11,3.17-17.19-3.94,9.92-1.84,23.89,8.19,29.59a.25.25,0,1,0,.35-.35h0a17.9,17.9,0,0,1-4.23-18c-1.53,10.42,7.6,19.11,17.78,19.11,9.6,0,16.15-7.51,15.61-14.94s-5.44-11-9.67-12.5a.25.25,0,0,0-.27.42c5.61,5.69,6.38,16.49-3.58,19.76,5.86-5.06,3.69-16.83-5.69-17.72a.26.26,0,0,0-.16.47,8,8,0,0,1,3.68,6.57c0,4.67-3.42,6.51-5.68,6.51-3.42,0-6.26-3.26-6.26-8.18,0-5.84,5.26-10.68,12-11.43s12.78,2.15,15.75,6.46a.25.25,0,0,0,.45-.21A17.14,17.14,0,0,0,81.13,125c6.61-7.5,17-7.61,25.72.09a.22.22,0,0,0,.35-.28c-2.62-5.4-9.2-11.81-18.56-10.88-8.56.86-13.52,9-14.52,15.69-.56-8.52,1.39-14.54,8.75-20.14a.26.26,0,0,0-.23-.45c-6.79,2-12.23,5.42-15,12.54,0-6.16,2.14-12.37,7.53-16.51a.25.25,0,0,0-.22-.45h0c-3.45,1-6.17,2.49-8.14,5.18C65.5,98.69,60.29,92.1,54.28,92.1c-4.12,0-7.21,3-7.21,7.87A11.37,11.37,0,0,0,51.84,109Zm-99.23,91.64c3.16,3.9,9.54,5.39,16.43,4a22.71,22.71,0,0,0,1.61,11.49.26.26,0,0,0,.29.14.26.26,0,0,0,.19-.26c-.37-8.77,4.62-15.84,13.45-18.91-6.91,4.76-8.93,14.19-5.64,19.06a.26.26,0,0,0,.31.09.25.25,0,0,0,.15-.28c-.37-2.06.61-4.68,2.71-6.72,2.89-2.83,6.89-3.47,8.81-1.45s1.2,5.95-1.71,8.76a9.67,9.67,0,0,1-3.45,2.19.25.25,0,0,0-.17.27.25.25,0,0,0,.23.22c6.39.55,10.77-3.25,13.52-7.88s7.57-8.41,13.21-7.67a.25.25,0,0,0,.3-.19h0a.25.25,0,0,0-.14-.28,11,11,0,0,0-9.86-1.05c5.79-4.91,14-7.74,21.84-5.23a.25.25,0,0,0,.33-.13h0a.25.25,0,0,0-.06-.27c-6-6.56-17.69-6.7-25.11-1.37,3-4.32,7.07-7.52,14.29-8.52a.25.25,0,0,0,.23-.27h0a.25.25,0,0,0-.18-.22c-8.29-3.08-16.6,0-23.45,8.22a26.34,26.34,0,0,1,14.77-14,.25.25,0,0,0-.08-.49c-3.94-.08-7.49.86-12.27,3.57,3.51-5.69,2.74-15.64-2.37-22.26a.26.26,0,0,0-.3-.08.26.26,0,0,0-.15.28c1.18,7.25-1.34,15.37-5.61,19.68a18.17,18.17,0,0,0-5.9-19.64.25.25,0,0,0-.26,0,.26.26,0,0,0-.16.2c-1.23,9.42-11.77,19-20.6,19.78a.25.25,0,0,0-.23.24.25.25,0,0,0,.2.26,20.84,20.84,0,0,0,12.39-1A21.81,21.81,0,0,1-39.36,187a.25.25,0,0,0-.18.27.25.25,0,0,0,.23.22A20.42,20.42,0,0,0-26.57,184,31.45,31.45,0,0,1-46,197.51a.26.26,0,0,0-.2.26.25.25,0,0,0,.2.23c11.92,1.3,21.75-3.32,28.22-11.92-1.65,4.9-6.37,9.76-12.95,12.62-5.85,2.55-11.85,2.95-16.42,1.51a.25.25,0,0,0-.29.1A.25.25,0,0,0-47.39,200.64ZM5.52,125C.71,135.49,1.06,143.69,4.93,154a.25.25,0,0,0,.3.19h0a.25.25,0,0,0,.19-.29c-.62-12.62,2.83-21.65,10.3-27.81C7.47,136,11.37,155.7,24.54,155.7c9.59,0,17.52-8,19.46-17.53a.25.25,0,0,0-.47-.17c-2.84,4.76-7.41,7.85-12.46,7.85-8.13,0-10.54-6.47-10.54-11,0-6.19,4.93-11.34,8.71-11.34a4.94,4.94,0,0,1,5,4.88h0v0a8.88,8.88,0,0,1-6.38,8.2.25.25,0,0,0-.22.28h0a.25.25,0,0,0,.28.21,10.47,10.47,0,0,0,9.63-5.57A17.41,17.41,0,0,1,37,139.3a.25.25,0,0,0,.44.23c7.36-9.39,3.84-25.62-2-32.36,5.53,4,10.42,12.63,10.34,24.39a.25.25,0,0,0,.49.1h0c4.11-10.25,1.93-29.25-9.27-39.85a20.1,20.1,0,0,1,9.13.69.25.25,0,0,0,.24-.44c-4.09-3.46-9.81-4.54-15.27-4.54,4.7,5.5,3.14,16.55-4.35,16.55-5.35,0-7.78-8.3-3.65-12.78a.25.25,0,0,0-.27-.41c-4.83,1.66-10,5.76-10,11,0,5,4.81,9.39,11.8,9.05-8.82,2.5-18.05-.29-22.88-6.29a.25.25,0,0,0-.44.22c2.79,10.78,12,15.24,23.44,13.78-9.28,3.73-23.25.45-29.42-7.34a.25.25,0,0,0-.31-.07.25.25,0,0,0-.14.28C-3.73,118.15-.24,123.09,5.52,125Z"/>
      <path class="b" d="M87.47,34.64a.25.25,0,0,1,.25-.21c12.91-.13,24.75-3.27,34-11.51-8,5.56-22.94,7.51-31.53,3.62a.25.25,0,0,1,.11-.48c10.68.29,19.28-3,26-9-6.87-.42-12.57-4.74-12.56-9.84a.25.25,0,0,1,.48-.1C105.34,9.61,109,10.9,112.8,10c4.18-1,7-4.19,6.3-7.16-.47-2-2.44-3.4-5-3.79a.26.26,0,0,1-.2-.31.26.26,0,0,1,.2-.2,17.43,17.43,0,0,1,3.32,0c6.49.62,11.51,4.6,12,9.18,4.71-.55,8.88-3.16,10.38-6.77a.25.25,0,0,1,.49.08c.38,4.75-1.26,7.84-5,10.85a21.81,21.81,0,0,1,17.25.54.25.25,0,0,1-.1.48,16.25,16.25,0,0,0-11.68,5c18.25-5.13,33.09,6.2,28,23a.25.25,0,0,1-.49,0c-.92-9.71-7.7-16.12-17.86-17.08A17.46,17.46,0,0,1,162,39.35a.25.25,0,0,1-.48.12,16.75,16.75,0,0,0-14.16-9.81c6.33,2.58,10.4,8.6,11.57,16.42a.25.25,0,1,1-.48.15h0c-3.87-7.58-12.16-12.79-22.45-8.81-10.62,4.11-15.27,16.39-16.3,25a.26.26,0,0,1-.24.22.25.25,0,0,1-.26-.2C115.4,46.9,122.7,30.6,135.76,23.71c-7.1,2-13.44,6.26-17,13.35-8.29,1-14,3.86-16.86,9.24a.25.25,0,0,1-.48-.14c.18-2.11.94-6.33,4.07-8.27-7,0-12.51-.89-17.8-3A.26.26,0,0,1,87.47,34.64ZM117,88.17a.25.25,0,0,0-.36.34c1.62,2.8.14,6.81-3.05,6.81-5.72,0-8.47-10.77-7.6-20.59,2.16,5.76,4,8,7.35,10.79a.25.25,0,0,0,.39-.31,46.55,46.55,0,0,1-5.9-24.09c1.46,6,3.2,9.32,8.13,14.38a.25.25,0,0,0,.41-.28,44.25,44.25,0,0,1-1-34.22.26.26,0,1,0-.37-.36c-5.21,2.55-8.26,4.23-12.75,10.39,1.36,7.4.23,11-3.17,17.2,3.89-10,1.89-24-8.19-29.65a.25.25,0,0,0-.31.4,17.91,17.91,0,0,1,4.16,17.93C96.3,46.56,87.17,37.83,77,37.83c-9.6,0-16.15,7.51-15.61,14.94s5.44,11,9.67,12.5a.25.25,0,0,0,.27-.42c-5.61-5.69-6.38-16.49,3.58-19.76-5.91,5.06-3.7,16.83,5.68,17.73a.25.25,0,0,0,.16-.47,8,8,0,0,1-3.68-6.57c0-4.67,3.42-6.51,5.68-6.51,3.42,0,6.26,3.26,6.26,8.18,0,5.84-5.26,10.68-12,11.44s-12.78-2.15-15.75-6.46a.25.25,0,0,0-.45.21A17.14,17.14,0,0,0,87.7,72.15c-6.61,7.5-17,7.61-25.72-.09a.25.25,0,1,0-.4.3c2.67,5.41,9.25,11.82,18.61,10.88,8.56-.86,13.52-9,14.52-15.69.56,8.52-1.39,14.54-8.75,20.15a.25.25,0,0,0,.22.45c6.79-2,12.23-5.43,15-12.54,0,6.16-2.14,12.37-7.53,16.51a.25.25,0,0,0,.22.45c3.45-1,6.17-2.49,8.14-5.19,1.31,11.1,6.52,17.69,12.53,17.69,4.12,0,7.2-3,7.2-7.87A11.37,11.37,0,0,0,117,88.17ZM216.19-3.45c-3.16-3.9-9.54-5.39-16.43-4a22.7,22.7,0,0,0-1.61-11.48.25.25,0,0,0-.33-.14.25.25,0,0,0-.15.26C198-10,193-3,184.21.1c6.91-4.76,8.93-14.19,5.64-19.07a.25.25,0,0,0-.34-.1.25.25,0,0,0-.12.29c.37,2.06-.61,4.68-2.71,6.73-2.91,2.81-6.85,3.45-8.81,1.43s-1.2-6,1.71-8.76A9.68,9.68,0,0,1,183-21.57a.25.25,0,0,0,.17-.31.25.25,0,0,0-.23-.18c-6.39-.55-10.77,3.25-13.52,7.88s-7.57,8.41-13.21,7.67a.26.26,0,0,0-.27.17A.25.25,0,0,0,156-6a11,11,0,0,0,9.88,1c-5.79,4.91-14,7.74-21.84,5.23a.25.25,0,0,0-.27.41c5.91,6.56,17.69,6.7,25.11,1.37-3,4.32-7.07,7.48-14.29,8.48a.25.25,0,0,0-.05.49c8.29,3.08,16.6,0,23.45-8.21a26.34,26.34,0,0,1-14.77,14,.25.25,0,0,0,.08.49c3.94.08,7.49-.86,12.27-3.57C172.1,19.36,172.87,29.31,178,36a.25.25,0,0,0,.45-.2c-1.18-7.2,1.3-15.33,5.61-19.64A18.18,18.18,0,0,0,190,35.8a.25.25,0,0,0,.26,0,.26.26,0,0,0,.16-.2c1.23-9.42,11.77-19,20.6-19.78a.25.25,0,0,0,0-.5,20.83,20.83,0,0,0-12.39,1,21.79,21.79,0,0,1,9.55-6.25.25.25,0,1,0-.06-.5h0a20.42,20.42,0,0,0-12.73,3.54A31.44,31.44,0,0,1,214.8-.36a.26.26,0,0,0,.2-.26.25.25,0,0,0-.23-.24C202.85-2.16,193,2.46,186.55,11.06c1.65-4.9,6.37-9.76,12.95-12.62,5.85-2.54,11.85-2.95,16.42-1.51a.25.25,0,0,0,.29-.1A.26.26,0,0,0,216.19-3.45Zm-52.9,75.57c4.81-10.49,4.46-18.69.59-29a.25.25,0,1,0-.49.1c.62,12.62-2.83,21.65-10.3,27.81,8.25-9.85,4.35-29.56-8.82-29.56-9.59,0-17.52,8-19.45,17.52a.25.25,0,0,0,.47.18c2.84-4.76,7.41-7.85,12.46-7.85,8.13,0,10.54,6.47,10.54,11,0,6.19-4.93,11.34-8.71,11.34a4.94,4.94,0,0,1-5-4.88h0v-.14A8.87,8.87,0,0,1,141,60.52a.25.25,0,0,0-.07-.5h0a10.47,10.47,0,0,0-9.67,5.62,17.39,17.39,0,0,1,.64-7.72.25.25,0,0,0-.44-.23C124,67,127.56,83.31,133.38,90,127.85,86,123,77.36,123,65.64a.25.25,0,0,0-.49-.1c-4.11,10.25-1.93,29.25,9.28,39.85a20.13,20.13,0,0,1-9.12-.69.25.25,0,0,0-.24.44h0c4.09,3.42,9.81,4.5,15.27,4.5-4.7-5.5-3.14-16.55,4.36-16.55,5.35,0,7.78,8.3,3.65,12.78a.25.25,0,0,0,.27.41c4.78-1.65,9.95-5.79,9.95-11,0-5-4.81-9.39-11.8-9.05,8.82-2.51,18.05.27,22.88,6.25a.25.25,0,0,0,.31.07.26.26,0,0,0,.13-.29c-2.79-10.72-12-15.2-23.44-13.71,9.28-3.76,23.25-.48,29.42,7.31a.25.25,0,0,0,.45-.21C172.53,79,169,74.07,163.28,72.12Z"/>
      <path class="c" d="M189.67,52.83a.25.25,0,0,1-.25.21c-12.91.14-24.75,3.27-34,11.52,8-5.56,22.94-7.51,31.53-3.62a.26.26,0,0,1-.11.49c-10.68-.29-19.28,3-26,9,6.87.42,12.57,4.74,12.56,9.85a.25.25,0,0,1-.48.1c-1.12-2.49-4.75-3.78-8.58-2.88-4.18,1-7,4.19-6.3,7.17.47,2,2.44,3.4,5,3.79a.25.25,0,0,1,0,.5,17.42,17.42,0,0,1-3.32,0c-6.49-.62-11.51-4.59-11.95-9.18-4.71.55-8.88,3.16-10.38,6.77a.25.25,0,0,1-.49-.08c-.38-4.75,1.26-7.84,5-10.85A21.82,21.82,0,0,1,124.59,75a.26.26,0,0,1-.14-.28.25.25,0,0,1,.24-.2,16.26,16.26,0,0,0,11.73-5.07c-18.26,5.13-33.09-6.2-28-23a.25.25,0,0,1,.49,0c.92,9.71,7.7,16.12,17.86,17.08A17.46,17.46,0,0,1,115.26,48a.25.25,0,0,1,.48-.12,16.75,16.75,0,0,0,14.16,9.81c-6.33-2.58-10.4-8.6-11.57-16.42a.25.25,0,0,1,.48-.15C122.68,48.75,131,54,141.26,50c10.62-4.11,15.27-16.38,16.3-25a.25.25,0,1,1,.5,0c3.72,15.69-3.58,32-16.64,38.84,7.1-2,13.44-6.26,17-13.35,8.29-1,14-3.86,16.86-9.24a.25.25,0,0,1,.48.14c-.18,2.11-.94,6.33-4.07,8.27,7,0,12.51.89,17.8,3A.25.25,0,0,1,189.67,52.83ZM160.18-.64a.26.26,0,0,0,.32,0,.25.25,0,0,0,0-.31c-1.62-2.8-.14-6.81,3.05-6.81,5.72,0,8.47,10.77,7.6,20.59C169,7,167.15,4.75,163.84,2a.25.25,0,0,0-.38.32,46.55,46.55,0,0,1,5.9,24.08c-1.46-6-3.2-9.32-8.13-14.38a.25.25,0,0,0-.41.28,44.25,44.25,0,0,1,.95,34.26.25.25,0,0,0,.35.32c5.21-2.55,8.26-4.23,12.75-10.39-1.36-7.4-.23-11,3.17-17.19-3.94,9.92-1.84,23.89,8.19,29.59a.25.25,0,0,0,.31-.4h0a17.9,17.9,0,0,1-4.16-17.93C180.84,41,190,49.64,200.15,49.64c9.6,0,16.15-7.51,15.61-14.94s-5.44-11-9.67-12.5a.25.25,0,0,0-.27.42c5.61,5.69,6.38,16.49-3.58,19.76,5.86-5.06,3.69-16.83-5.69-17.72a.25.25,0,0,0-.16.46,8,8,0,0,1,3.68,6.57c0,4.67-3.42,6.51-5.68,6.51-3.42,0-6.26-3.26-6.26-8.18,0-5.84,5.26-10.68,12-11.43s12.78,2.15,15.75,6.46a.25.25,0,0,0,.46-.21,17.14,17.14,0,0,0-26.89-9.51c6.61-7.5,17-7.61,25.72.09a.25.25,0,0,0,.39-.3C212.92,9.72,206.33,3.3,197,4.24c-8.56.86-13.52,9-14.52,15.69-.56-8.52,1.39-14.54,8.75-20.14a.26.26,0,0,0,0-.37A.26.26,0,0,0,191-.66c-6.79,2-12.23,5.42-15,12.54,0-6.16,2.14-12.37,7.53-16.51a.26.26,0,0,0,0-.37.26.26,0,0,0-.26-.08c-3.45,1-6.17,2.49-8.14,5.18-1.31-11.1-6.52-17.69-12.53-17.69-4.12,0-7.21,3-7.21,7.87A11.37,11.37,0,0,0,160.18-.64ZM61,91c3.16,3.9,9.54,5.39,16.43,4A22.71,22.71,0,0,0,79,106.45a.25.25,0,0,0,.48-.12c-.37-8.77,4.62-15.84,13.45-18.91C86,92.18,84,101.64,87.29,106.49a.25.25,0,0,0,.46-.19c-.37-2.06.61-4.68,2.71-6.72,2.91-2.81,6.85-3.45,8.81-1.43s1.2,5.95-1.71,8.76a9.67,9.67,0,0,1-3.45,2.19.25.25,0,0,0,.06.49c6.39.55,10.77-3.25,13.52-7.88S115.26,93.3,120.9,94a.25.25,0,0,0,.16-.47,11,11,0,0,0-9.86-1c5.8-4.91,14-7.74,21.84-5.23a.25.25,0,0,0,.27-.41c-5.91-6.56-17.69-6.7-25.11-1.37,3-4.32,7.07-7.49,14.29-8.48a.25.25,0,0,0,.05-.49c-8.29-3.08-16.6,0-23.45,8.22a26.34,26.34,0,0,1,14.77-14,.25.25,0,0,0-.08-.49c-3.94-.08-7.49.86-12.27,3.57,3.51-5.69,2.74-15.64-2.37-22.26a.25.25,0,0,0-.45.2c1.18,7.2-1.3,15.33-5.61,19.64a18.17,18.17,0,0,0-5.9-19.64.25.25,0,0,0-.42.16c-1.23,9.42-11.77,19-20.6,19.78a.25.25,0,0,0,0,.5,20.84,20.84,0,0,0,12.39-1A21.81,21.81,0,0,1,69,77.4a.25.25,0,0,0,.06.5,20.42,20.42,0,0,0,12.73-3.54A31.45,31.45,0,0,1,62.34,87.87a.25.25,0,1,0,0,.5c12,1.3,21.78-3.37,28.25-11.92-1.65,4.9-6.37,9.76-12.95,12.62C71.8,91.64,65.8,92,61.23,90.58A.25.25,0,0,0,61,91Zm52.9-75.57c-4.81,10.49-4.46,18.69-.59,29a.25.25,0,0,0,.49-.1h0c-.62-12.62,2.83-21.65,10.3-27.81-8.25,9.85-4.35,29.56,8.82,29.56,9.59,0,17.52-8,19.46-17.53a.25.25,0,0,0-.47-.18c-2.84,4.76-7.41,7.85-12.46,7.85-8.13,0-10.54-6.47-10.54-11,0-6.19,4.93-11.34,8.71-11.34a4.94,4.94,0,0,1,5,4.88h0v.05A8.88,8.88,0,0,1,136.24,27a.25.25,0,0,0,.07.5h0a10.47,10.47,0,0,0,9.63-5.57,17.41,17.41,0,0,1-.64,7.76.25.25,0,0,0,.44.23c7.36-9.39,3.84-25.62-2-32.36,5.53,4,10.42,12.63,10.34,24.39a.25.25,0,1,0,.49.1c4.11-10.25,1.93-29.25-9.28-39.85a20.1,20.1,0,0,1,9.12.69.26.26,0,0,0,.31-.19.26.26,0,0,0-.07-.25c-4.09-3.46-9.81-4.54-15.27-4.54,4.7,5.5,3.14,16.55-4.35,16.55-5.35,0-7.78-8.3-3.65-12.78a.27.27,0,0,0-.07-.37.27.27,0,0,0-.23,0c-4.78,1.66-9.95,5.79-9.95,11,0,5,4.81,9.39,11.8,9.05C124.11,3.77,114.88,1,110.05-5a.24.24,0,0,0-.34,0,.24.24,0,0,0,0,.23C112.46,6,121.67,10.48,133.1,9c-9.28,3.76-23.25.48-29.42-7.31a.25.25,0,0,0-.45.21c1.37,6.61,4.87,11.55,10.63,13.51Z"/>
      <path class="b" d="M-20.86,34.64a.25.25,0,0,1,.25-.21c12.91-.13,24.75-3.27,34-11.51-8,5.56-22.94,7.51-31.53,3.62a.25.25,0,0,1-.14-.29.25.25,0,0,1,.25-.2c10.68.29,19.28-3,26-9C1,16.67-4.65,12.35-4.63,7.25A.25.25,0,0,1-4.44,7h0a.25.25,0,0,1,.28.14C-3,9.64.6,11,4.43,10.07c4.18-1,7-4.19,6.3-7.16-.47-2-2.44-3.4-5-3.79a.26.26,0,0,1-.2-.31.26.26,0,0,1,.2-.2A17.43,17.43,0,0,1,9-1.39c6.49.62,11.51,4.6,12,9.18C25.76,7.25,29.94,4.64,31.43,1a.25.25,0,0,1,.49.08c.38,4.75-1.26,7.84-5,10.85a21.81,21.81,0,0,1,17.25.54.25.25,0,0,1-.1.48A16.25,16.25,0,0,0,32.38,18c18.25-5.13,33.09,6.2,28,23a.25.25,0,0,1-.49,0c-1-9.66-7.76-16.07-17.9-17A17.46,17.46,0,0,1,53.54,39.51a.25.25,0,0,1-.48.12A16.75,16.75,0,0,0,38.9,29.82c6.33,2.58,10.4,8.6,11.57,16.42a.25.25,0,1,1-.48.15c-3.87-7.58-12.16-12.75-22.45-8.81-10.62,4.11-15.27,16.39-16.3,25a.26.26,0,0,1-.24.22.25.25,0,0,1-.26-.2C7,47,14.32,30.7,27.38,23.81c-7.1,2-13.44,6.26-17,13.35-8.29,1-14,3.86-16.86,9.24a.25.25,0,0,1-.3.12A.25.25,0,0,1-7,46.26c.2-2.11,1-6.33,4.09-8.26-7,0-12.51-.89-17.8-3a.26.26,0,0,1-.16-.33ZM8.62,88.17a.25.25,0,0,0-.36.34c1.62,2.8.14,6.81-3.05,6.81-5.72,0-8.47-10.77-7.6-20.59,2.16,5.76,4,8,7.35,10.79a.25.25,0,0,0,.39-.31A46.55,46.55,0,0,1-.55,61.12c1.46,6,3.2,9.32,8.13,14.38A.25.25,0,0,0,8,75.22H8A44.25,44.25,0,0,1,7,41a.25.25,0,0,0-.35-.32C1.49,43.18-1.57,44.86-6.06,51c1.36,7.4.23,11-3.17,17.2,3.94-9.92,1.84-23.89-8.19-29.56a.25.25,0,0,0-.32.06.25.25,0,0,0,0,.33A17.91,17.91,0,0,1-13.58,57c1.58-10.42-7.6-19.15-17.78-19.15-9.6,0-16.15,7.51-15.61,14.94s5.44,11,9.67,12.5a.26.26,0,0,0,.3-.1.26.26,0,0,0,0-.32c-5.61-5.69-6.38-16.49,3.58-19.76-5.86,5.06-3.69,16.83,5.69,17.72a.25.25,0,0,0,.26-.17.25.25,0,0,0-.1-.3,8,8,0,0,1-3.68-6.57c0-4.67,3.42-6.51,5.68-6.51,3.42,0,6.26,3.26,6.26,8.18,0,5.84-5.26,10.68-12,11.44s-12.78-2.15-15.75-6.46a.25.25,0,0,0-.31-.09.25.25,0,0,0-.14.29A17.14,17.14,0,0,0-26.69,75a17.14,17.14,0,0,0,6.07-2.9c-6.61,7.5-17,7.61-25.72-.09a.25.25,0,0,0-.32,0,.25.25,0,0,0-.07.31c2.67,5.41,9.25,11.82,18.61,10.88,8.56-.86,13.52-9,14.52-15.69C-13,76-15,82.06-22.35,87.64a.26.26,0,0,0-.07.32.26.26,0,0,0,.3.13c6.79-2,12.23-5.43,15-12.54,0,6.16-2.14,12.37-7.53,16.51a.25.25,0,0,0-.07.31.25.25,0,0,0,.3.13c3.45-1,6.17-2.49,8.14-5.19C-5,98.46.22,105.06,6.23,105.06c4.13,0,7.21-3,7.21-7.87A11.37,11.37,0,0,0,8.62,88.17ZM107.85-3.45c-3.16-3.9-9.54-5.39-16.43-4a22.7,22.7,0,0,0-1.61-11.48.25.25,0,0,0-.33-.14.25.25,0,0,0-.15.26C89.7-10,84.7-3,75.87.1,82.78-4.65,84.8-14.09,81.51-19a.25.25,0,0,0-.34-.1.25.25,0,0,0-.12.29c.37,2.06-.61,4.68-2.71,6.73-2.91,2.81-6.85,3.45-8.81,1.43s-1.2-5.95,1.71-8.76a9.68,9.68,0,0,1,3.45-2.18.25.25,0,0,0,.17-.31.25.25,0,0,0-.23-.18c-6.39-.55-10.77,3.25-13.52,7.88S53.53-5.77,47.89-6.51a.26.26,0,0,0-.27.17.25.25,0,0,0,.11.3,11,11,0,0,0,9.86,1C51.8-.12,43.59,2.71,35.75.2a.25.25,0,0,0-.27.41C41.4,7.17,53.18,7.3,60.6,2c-3,4.32-7.07,7.48-14.29,8.48a.25.25,0,0,0,0,.49c8.29,3.08,16.6,0,23.45-8.21A26.34,26.34,0,0,1,55,16.72a.25.25,0,0,0,.08.49c3.94.08,7.49-.86,12.27-3.57C63.82,19.36,64.58,29.31,69.69,36a.25.25,0,0,0,.45-.2c-1.18-7.2,1.3-15.33,5.61-19.64a18.18,18.18,0,0,0,5.9,19.64.25.25,0,0,0,.26,0,.26.26,0,0,0,.09-.12c1.23-9.42,11.77-19,20.6-19.78a.25.25,0,0,0,0-.5,20.83,20.83,0,0,0-12.39,1,21.79,21.79,0,0,1,9.55-6.25.25.25,0,0,0-.06-.5A20.42,20.42,0,0,0,87,13.17,31.44,31.44,0,0,1,106.46-.36a.26.26,0,0,0,.2-.26.25.25,0,0,0-.23-.24C94.51-2.16,84.68,2.46,78.21,11.06c1.65-4.9,6.37-9.76,12.95-12.62C97-4.11,103-4.51,107.58-3.07a.25.25,0,0,0,.29-.1A.26.26,0,0,0,107.85-3.45ZM54.94,72.12c4.81-10.49,4.46-18.69.59-29a.25.25,0,0,0-.49.1h0c.62,12.62-2.83,21.65-10.3,27.81C53,61.12,49.1,41.41,35.92,41.41c-9.59,0-17.52,8-19.46,17.52a.25.25,0,1,0,.47.18h0c2.84-4.76,7.41-7.85,12.46-7.85,8.13,0,10.54,6.47,10.54,11,0,6.19-4.93,11.38-8.71,11.38a4.94,4.94,0,0,1-5-4.88h0v-.12a8.87,8.87,0,0,1,6.38-8.16.25.25,0,1,0-.07-.5,10.47,10.47,0,0,0-9.63,5.57,17.39,17.39,0,0,1,.64-7.72.26.26,0,0,0-.13-.3.25.25,0,0,0-.32.07C15.71,67,19.23,83.26,25,90c-5.49-4-10.38-12.64-10.3-24.4a.25.25,0,0,0-.49-.1h0c-4.11,10.25-1.93,29.25,9.28,39.85a20.13,20.13,0,0,1-9.13-.71.25.25,0,1,0-.24.44c4.09,3.48,9.81,4.56,15.27,4.56-4.7-5.5-3.14-16.55,4.36-16.55,5.35,0,7.78,8.3,3.65,12.78a.25.25,0,0,0,.27.41c4.78-1.65,10-5.79,10-11,0-5-4.81-9.39-11.8-9.05,8.82-2.51,18,.27,22.88,6.25a.25.25,0,0,0,.31.07.26.26,0,0,0,.13-.29c-2.8-10.74-12-15.26-23.44-13.73C45,74.77,59,78,65.12,85.84a.25.25,0,0,0,.45-.21C64.2,79,60.7,74.07,54.94,72.12Z"/>
      <path class="c" d="M81.33,52.83a.25.25,0,0,1-.25.21c-12.91.14-24.75,3.27-34,11.52C55.08,59,70,57,78.61,60.94a.26.26,0,0,1-.11.49c-10.68-.29-19.28,3-26,9,6.87.42,12.57,4.74,12.56,9.85a.25.25,0,0,1-.48.1c-1.12-2.49-4.75-3.74-8.58-2.88-4.18,1-7,4.19-6.3,7.17.47,2,2.44,3.4,5,3.79a.25.25,0,1,1,0,.5,17.42,17.42,0,0,1-3.32,0c-6.49-.62-11.51-4.59-12-9.18-4.71.55-8.88,3.16-10.38,6.77a.25.25,0,0,1-.49-.08c-.38-4.75,1.26-7.84,5-10.85A21.82,21.82,0,0,1,16.2,75a.26.26,0,0,1-.14-.28.25.25,0,0,1,.24-.2A16.26,16.26,0,0,0,28,69.45C9.82,74.64-5,63.28.12,46.43a.25.25,0,0,1,.49,0c.92,9.71,7.7,16.12,17.86,17.08A17.46,17.46,0,0,1,6.92,48a.25.25,0,0,1,.48-.12,16.75,16.75,0,0,0,14.16,9.81c-6.33-2.58-10.4-8.6-11.57-16.42a.25.25,0,1,1,.48-.15c3.87,7.58,12.16,12.79,22.45,8.81,10.62-4.11,15.27-16.38,16.3-25a.25.25,0,1,1,.5,0c3.72,15.69-3.58,32-16.64,38.84,7.1-2,13.44-6.26,17-13.35,8.29-1,14-3.86,16.86-9.24a.25.25,0,0,1,.48.14h0c-.18,2.11-.94,6.33-4.07,8.27,7,0,12.51.89,17.8,3A.25.25,0,0,1,81.33,52.83ZM51.84-.64a.26.26,0,0,0,.32,0,.25.25,0,0,0,0-.31c-1.62-2.8-.14-6.81,3-6.81C61-7.76,63.67,3,62.8,12.8,60.64,7,58.8,4.75,55.45,2a.25.25,0,0,0-.38.32A46.55,46.55,0,0,1,61,26.41c-1.46-6-3.2-9.32-8.13-14.38a.25.25,0,0,0-.41.28,44.25,44.25,0,0,1,1,34.26.25.25,0,0,0,.35.32C59,44.35,62,42.64,66.52,36.51c-1.36-7.4-.23-11,3.17-17.19-3.94,9.92-1.84,23.89,8.19,29.59a.25.25,0,0,0,.31-.4A17.9,17.9,0,0,1,74,30.58C72.5,41,81.63,49.64,91.81,49.64c9.6,0,16.15-7.51,15.61-14.94s-5.44-11-9.67-12.5a.25.25,0,0,0-.27.42c5.61,5.69,6.38,16.49-3.58,19.76,5.86-5.06,3.69-16.83-5.69-17.72a.25.25,0,0,0-.16.46,8,8,0,0,1,3.68,6.57c0,4.67-3.42,6.51-5.68,6.51-3.42,0-6.26-3.26-6.26-8.18,0-5.84,5.26-10.68,12-11.43s12.78,2.15,15.75,6.46a.25.25,0,0,0,.45-.21A17.14,17.14,0,0,0,81.1,15.38c6.61-7.5,17-7.61,25.72.09a.25.25,0,0,0,.39-.3C104.58,9.77,98,3.35,88.64,4.29c-8.56.86-13.52,9-14.52,15.69-.56-8.52,1.39-14.54,8.75-20.14a.26.26,0,0,0,0-.37.26.26,0,0,0-.26-.08c-6.79,2-12.23,5.42-15,12.54,0-6.16,2.14-12.37,7.53-16.51a.25.25,0,0,0,.06-.35A.25.25,0,0,0,74.9-5h0C71.45-4,68.73-2.53,66.76.16c-1.31-11.1-6.52-17.69-12.53-17.69-4.12,0-7.21,3-7.21,7.87A11.37,11.37,0,0,0,51.84-.64ZM-47.39,91c3.16,3.9,9.54,5.39,16.43,4a22.71,22.71,0,0,0,1.61,11.49.26.26,0,0,0,.29.15.26.26,0,0,0,.19-.26c-.37-8.77,4.62-15.84,13.45-18.91-6.91,4.75-8.93,14.17-5.64,19.05a.26.26,0,0,0,.31.12.25.25,0,0,0,.15-.28c-.4-2.09.6-4.72,2.71-6.72C-15,96.76-11,96.12-9.06,98.15s1.2,5.95-1.71,8.76a9.67,9.67,0,0,1-3.45,2.19.25.25,0,0,0-.17.27.25.25,0,0,0,.23.27h0c6.39.5,10.77-3.3,13.52-7.93S6.93,93.3,12.57,94a.25.25,0,0,0,.16-.47,11,11,0,0,0-9.86-1c5.79-4.91,14-7.74,21.84-5.23a.25.25,0,0,0,.27-.41C19.07,80.31,7.29,80.18-.13,85.5c3-4.31,7.06-7.5,14.29-8.5a.25.25,0,0,0,.05-.49c-8.29-3.08-16.6,0-23.45,8.22a26.34,26.34,0,0,1,14.77-14,.25.25,0,0,0-.08-.49C1.51,70.16-2,71.1-6.82,73.81c3.51-5.69,2.74-15.64-2.37-22.26a.26.26,0,0,0-.3-.08.26.26,0,0,0-.15.28c1.18,7.2-1.3,15.33-5.61,19.64a18.17,18.17,0,0,0-5.9-19.64.25.25,0,0,0-.26,0,.26.26,0,0,0-.16.2c-1.23,9.42-11.77,19-20.6,19.78a.25.25,0,0,0-.23.24.25.25,0,0,0,.2.26,20.84,20.84,0,0,0,12.39-1,21.81,21.81,0,0,1-9.55,6.24.25.25,0,0,0-.18.27.25.25,0,0,0,.23.22,20.42,20.42,0,0,0,12.73-3.54A31.45,31.45,0,0,1-46,87.87a.26.26,0,0,0-.2.26.25.25,0,0,0,.23.24c12,1.3,21.75-3.37,28.22-11.92-1.65,4.9-6.37,9.76-13,12.62-5.85,2.54-11.85,3-16.42,1.51a.25.25,0,0,0-.29.1A.25.25,0,0,0-47.39,91ZM5.52,15.41C.71,25.89,1,34.09,4.92,44.46a.25.25,0,0,0,.49-.1h0C4.8,31.74,8.24,22.71,15.72,16.55c-8.25,9.85-4.35,29.56,8.82,29.56,9.59,0,17.52-8,19.46-17.53a.25.25,0,0,0-.47-.18h0c-2.84,4.76-7.41,7.85-12.46,7.85-8.13,0-10.54-6.47-10.54-11,0-6.19,4.93-11.34,8.71-11.34a4.94,4.94,0,0,1,5,4.88h0v0A8.88,8.88,0,0,1,27.9,27a.25.25,0,1,0,.07.5,10.47,10.47,0,0,0,9.63-5.57,17.41,17.41,0,0,1-.6,7.71.25.25,0,0,0,.44.23c7.36-9.39,3.84-25.62-2-32.36C41,1.51,45.86,10.14,45.78,21.9a.25.25,0,0,0,.49.1C50.36,11.75,48.18-7.24,37-17.85a20.1,20.1,0,0,1,9.13.69.26.26,0,0,0,.31-.19.26.26,0,0,0-.07-.25c-4.09-3.46-9.81-4.54-15.27-4.54,4.7,5.5,3.14,16.55-4.35,16.55-5.35,0-7.78-8.3-3.65-12.78a.27.27,0,0,0-.07-.37.27.27,0,0,0-.23,0c-4.8,1.66-9.95,5.76-9.95,11,0,5,4.81,9.39,11.8,9.05C15.83,3.78,6.6,1,1.77-5A.25.25,0,0,0,1.42-5a.25.25,0,0,0-.09.3C4.12,6,13.33,10.45,24.77,9c-9.28,3.76-23.25.48-29.42-7.31a.25.25,0,0,0-.35,0h0a.25.25,0,0,0-.14.28C-3.73,8.51-.24,13.45,5.52,15.41Z"/>
    </pattern>
  </defs>
  <title>f-mutsumi</title>
  <path class="d" d="M60.55,295.08H57.1a3.3,3.3,0,0,0-.48-.39A11.39,11.39,0,0,1,53,291.61a40.26,40.26,0,0,1-5.3-9.88c-1.46-3.7-2.72-7.48-4-11.24-.71-2.08-1.24-4.22-1.92-6.3s-1.12-4.17-2.42-5.94c-.26-.35-.77-.78-1.12-.74s-.75.57-.93,1a15.38,15.38,0,0,0-1,6,94.84,94.84,0,0,1-.48,10,14,14,0,0,1-1.67,5.37,4.24,4.24,0,0,1-3.7,2.29,3.92,3.92,0,0,1-3.42-2A54.92,54.92,0,0,1,23,273.48c-2.29-4.63-4.44-9.33-6.51-14.07a50.5,50.5,0,0,1-2.56-7.24,35.49,35.49,0,0,1-.85-6c-.23-2.66-.33-5.34-.47-8q-.17-3.19-.3-6.39c-.11-2.53-.2-5.06-.3-7.59,0-1.34-.11-2.68-.15-4-.06-1.89-.14-3.78-.14-5.67,0-2.11.08-4.23.15-6.34a4.37,4.37,0,0,1,.22-.89,7.37,7.37,0,0,1,.94.31c.92.44,1.8,1,2.74,1.36s1.43.06,1.49-.84c.17-2.37.41-4.74.43-7.11,0-3.94-.07-7.88-.13-11.82,0-2.44-.09-4.88-.15-7.32q-.06-2.61-.15-5.22-.14-4.25-.3-8.49c-.09-2.26-.21-4.51-.3-6.77q-.16-4.13-.3-8.27-.09-2.65-.15-5.3c-.06-2.27-.13-4.53-.14-6.8V129.46c0-2.74-.09-5.48-.15-8.22,0-2-.1-4.08-.15-6.12s-.1-3.78-.15-5.67q-.07-2.31-.15-4.62-.14-3.87-.3-7.74c-.12-2.28-.12-4.56-.32-6.84-.14-2-.32-4.08-.61-6.1a10,10,0,0,0-1.91-4.87C9.75,76,7.14,73,4.6,69.88a11.14,11.14,0,0,1-2.71-5.1,30,30,0,0,1-.56-4.07A5.52,5.52,0,0,1,2,57.22a1.44,1.44,0,0,0,.08-1.11c-.34-1-.75-2-1.18-3S.12,51,1,49.95a2.51,2.51,0,0,0,.45-1.29,15.82,15.82,0,0,0,0-2.26,11.69,11.69,0,0,1,.74-4.86,3.35,3.35,0,0,0-.21-3,29.62,29.62,0,0,0-1.7-2.66c-.45-.63-.36-.91.24-1.42,1.68-1.46,3.23-3,4.87-4.58C6,29.36,6.5,28.81,7.1,28.33c2.18-1.76,4.3-3.6,6.59-5.21,2.78-2,5.6-3.88,9.1-4.41a5.29,5.29,0,0,1,4.87,1.43c1.12,1.15,2.09,2.44,3.2,3.6a4.15,4.15,0,0,0,3.42,1.44,13.29,13.29,0,0,0,4.84-1.6c2.69-1.36,5.35-2.79,8-4.23a14.23,14.23,0,0,0,5.32-5.21,30.31,30.31,0,0,1,4.36-6c.45-.44.89-.55,1.36-.11a42.19,42.19,0,0,1,3.59,3.55q3,3.55,5.69,7.33a61.24,61.24,0,0,1,7.2,12.51,13.18,13.18,0,0,1,1,7.12,24.49,24.49,0,0,1-2.52,6.93c-1.38,2.78-2.84,5.53-4.19,8.33A7.58,7.58,0,0,0,68,57.55,1.41,1.41,0,0,0,69.34,59h.12a9,9,0,0,0,3.87-1,47.33,47.33,0,0,0,10.42-6.5,1,1,0,0,0,.29-.7c0-4.64,0-9.28-.18-13.92a12.85,12.85,0,0,0-.94-4.12c-.76-2-1.78-3.82-2.67-5.73A14.52,14.52,0,0,1,78.8,21V17.57a13,13,0,0,1,1.11-4.77,23.92,23.92,0,0,1,4.6-6.54c1.82-2,3.76-3.86,5.61-5.81A1.36,1.36,0,0,1,91.39,0c.9.1,1.81.21,2.71.29,1.33.12,2.66.17,4,.32,1.8.21,3.61.42,5.39.76a14.57,14.57,0,0,1,3.61,1.1,17.2,17.2,0,0,1,5.28,4.38,33,33,0,0,1,6.11,9.73,7.12,7.12,0,0,1,.66,4.27c-.48,2-1.23,3.9-1.9,5.83a11.25,11.25,0,0,0-.9,4.37c.06,1,.61,1.77,1.32,1.63a12.86,12.86,0,0,0,3.14-.91,13.66,13.66,0,0,0,2.67-1.92c1.43-1.22,2.81-2.49,4.32-3.85,1.84,1.32,3.69,2.6,5.49,4A16.13,16.13,0,0,1,138,36.47a33.71,33.71,0,0,0,1.86,3.41,1.23,1.23,0,0,0,2.27-.25,1.53,1.53,0,0,1,.35-.64c.83-1,1.64-1.93,2.52-2.82,1.36-1.37,2.86-2.62,4.14-4.06a3.24,3.24,0,0,1,3.14-1.18,8.65,8.65,0,0,0,.95.14c1.79.06,3.58.17,5.37.14,2.88,0,5.76-.15,8.64-.3,1.47-.08,1.81-.83,1.07-2.15a2.12,2.12,0,0,0-.39-.53,10.49,10.49,0,0,0-4.9-2.39c-2.47-.57-5-1-7.47-1.54-2-.48-3.92-1.37-4.65-3.53a38.61,38.61,0,0,1-1.19-4.9,27.08,27.08,0,0,1-.44-3.58c-.08-1.28-.22-1.46.94-2.18a15.76,15.76,0,0,1,2.24-1.23c3.06-1.28,6.13-2.56,9.23-3.74a19.27,19.27,0,0,1,7.61-1.49c1.91.08,3.83.33,5.73.59,2.21.3,4.43.58,6.6,1.07A11.68,11.68,0,0,1,188.87,10a28.77,28.77,0,0,0,2.27,3c.66.72,1.39,1.56,2.56,1.39,1.57-.24,3.14-.52,4.7-.81s3.31-.65,5-1c2.76-.54,5.52-1,8.28-1.6,2.18-.44,4.36-.88,6.52-1.41,2.89-.71,5.77-1.44,8.63-2.28A4.22,4.22,0,0,0,229.65,5a.94.94,0,0,1,.67-.47,12.29,12.29,0,0,1,2.69,0c2.68.44,5.36.9,8,1.49a35.24,35.24,0,0,1,9.8,3.4c2.47,1.39,4.92,2.84,7.25,4.45A15.3,15.3,0,0,1,263,18.75a3.49,3.49,0,0,1,0,4,7.21,7.21,0,0,1-3.75,2.36,29.2,29.2,0,0,1-8.7,1,14.23,14.23,0,0,0-5,1,7.86,7.86,0,0,0-2.22,1.44.71.71,0,0,0,.4,1.18,34.23,34.23,0,0,0,4.05.1c2.21-.12,4.42-.36,6.63-.57,1.35-.13,2.69-.33,4-.42a2.69,2.69,0,0,1,2.31.48,36,36,0,0,0,2.85,2.2A60.08,60.08,0,0,1,272,38.83a5.6,5.6,0,0,1,1.79,4.43,6.48,6.48,0,0,1-.91,2.58,30,30,0,0,1-3,3.76A3.87,3.87,0,0,1,267,50.76h-8.45a5.81,5.81,0,0,0,.44.81c.43.51.88,1,1.34,1.5,1.93,2,3.9,4,5.8,6.12a21,21,0,0,1,4.07,6.1,9.49,9.49,0,0,1,.87,3.89c-.1,2.22-1.6,3.69-3.5,4.67a10.85,10.85,0,0,1-7.5.54c-2.5-.55-4.88-1.2-7.33-1.75-.48-.11-1.34-.09-1.46.15-.29.59.4.93.83,1.21,1.88,1.27,3.8,2.5,5.69,3.76,4.9,3.26,9.8,6.51,13.74,11a16.74,16.74,0,0,1,3.76,6.83,4.19,4.19,0,0,1-2.41,5.18,17.59,17.59,0,0,1-5.19,1.47,14.52,14.52,0,0,0-4.23,1.13,2.13,2.13,0,0,0-.82,3.18c.86,1.22,1.81,2.38,2.77,3.53a14.83,14.83,0,0,1,2.59,4,15.7,15.7,0,0,1,.72,6.43,5.52,5.52,0,0,1-.45,2,16,16,0,0,1-5.94,6.7c-3.09,2.12-6.55,2.4-10.17,1.6a44.8,44.8,0,0,1-9.1-3.44c-1.91-.89-3.81-1.79-5.75-2.6a17.68,17.68,0,0,0-7.93-1,14.19,14.19,0,0,0-2.67.46c-.33.08-.58.44-.87.67a6.45,6.45,0,0,0,.78.89,26.7,26.7,0,0,1,2.17,1.63,27,27,0,0,1,2.06,2.33,21.4,21.4,0,0,1,3.58,5.37c.87,2.07.57,3.89-1.72,4.85-.74.31-1.49.62-2.21,1a1.65,1.65,0,0,0-1.06,1.7c.08,1.11.14,2.23.15,3.34,0,.66.22.89.91.89h13.35c3.93,0,7.86-.17,11.79-.3a3.82,3.82,0,0,0,3.3-1.76,13.67,13.67,0,0,1,1.38-1.58c.86.47,1.69.9,2.49,1.37,2.3,1.35,4.64,2.64,6.86,4.11a20.48,20.48,0,0,1,4.77,4.5,25,25,0,0,1,3.21,5.59,9.66,9.66,0,0,1,.73,6.3,12.15,12.15,0,0,1-6.5,8.47,13.8,13.8,0,0,1-9.71,1c-1.51-.36-2.93-1.07-4.41-1.54a40.4,40.4,0,0,0-13-1.8,6.5,6.5,0,0,0-1.65.32c-.46.13-.71.46-.39.94a10.06,10.06,0,0,0,1.21,1.66c1.45,1.43,2.92,2.84,4.46,4.17,1.83,1.57,3.68,3.13,5.62,4.55,2.61,1.9,5.27,3.75,8,5.48s5.53,3.34,8.34,4.92a10,10,0,0,0,5,1.21h3.26c.23,1.59.46,3.1.65,4.6q.34,2.63.61,5.28c.21,2,.47,4.07.57,6.11.07,1.46-.06,2.93-.13,4.39a13.71,13.71,0,0,1-2.16,6.85c-.52.81-.93,1.74-2,2.13a1.06,1.06,0,0,0-.16,1.88,6.5,6.5,0,0,0,1.92.84c2.25.63,4.54,1.16,6.78,1.83a9.82,9.82,0,0,1,4.31,2.45c1.27,1.3,1,1.79-.09,2.67a2.09,2.09,0,0,0-.7,2.22,5.3,5.3,0,0,0,1.39,2.62,1.88,1.88,0,0,1,.63,2c-.3.75-.63,1.48-.9,2.24a1.5,1.5,0,0,0,1.57,2,6.65,6.65,0,0,1-.36,3.6c-.52,1.34-1,2.72.37,3.92.08.07.08.28.07.42-.12,1.23.28,2.5-.45,3.71a3.67,3.67,0,0,0-.14,1.91,8.25,8.25,0,0,1-1.08,4.16,4.08,4.08,0,0,0-.1,4.08,1.82,1.82,0,0,1-.07,1.94,4.54,4.54,0,0,1-.84,1,4.77,4.77,0,0,0-1.42,5.09,4,4,0,0,1-1.2,4.28c-1.18,1.06-2.32,2.16-3.58,3.11a17.3,17.3,0,0,1-9.6,3.64,31,31,0,0,1-5.33-.28,30.42,30.42,0,0,1-9-2.71,14.23,14.23,0,0,0-7.79-1c-2.08.25-4.15.52-6.23.73-1.38.14-2.76.23-4.14.3l-8.76.45-6.62.3-8.34.3-4.47.15-5.07.15-5.52.15c-2.37.06-4.73.12-7.1.15-4.49.06-9,.13-13.47.14-2.67,0-5.33-.08-8-.14-1,0-1.93-.08-2.9-.15-2.54-.19-5.07-.38-7.61-.6-1.94-.17-3.88-.35-5.8-.61-2.11-.29-4.21-.65-6.31-1-3-.54-5.95-1-8.85-1.73-4-1-7.85-2.37-11.8-3.44a38,38,0,0,0-7-1.36,43.62,43.62,0,0,0-7.28.27c-2.39.22-4.76.64-7.14,1-2.85.47-5.7,1-8.53,1.51a6.31,6.31,0,0,0-5.33,4.74,32.42,32.42,0,0,1-1,3.27,10.86,10.86,0,0,1-3,4.51,4.13,4.13,0,0,1-2.81,1,6.76,6.76,0,0,1-4.54-2.31c-1.85-1.77-3.65-3.59-5.43-5.43-.77-.79-1.41-1.71-2.13-2.55s-1.5-1.81-2.34-2.62a1.14,1.14,0,0,0-2,.23c-.87,1.33-1.71,2.68-2.47,4.07-1.16,2.11-2.22,4.27-3.36,6.38A23.48,23.48,0,0,1,60.55,295.08ZM182.38,147.93v-.11l4-.34a2.65,2.65,0,0,0,2.57-2.26,22.74,22.74,0,0,0,.57-2.79,5.3,5.3,0,0,0-1-4.17,21.38,21.38,0,0,0-5-4.08c-1.24-.76-2.52-1.63-2.75-3.17a6.89,6.89,0,0,1,.62-4.47,1.75,1.75,0,0,0-.24-2.2,23,23,0,0,0-2.51-2.51,17.71,17.71,0,0,1-4.2-4.93,3.74,3.74,0,0,1-.33-3.52,3.37,3.37,0,0,0,.19-2.44,18.27,18.27,0,0,0-4.21-7,1,1,0,0,0-1.27-.29c-.87.37-1.78.67-2.66,1-1.69.71-3.35,1.5-5.06,2.15a31.09,31.09,0,0,1-8.37,1.49c-2.69.24-5.39.34-8.09.46-.55,0-.64.23-.67.72a33.25,33.25,0,0,1-.4,4,13.73,13.73,0,0,1-2.9,5.94c-.72.92-1.4,1.95-.92,3.25,1,2.59,1.91,5.17,2.88,7.75a36.18,36.18,0,0,1,2.08,8.3c.23,1.83.33,3.69.46,5.53.16,2.29.27,4.59.47,6.88.13,1.46.36,2.92.6,4.37.13.76.63,1,1.21.42a25.86,25.86,0,0,0,2.39-2.5,32.34,32.34,0,0,1,5-5.28,4.21,4.21,0,0,1,3.64-1.06,25.23,25.23,0,0,0,3.43.69c2.15.19,4.31.29,6.46.31,2.86,0,5.73-.09,8.6-.13C178.75,147.88,180.56,147.93,182.38,147.93Zm-60.53,55.54s-.08.07-.08.09c0,4.46.06,8.93.15,13.39a13.77,13.77,0,0,0,.46,2.82,1.2,1.2,0,0,0,.65.71,5.61,5.61,0,0,0,1.57.35c2.56.22,5.12.45,7.68.6s5.11.22,7.66.31l5,.15c1.89.05,3.78.11,5.67.15,3.46.06,6.93.15,10.39.14,4.46,0,8.93-.09,13.39-.14.79,0,1-.32.6-1a19,19,0,0,0-2.08-2.92c-1.84-2-3.8-3.89-5.65-5.87a1.55,1.55,0,0,0-1.78-.46c-2,.53-4.08,1-6.14,1.39s-4.18.58-6.25.93a15.31,15.31,0,0,1-5.67-.25,9.82,9.82,0,0,1-6.48-4.59,4.73,4.73,0,0,0-2.58-2.22c-.7-.2-1.47-.15-2.16-.38a23.86,23.86,0,0,1-4-1.57C128.91,203.27,125.39,203.33,121.85,203.47Zm59-31a4.17,4.17,0,0,0-.88-.35c-2.1-.27-4.19-.55-6.29-.76-1.55-.15-3.11-.17-4.66-.32-2.08-.21-4.15-.45-6.22-.75a57.88,57.88,0,0,1-10.24-2.46,17.93,17.93,0,0,1-6.16-3.18c-1.37-1.18-2.36-.49-3.07.42a22.78,22.78,0,0,0-3.33,5.86,7.62,7.62,0,0,0-.42,4.2c.42,2.16,2,3.55,3.47,4.93a6.19,6.19,0,0,1,2.28,4.72,12.4,12.4,0,0,0,.16,2.14,2.32,2.32,0,0,0,2,2.13,12.1,12.1,0,0,0,5.06-.26,53.78,53.78,0,0,0,13-5.16,65,65,0,0,0,9.19-5.75,36.24,36.24,0,0,0,6.06-5.43ZM117.18,71.88c-.08.82-.19,1.53-.22,2.24-.07,2-.13,3.93-.14,5.89a6.86,6.86,0,0,0,.29,1.8,1.89,1.89,0,0,0,1.74,1.64,19.76,19.76,0,0,0,2.41,0,17.8,17.8,0,0,0,5.82-1.64,16.48,16.48,0,0,0,4.87-3.39c.92-.9,1.84-1.16,2.56-.49,1.46,1.36,2.83,2.83,4.21,4.28a2.75,2.75,0,0,1,.57,1,1.89,1.89,0,0,0,1.54,1.3,8.19,8.19,0,0,0,7-1.7c1.5-1.14,3.07-2.22,4.47-3.48a34.53,34.53,0,0,0,3.38-3.65c.48-.58.3-1-.42-1.2a27.31,27.31,0,0,0-2.74-.77A55.58,55.58,0,0,1,142.36,71a14.77,14.77,0,0,1-3.25-2,2.51,2.51,0,0,0-1.44-.71,10.82,10.82,0,0,0-5.37,1.62,21.41,21.41,0,0,1-8.74,2C121.44,71.95,119.31,71.88,117.18,71.88Zm113.77,144h-.12c.14,2.23.21,4.46.46,6.67a5.47,5.47,0,0,0,.94,2.32,3.35,3.35,0,0,0,3,1.22c3,0,5.91-.11,8.86-.3q3.5-.22,7-.76a33.65,33.65,0,0,0,4.67-1.2,5,5,0,0,0,1.3-1,5.6,5.6,0,0,0-.93-1.05c-1.52-1-3.08-2-4.61-3l-10.65-7c-2.6-1.75-5.16-3.55-7.74-5.33-.91-.62-1.56-.4-1.7.66-.22,1.68-.36,3.38-.45,5.08C230.89,213.38,230.95,214.61,230.95,215.88ZM37.6,241.55h.15v7.61a1.24,1.24,0,0,0,1.71,1.33c.8-.21,1.59-.45,2.38-.71a13.4,13.4,0,0,0,7.49-6.43,28,28,0,0,0,3.26-11.71c.07-.86.16-1.73.16-2.59,0-2.15,0-4.31-.06-6.46,0-.81-.42-.94-1.07-.4-2.12,1.77-4.25,3.53-6.29,5.39s-3.76,3.64-5.64,5.46a17.14,17.14,0,0,1-1.6,1.45,1.36,1.36,0,0,0-.53,1.15C37.62,237.61,37.6,239.58,37.6,241.55Zm-3-93.72a4.21,4.21,0,0,0,1-.2,30.48,30.48,0,0,0,2.9-1.6c2.29-1.5,4.58-3,6.8-4.6a21.07,21.07,0,0,0,3-2.71c1.15-1.23,1.19-2.87,1.25-4.43.08-2.27,0-4.54,0-6.82a21.88,21.88,0,0,0-.3-2.93c-.13-.84-.49-1-1.26-.75a4.71,4.71,0,0,0-.87.38l-9.53,5.78a6.61,6.61,0,0,0-3.34,6.29c.07,2.45,0,4.89,0,7.34.08,1.38.22,2.76.32,4.28Zm14.26-71a7.64,7.64,0,0,0-1,.58c-1.51,1.23-3.11,2.42-4.47,3.74-2.76,2.73-5.39,5.55-8.09,8.37a4.84,4.84,0,0,0-1.57,3c-.09,2.12-.06,4.25,0,6.38a6.74,6.74,0,0,0,.48,2,1.11,1.11,0,0,0,1.8.62c.58-.36,1.18-.7,1.73-1.1l11.43-8.4a.88.88,0,0,0,.43-.83V86.37q-.1-3.9-.31-7.81A9.08,9.08,0,0,0,48.86,76.88Zm92.58-18.65a1.2,1.2,0,0,0,.42-.11c.53-.4,1-.83,1.56-1.24a7.67,7.67,0,0,1,5-2c1.94.06,3.88.15,5.82.14,3.56,0,7.12-.09,10.69-.14l8.66-.16h.08a8.51,8.51,0,0,0,.37-.77c.42-1.16.83-2.33,1.24-3.5.2-.58-.16-.76-.62-.79-2.15-.12-4.31-.23-6.46-.3s-4.18-.1-6.27-.16-4.08-.08-6.12-.16c-1.46-.06-2.91-.19-4.36-.29A21.63,21.63,0,0,1,144.81,47a14.94,14.94,0,0,0-3-.81c-.77-.13-1,.15-1,.89,0,1.59.06,3.18.15,4.77C141.08,54,141.28,56.09,141.44,58.23ZM224,77.61c.36,0,1-.14,1.69-.17l6.61-.31a19.08,19.08,0,0,0,2.14-.16c2.17-.24,4.35-.44,6.52-.76a25.91,25.91,0,0,0,4.13-.93A1.86,1.86,0,0,0,246.18,74c.07-.53-.64-.69-1.15-.79a4.35,4.35,0,0,0-.57-.14c-1.8-.11-3.61-.28-5.41-.29-2.61,0-5.23.08-7.84.13l-6.57.15-10.66.3c-1.21,0-2.43.06-3.64.15-2.38.18-4.77.34-7.15.61a7.69,7.69,0,0,0-4.79,2.64c-.3.32-.36.81.28.95a12.23,12.23,0,0,0,2.45.43c3.86,0,7.73-.07,11.59-.13,1,0,2-.11,3-.14Zm-154.71,8c.09.7.19,1.21.22,1.72.16,2.54.27,5.09.47,7.63.11,1.39.34,2.77.58,4.15.15.83.44,1,1.26.77a69.11,69.11,0,0,0,11.25-4.25A4.43,4.43,0,0,0,85.86,92c.2-1.77.23-3.56.32-5.34a3.23,3.23,0,0,0,0-.52c-1.65-.08-3.24-.18-4.82-.22-3-.07-5.93-.11-8.89-.16H72ZM35,188.46c.18,1.33.34,2.84.61,4.34a1.06,1.06,0,0,0,1.54.76,5.16,5.16,0,0,0,1.38-.66c1.35-1,2.68-2.09,4-3.2,2-1.74,4-3.49,5.9-5.32a5.38,5.38,0,0,0,1.83-3.19,33.34,33.34,0,0,0,.19-4.53A10.41,10.41,0,0,0,50,174a1,1,0,0,0-1.23-.7h0l-.19.07a17.39,17.39,0,0,0-3,1.41c-2.3,1.49-4.58,3-6.75,4.69a7.34,7.34,0,0,0-3.24,4.39C35.3,185.28,35.23,186.77,35,188.46Zm167.4,90.19c1.14-.08,2.17-.18,3.21-.21,2.44-.07,4.88-.11,7.32-.16l7.69-.15,8.52-.15c1.32,0,2.63-.1,3.95-.15,2.83-.1,5.66-.19,8.49-.31q2.41-.1,4.81-.31a2.25,2.25,0,0,0,2.09-1.61c.39-1.23.24-2.22-1.28-2.4a10,10,0,0,0-3.36,0,49,49,0,0,1-7.21.68c-2.45.2-4.91.23-7.36.32l-4.77.15c-1.79,0-3.58.12-5.37.15l-10.84.16c-1.39,0-2.78.08-4.17.15-1.1.06-1.68.49-1.71,1.26s0,1.61,0,2.58ZM216.7,54.42l4.52-.24,8.38-.45,5.94-.3c.74,0,1.48-.09,2.22-.15,2.14-.19,4.27-.36,6.4-.6q2.78-.31,5.54-.77a2.82,2.82,0,0,0,1.24-.57c.47-.37.39-.92-.17-1.08a12.52,12.52,0,0,0-2.86-.55c-2.69-.12-5.38-.12-8.07-.17l-6.57-.15c-1.64,0-3.28-.09-4.92-.15-2.43-.09-4.86-.21-7.29-.29-2.21-.07-4.43-.13-6.64-.14-1.36,0-2.73.09-4.09.14a1.22,1.22,0,0,0-1.26,1.16,6,6,0,0,0,.11.79A2.84,2.84,0,0,0,211.7,54h.21c1.7.24,3.46.28,4.84.39ZM73,178.51a6.15,6.15,0,0,0,.78,0c1.26-.19,2.54-.31,3.77-.6,2-.46,4-1,5.93-1.59a2,2,0,0,0,1-1.09,5.49,5.49,0,0,0,.33-1.94v-9a12.73,12.73,0,0,0-.4-2.76c-.25-1-.83-1.16-1.6-.4a15.49,15.49,0,0,1-1.75,1.75c-2.49,1.73-5,3.38-7.56,5.06a1,1,0,0,0-.51.95v9.62ZM75.09,224c2,.12,3.89.28,5.79.34,1.21,0,2.43-.06,3.64-.14,1-.07,1.54-.4,1.64-1.15a17.15,17.15,0,0,0,.17-2.74c0-1.21-.19-2.41-.28-3.61-.11-1.43-.19-2.86-.31-4.29-.07-.77-.2-1.53-.32-2.37-1.24.08-2.39.06-3.51.24a39.85,39.85,0,0,0-5.16,1.07,3,3,0,0,0-2.4,2.77,25,25,0,0,0,0,3.23c.21,2.23.49,4.46.74,6.66Zm49.6-98.68h.15c.07,1.29.13,2.58.22,3.87a1.08,1.08,0,0,0,1.08,1.08h.07a27.84,27.84,0,0,0,3.16-.31,7.32,7.32,0,0,0,4.91-3,15.33,15.33,0,0,0,2.15-5.19,5.83,5.83,0,0,0,.25-2.39,3.84,3.84,0,0,0-2.71-2.94,8.92,8.92,0,0,0-5.08-.44c-2,.44-3,.83-3.38,3.11-.36,2.11-.55,4.17-.82,6.22Zm81.7-24.12h1l6.78-.59c1.84-.16,3.69-.29,5.53-.46,2.73-.24,5.45-.51,8.18-.74a1.19,1.19,0,0,0,1.15-.77,6.27,6.27,0,0,0,.36-1.34c.17-1.27-.17-1.93-1.06-2.09a8.79,8.79,0,0,0-1.76-.16c-2.08.07-4.16.19-6.24.29l-3.94.15c-1,0-1.93.07-2.89.16-2.19.18-4.38.34-6.55.61a23.32,23.32,0,0,0-3.92.85,1.82,1.82,0,0,0-.28,3.33c1.11.79,2.41.65,3.64.77ZM94.46,134h1.47c1.17-.13,2.34-.28,3.51-.43,1.9-.25,3.8-.48,5.68-.78a1.28,1.28,0,0,0,1.2-1.08,26.12,26.12,0,0,0,.25-7.67,5.73,5.73,0,0,0-.41-1.62,1.59,1.59,0,0,0-1.91-1.19h0l-.2.06c-1.63.41-3.26.83-4.86,1.34A4.48,4.48,0,0,0,95.8,126C95.32,128.63,94.92,131.24,94.46,134Zm94,73.58h-.1v-.6a1.45,1.45,0,0,0-1.72-1.54,7.51,7.51,0,0,0-1.78.41c-2.58,1-5.15,2-7.73,2.93-1.23.45-2.53.75-3.75,1.24-.47.19-1.13.7-1.14,1.08s.56,1,1,1.22c3.22,1.86,6.62,3.12,10.43,2.55,1.81-.27,3.42-1.06,4-2.92a32.46,32.46,0,0,0,.78-4.37ZM71.2,139.75v4a3.52,3.52,0,0,0,.5,1.49c.3.53.69.38,1-.09a11.34,11.34,0,0,0,.63-1.16c.82-1.85,1.72-3.68,2.4-5.58,1-2.82,1.93-5.68,2.78-8.55.25-.85.21-1.19-.76-1.57-.59-.23-1.13-.61-1.74-.78-1.15-.33-2.32-.58-3.48-.83-.41-.09-.71,0-.74.56,0,.73-.23,1.45-.27,2.19-.12,2.45-.22,4.91-.3,7.36C71.17,137.75,71.2,138.75,71.2,139.75ZM149.14,196l.05.16c2.18-.51,4.41-.91,6.55-1.56a59.65,59.65,0,0,0,15.13-7.36,19.42,19.42,0,0,0,2.84-2.41,1.14,1.14,0,0,0,0-1.09,1.18,1.18,0,0,0-1-.32,11.26,11.26,0,0,0-2.26.83c-3.78,1.86-7.53,3.79-11.32,5.62a51.72,51.72,0,0,1-8.41,3,18.39,18.39,0,0,0-3.21,1.38,1.14,1.14,0,0,0-.48.91c0,.23.4.55.69.64A8,8,0,0,0,149.14,196Zm23.14-6.79-.07-.18a17.13,17.13,0,0,0-2,.8c-1.63.89-3.16,2-4.84,2.74q-4.22,2-8.57,3.62c-2.34.89-4.79,1.52-7.16,2.35a8.91,8.91,0,0,0-2.27,1.31c-.53.39-.36.91.29,1.05A6.29,6.29,0,0,0,149,201a22.22,22.22,0,0,0,6.87-1.43,79.84,79.84,0,0,0,11-4.56,30.92,30.92,0,0,0,6.22-3.85,2,2,0,0,0,.7-1.43c-.08-.59-.8-.61-1.37-.57Zm-52.45-32a3,3,0,0,0-.46.79,10.72,10.72,0,0,0-.31,2.1v7.12a6.68,6.68,0,0,0,.25,1.59,1.36,1.36,0,0,0,1.56,1c.87-.15,1.74-.25,2.6-.45,1.25-.29,2.47-.65,3.65-1,.07-2-5.37-10.27-7.29-11.12Zm81-128.73a15.78,15.78,0,0,0,2-.79c2.44-1.35,4.89-2.68,7.25-4.15a30.38,30.38,0,0,0,3.38-2.73c.16-.13.19-.42.28-.63a2,2,0,0,0-.64-.07c-1.5.34-3,.61-4.47,1.09-3,1-5.88,2.06-8.81,3.14a11.45,11.45,0,0,0-1.63.92,16.77,16.77,0,0,0,1.08,2.13c.4.52.75,1.17,1.6,1.12Zm-12.9,250.77c1.67-.13,3.28-.2,4.88-.4a7.48,7.48,0,0,0,2.2-.74,1.21,1.21,0,0,0,.6-.89.85.85,0,0,0-.77-.92c-1.26-.15-2.51-.48-3.77-.54-2-.09-4,0-6,0a7.36,7.36,0,0,0-1.73.29,1.85,1.85,0,0,0-1.16,1.9c.07.79.79.85,1.32.92,1.52.21,3,.29,4.47.42Z" transform="translate(0 0)"/>
  <path class="e" d="M60.55,295.08H57.1a3.3,3.3,0,0,0-.48-.39A11.39,11.39,0,0,1,53,291.61a40.26,40.26,0,0,1-5.3-9.88c-1.46-3.7-2.72-7.48-4-11.24-.71-2.08-1.24-4.22-1.92-6.3s-1.12-4.17-2.42-5.94c-.26-.35-.77-.78-1.12-.74s-.75.57-.93,1a15.38,15.38,0,0,0-1,6,94.84,94.84,0,0,1-.48,10,14,14,0,0,1-1.67,5.37,4.24,4.24,0,0,1-3.7,2.29,3.92,3.92,0,0,1-3.42-2A54.92,54.92,0,0,1,23,273.48c-2.29-4.63-4.44-9.33-6.51-14.07a50.5,50.5,0,0,1-2.56-7.24,35.49,35.49,0,0,1-.85-6c-.23-2.66-.33-5.34-.47-8q-.17-3.19-.3-6.39c-.11-2.53-.2-5.06-.3-7.59,0-1.34-.11-2.68-.15-4-.06-1.89-.14-3.78-.14-5.67,0-2.11.08-4.23.15-6.34a4.37,4.37,0,0,1,.22-.89,7.37,7.37,0,0,1,.94.31c.92.44,1.8,1,2.74,1.36s1.43.06,1.49-.84c.17-2.37.41-4.74.43-7.11,0-3.94-.07-7.88-.13-11.82,0-2.44-.09-4.88-.15-7.32q-.06-2.61-.15-5.22-.14-4.25-.3-8.49c-.09-2.26-.21-4.51-.3-6.77q-.16-4.13-.3-8.27-.09-2.65-.15-5.3c-.06-2.27-.13-4.53-.14-6.8V129.46c0-2.74-.09-5.48-.15-8.22,0-2-.1-4.08-.15-6.12s-.1-3.78-.15-5.67q-.07-2.31-.15-4.62-.14-3.87-.3-7.74c-.12-2.28-.12-4.56-.32-6.84-.14-2-.32-4.08-.61-6.1a10,10,0,0,0-1.91-4.87C9.75,76,7.14,73,4.6,69.88a11.14,11.14,0,0,1-2.71-5.1,30,30,0,0,1-.56-4.07A5.52,5.52,0,0,1,2,57.22a1.44,1.44,0,0,0,.08-1.11c-.34-1-.75-2-1.18-3S.12,51,1,49.95a2.51,2.51,0,0,0,.45-1.29,15.82,15.82,0,0,0,0-2.26,11.69,11.69,0,0,1,.74-4.86,3.35,3.35,0,0,0-.21-3,29.62,29.62,0,0,0-1.7-2.66c-.45-.63-.36-.91.24-1.42,1.68-1.46,3.23-3,4.87-4.58C6,29.36,6.5,28.81,7.1,28.33c2.18-1.76,4.3-3.6,6.59-5.21,2.78-2,5.6-3.88,9.1-4.41a5.29,5.29,0,0,1,4.87,1.43c1.12,1.15,2.09,2.44,3.2,3.6a4.15,4.15,0,0,0,3.42,1.44,13.29,13.29,0,0,0,4.84-1.6c2.69-1.36,5.35-2.79,8-4.23a14.23,14.23,0,0,0,5.32-5.21,30.31,30.31,0,0,1,4.36-6c.45-.44.89-.55,1.36-.11a42.19,42.19,0,0,1,3.59,3.55q3,3.55,5.69,7.33a61.24,61.24,0,0,1,7.2,12.51,13.18,13.18,0,0,1,1,7.12,24.49,24.49,0,0,1-2.52,6.93c-1.38,2.78-2.84,5.53-4.19,8.33A7.58,7.58,0,0,0,68,57.55,1.41,1.41,0,0,0,69.34,59h.12a9,9,0,0,0,3.87-1,47.33,47.33,0,0,0,10.42-6.5,1,1,0,0,0,.29-.7c0-4.64,0-9.28-.18-13.92a12.85,12.85,0,0,0-.94-4.12c-.76-2-1.78-3.82-2.67-5.73A14.52,14.52,0,0,1,78.8,21V17.57a13,13,0,0,1,1.11-4.77,23.92,23.92,0,0,1,4.6-6.54c1.82-2,3.76-3.86,5.61-5.81A1.36,1.36,0,0,1,91.39,0c.9.1,1.81.21,2.71.29,1.33.12,2.66.17,4,.32,1.8.21,3.61.42,5.39.76a14.57,14.57,0,0,1,3.61,1.1,17.2,17.2,0,0,1,5.28,4.38,33,33,0,0,1,6.11,9.73,7.12,7.12,0,0,1,.66,4.27c-.48,2-1.23,3.9-1.9,5.83a11.25,11.25,0,0,0-.9,4.37c.06,1,.61,1.77,1.32,1.63a12.86,12.86,0,0,0,3.14-.91,13.66,13.66,0,0,0,2.67-1.92c1.43-1.22,2.81-2.49,4.32-3.85,1.84,1.32,3.69,2.6,5.49,4A16.13,16.13,0,0,1,138,36.47a33.71,33.71,0,0,0,1.86,3.41,1.23,1.23,0,0,0,2.27-.25,1.53,1.53,0,0,1,.35-.64c.83-1,1.64-1.93,2.52-2.82,1.36-1.37,2.86-2.62,4.14-4.06a3.24,3.24,0,0,1,3.14-1.18,8.65,8.65,0,0,0,.95.14c1.79.06,3.58.17,5.37.14,2.88,0,5.76-.15,8.64-.3,1.47-.08,1.81-.83,1.07-2.15a2.12,2.12,0,0,0-.39-.53,10.49,10.49,0,0,0-4.9-2.39c-2.47-.57-5-1-7.47-1.54-2-.48-3.92-1.37-4.65-3.53a38.61,38.61,0,0,1-1.19-4.9,27.08,27.08,0,0,1-.44-3.58c-.08-1.28-.22-1.46.94-2.18a15.76,15.76,0,0,1,2.24-1.23c3.06-1.28,6.13-2.56,9.23-3.74a19.27,19.27,0,0,1,7.61-1.49c1.91.08,3.83.33,5.73.59,2.21.3,4.43.58,6.6,1.07A11.68,11.68,0,0,1,188.87,10a28.77,28.77,0,0,0,2.27,3c.66.72,1.39,1.56,2.56,1.39,1.57-.24,3.14-.52,4.7-.81s3.31-.65,5-1c2.76-.54,5.52-1,8.28-1.6,2.18-.44,4.36-.88,6.52-1.41,2.89-.71,5.77-1.44,8.63-2.28A4.22,4.22,0,0,0,229.65,5a.94.94,0,0,1,.67-.47,12.29,12.29,0,0,1,2.69,0c2.68.44,5.36.9,8,1.49a35.24,35.24,0,0,1,9.8,3.4c2.47,1.39,4.92,2.84,7.25,4.45A15.3,15.3,0,0,1,263,18.75a3.49,3.49,0,0,1,0,4,7.21,7.21,0,0,1-3.75,2.36,29.2,29.2,0,0,1-8.7,1,14.23,14.23,0,0,0-5,1,7.86,7.86,0,0,0-2.22,1.44.71.71,0,0,0,.4,1.18,34.23,34.23,0,0,0,4.05.1c2.21-.12,4.42-.36,6.63-.57,1.35-.13,2.69-.33,4-.42a2.69,2.69,0,0,1,2.31.48,36,36,0,0,0,2.85,2.2A60.08,60.08,0,0,1,272,38.83a5.6,5.6,0,0,1,1.79,4.43,6.48,6.48,0,0,1-.91,2.58,30,30,0,0,1-3,3.76A3.87,3.87,0,0,1,267,50.76h-8.45a5.81,5.81,0,0,0,.44.81c.43.51.88,1,1.34,1.5,1.93,2,3.9,4,5.8,6.12a21,21,0,0,1,4.07,6.1,9.49,9.49,0,0,1,.87,3.89c-.1,2.22-1.6,3.69-3.5,4.67a10.85,10.85,0,0,1-7.5.54c-2.5-.55-4.88-1.2-7.33-1.75-.48-.11-1.34-.09-1.46.15-.29.59.4.93.83,1.21,1.88,1.27,3.8,2.5,5.69,3.76,4.9,3.26,9.8,6.51,13.74,11a16.74,16.74,0,0,1,3.76,6.83,4.19,4.19,0,0,1-2.41,5.18,17.59,17.59,0,0,1-5.19,1.47,14.52,14.52,0,0,0-4.23,1.13,2.13,2.13,0,0,0-.82,3.18c.86,1.22,1.81,2.38,2.77,3.53a14.83,14.83,0,0,1,2.59,4,15.7,15.7,0,0,1,.72,6.43,5.52,5.52,0,0,1-.45,2,16,16,0,0,1-5.94,6.7c-3.09,2.12-6.55,2.4-10.17,1.6a44.8,44.8,0,0,1-9.1-3.44c-1.91-.89-3.81-1.79-5.75-2.6a17.68,17.68,0,0,0-7.93-1,14.19,14.19,0,0,0-2.67.46c-.33.08-.58.44-.87.67a6.45,6.45,0,0,0,.78.89,26.7,26.7,0,0,1,2.17,1.63,27,27,0,0,1,2.06,2.33,21.4,21.4,0,0,1,3.58,5.37c.87,2.07.57,3.89-1.72,4.85-.74.31-1.49.62-2.21,1a1.65,1.65,0,0,0-1.06,1.7c.08,1.11.14,2.23.15,3.34,0,.66.22.89.91.89h13.35c3.93,0,7.86-.17,11.79-.3a3.82,3.82,0,0,0,3.3-1.76,13.67,13.67,0,0,1,1.38-1.58c.86.47,1.69.9,2.49,1.37,2.3,1.35,4.64,2.64,6.86,4.11a20.48,20.48,0,0,1,4.77,4.5,25,25,0,0,1,3.21,5.59,9.66,9.66,0,0,1,.73,6.3,12.15,12.15,0,0,1-6.5,8.47,13.8,13.8,0,0,1-9.71,1c-1.51-.36-2.93-1.07-4.41-1.54a40.4,40.4,0,0,0-13-1.8,6.5,6.5,0,0,0-1.65.32c-.46.13-.71.46-.39.94a10.06,10.06,0,0,0,1.21,1.66c1.45,1.43,2.92,2.84,4.46,4.17,1.83,1.57,3.68,3.13,5.62,4.55,2.61,1.9,5.27,3.75,8,5.48s5.53,3.34,8.34,4.92a10,10,0,0,0,5,1.21h3.26c.23,1.59.46,3.1.65,4.6q.34,2.63.61,5.28c.21,2,.47,4.07.57,6.11.07,1.46-.06,2.93-.13,4.39a13.71,13.71,0,0,1-2.16,6.85c-.52.81-.93,1.74-2,2.13a1.06,1.06,0,0,0-.16,1.88,6.5,6.5,0,0,0,1.92.84c2.25.63,4.54,1.16,6.78,1.83a9.82,9.82,0,0,1,4.31,2.45c1.27,1.3,1,1.79-.09,2.67a2.09,2.09,0,0,0-.7,2.22,5.3,5.3,0,0,0,1.39,2.62,1.88,1.88,0,0,1,.63,2c-.3.75-.63,1.48-.9,2.24a1.5,1.5,0,0,0,1.57,2,6.65,6.65,0,0,1-.36,3.6c-.52,1.34-1,2.72.37,3.92.08.07.08.28.07.42-.12,1.23.28,2.5-.45,3.71a3.67,3.67,0,0,0-.14,1.91,8.25,8.25,0,0,1-1.08,4.16,4.08,4.08,0,0,0-.1,4.08,1.82,1.82,0,0,1-.07,1.94,4.54,4.54,0,0,1-.84,1,4.77,4.77,0,0,0-1.42,5.09,4,4,0,0,1-1.2,4.28c-1.18,1.06-2.32,2.16-3.58,3.11a17.3,17.3,0,0,1-9.6,3.64,31,31,0,0,1-5.33-.28,30.42,30.42,0,0,1-9-2.71,14.23,14.23,0,0,0-7.79-1c-2.08.25-4.15.52-6.23.73-1.38.14-2.76.23-4.14.3l-8.76.45-6.62.3-8.34.3-4.47.15-5.07.15-5.52.15c-2.37.06-4.73.12-7.1.15-4.49.06-9,.13-13.47.14-2.67,0-5.33-.08-8-.14-1,0-1.93-.08-2.9-.15-2.54-.19-5.07-.38-7.61-.6-1.94-.17-3.88-.35-5.8-.61-2.11-.29-4.21-.65-6.31-1-3-.54-5.95-1-8.85-1.73-4-1-7.85-2.37-11.8-3.44a38,38,0,0,0-7-1.36,43.62,43.62,0,0,0-7.28.27c-2.39.22-4.76.64-7.14,1-2.85.47-5.7,1-8.53,1.51a6.31,6.31,0,0,0-5.33,4.74,32.42,32.42,0,0,1-1,3.27,10.86,10.86,0,0,1-3,4.51,4.13,4.13,0,0,1-2.81,1,6.76,6.76,0,0,1-4.54-2.31c-1.85-1.77-3.65-3.59-5.43-5.43-.77-.79-1.41-1.71-2.13-2.55s-1.5-1.81-2.34-2.62a1.14,1.14,0,0,0-2,.23c-.87,1.33-1.71,2.68-2.47,4.07-1.16,2.11-2.22,4.27-3.36,6.38A23.48,23.48,0,0,1,60.55,295.08ZM182.38,147.93v-.11l4-.34a2.65,2.65,0,0,0,2.57-2.26,22.74,22.74,0,0,0,.57-2.79,5.3,5.3,0,0,0-1-4.17,21.38,21.38,0,0,0-5-4.08c-1.24-.76-2.52-1.63-2.75-3.17a6.89,6.89,0,0,1,.62-4.47,1.75,1.75,0,0,0-.24-2.2,23,23,0,0,0-2.51-2.51,17.71,17.71,0,0,1-4.2-4.93,3.74,3.74,0,0,1-.33-3.52,3.37,3.37,0,0,0,.19-2.44,18.27,18.27,0,0,0-4.21-7,1,1,0,0,0-1.27-.29c-.87.37-1.78.67-2.66,1-1.69.71-3.35,1.5-5.06,2.15a31.09,31.09,0,0,1-8.37,1.49c-2.69.24-5.39.34-8.09.46-.55,0-.64.23-.67.72a33.25,33.25,0,0,1-.4,4,13.73,13.73,0,0,1-2.9,5.94c-.72.92-1.4,1.95-.92,3.25,1,2.59,1.91,5.17,2.88,7.75a36.18,36.18,0,0,1,2.08,8.3c.23,1.83.33,3.69.46,5.53.16,2.29.27,4.59.47,6.88.13,1.46.36,2.92.6,4.37.13.76.63,1,1.21.42a25.86,25.86,0,0,0,2.39-2.5,32.34,32.34,0,0,1,5-5.28,4.21,4.21,0,0,1,3.64-1.06,25.23,25.23,0,0,0,3.43.69c2.15.19,4.31.29,6.46.31,2.86,0,5.73-.09,8.6-.13C178.75,147.88,180.56,147.93,182.38,147.93Zm-60.53,55.54s-.08.07-.08.09c0,4.46.06,8.93.15,13.39a13.77,13.77,0,0,0,.46,2.82,1.2,1.2,0,0,0,.65.71,5.61,5.61,0,0,0,1.57.35c2.56.22,5.12.45,7.68.6s5.11.22,7.66.31l5,.15c1.89.05,3.78.11,5.67.15,3.46.06,6.93.15,10.39.14,4.46,0,8.93-.09,13.39-.14.79,0,1-.32.6-1a19,19,0,0,0-2.08-2.92c-1.84-2-3.8-3.89-5.65-5.87a1.55,1.55,0,0,0-1.78-.46c-2,.53-4.08,1-6.14,1.39s-4.18.58-6.25.93a15.31,15.31,0,0,1-5.67-.25,9.82,9.82,0,0,1-6.48-4.59,4.73,4.73,0,0,0-2.58-2.22c-.7-.2-1.47-.15-2.16-.38a23.86,23.86,0,0,1-4-1.57C128.91,203.27,125.39,203.33,121.85,203.47Zm59-31a4.17,4.17,0,0,0-.88-.35c-2.1-.27-4.19-.55-6.29-.76-1.55-.15-3.11-.17-4.66-.32-2.08-.21-4.15-.45-6.22-.75a57.88,57.88,0,0,1-10.24-2.46,17.93,17.93,0,0,1-6.16-3.18c-1.37-1.18-2.36-.49-3.07.42a22.78,22.78,0,0,0-3.33,5.86,7.62,7.62,0,0,0-.42,4.2c.42,2.16,2,3.55,3.47,4.93a6.19,6.19,0,0,1,2.28,4.72,12.4,12.4,0,0,0,.16,2.14,2.32,2.32,0,0,0,2,2.13,12.1,12.1,0,0,0,5.06-.26,53.78,53.78,0,0,0,13-5.16,65,65,0,0,0,9.19-5.75,36.24,36.24,0,0,0,6.06-5.43ZM117.18,71.88c-.08.82-.19,1.53-.22,2.24-.07,2-.13,3.93-.14,5.89a6.86,6.86,0,0,0,.29,1.8,1.89,1.89,0,0,0,1.74,1.64,19.76,19.76,0,0,0,2.41,0,17.8,17.8,0,0,0,5.82-1.64,16.48,16.48,0,0,0,4.87-3.39c.92-.9,1.84-1.16,2.56-.49,1.46,1.36,2.83,2.83,4.21,4.28a2.75,2.75,0,0,1,.57,1,1.89,1.89,0,0,0,1.54,1.3,8.19,8.19,0,0,0,7-1.7c1.5-1.14,3.07-2.22,4.47-3.48a34.53,34.53,0,0,0,3.38-3.65c.48-.58.3-1-.42-1.2a27.31,27.31,0,0,0-2.74-.77A55.58,55.58,0,0,1,142.36,71a14.77,14.77,0,0,1-3.25-2,2.51,2.51,0,0,0-1.44-.71,10.82,10.82,0,0,0-5.37,1.62,21.41,21.41,0,0,1-8.74,2C121.44,71.95,119.31,71.88,117.18,71.88Zm113.77,144h-.12c.14,2.23.21,4.46.46,6.67a5.47,5.47,0,0,0,.94,2.32,3.35,3.35,0,0,0,3,1.22c3,0,5.91-.11,8.86-.3q3.5-.22,7-.76a33.65,33.65,0,0,0,4.67-1.2,5,5,0,0,0,1.3-1,5.6,5.6,0,0,0-.93-1.05c-1.52-1-3.08-2-4.61-3l-10.65-7c-2.6-1.75-5.16-3.55-7.74-5.33-.91-.62-1.56-.4-1.7.66-.22,1.68-.36,3.38-.45,5.08C230.89,213.38,230.95,214.61,230.95,215.88ZM37.6,241.55h.15v7.61a1.24,1.24,0,0,0,1.71,1.33c.8-.21,1.59-.45,2.38-.71a13.4,13.4,0,0,0,7.49-6.43,28,28,0,0,0,3.26-11.71c.07-.86.16-1.73.16-2.59,0-2.15,0-4.31-.06-6.46,0-.81-.42-.94-1.07-.4-2.12,1.77-4.25,3.53-6.29,5.39s-3.76,3.64-5.64,5.46a17.14,17.14,0,0,1-1.6,1.45,1.36,1.36,0,0,0-.53,1.15C37.62,237.61,37.6,239.58,37.6,241.55Zm-3-93.72a4.21,4.21,0,0,0,1-.2,30.48,30.48,0,0,0,2.9-1.6c2.29-1.5,4.58-3,6.8-4.6a21.07,21.07,0,0,0,3-2.71c1.15-1.23,1.19-2.87,1.25-4.43.08-2.27,0-4.54,0-6.82a21.88,21.88,0,0,0-.3-2.93c-.13-.84-.49-1-1.26-.75a4.71,4.71,0,0,0-.87.38l-9.53,5.78a6.61,6.61,0,0,0-3.34,6.29c.07,2.45,0,4.89,0,7.34.08,1.38.22,2.76.32,4.28Zm14.26-71a7.64,7.64,0,0,0-1,.58c-1.51,1.23-3.11,2.42-4.47,3.74-2.76,2.73-5.39,5.55-8.09,8.37a4.84,4.84,0,0,0-1.57,3c-.09,2.12-.06,4.25,0,6.38a6.74,6.74,0,0,0,.48,2,1.11,1.11,0,0,0,1.8.62c.58-.36,1.18-.7,1.73-1.1l11.43-8.4a.88.88,0,0,0,.43-.83V86.37q-.1-3.9-.31-7.81A9.08,9.08,0,0,0,48.86,76.88Zm92.58-18.65a1.2,1.2,0,0,0,.42-.11c.53-.4,1-.83,1.56-1.24a7.67,7.67,0,0,1,5-2c1.94.06,3.88.15,5.82.14,3.56,0,7.12-.09,10.69-.14l8.66-.16h.08a8.51,8.51,0,0,0,.37-.77c.42-1.16.83-2.33,1.24-3.5.2-.58-.16-.76-.62-.79-2.15-.12-4.31-.23-6.46-.3s-4.18-.1-6.27-.16-4.08-.08-6.12-.16c-1.46-.06-2.91-.19-4.36-.29A21.63,21.63,0,0,1,144.81,47a14.94,14.94,0,0,0-3-.81c-.77-.13-1,.15-1,.89,0,1.59.06,3.18.15,4.77C141.08,54,141.28,56.09,141.44,58.23ZM224,77.61c.36,0,1-.14,1.69-.17l6.61-.31a19.08,19.08,0,0,0,2.14-.16c2.17-.24,4.35-.44,6.52-.76a25.91,25.91,0,0,0,4.13-.93A1.86,1.86,0,0,0,246.18,74c.07-.53-.64-.69-1.15-.79a4.35,4.35,0,0,0-.57-.14c-1.8-.11-3.61-.28-5.41-.29-2.61,0-5.23.08-7.84.13l-6.57.15-10.66.3c-1.21,0-2.43.06-3.64.15-2.38.18-4.77.34-7.15.61a7.69,7.69,0,0,0-4.79,2.64c-.3.32-.36.81.28.95a12.23,12.23,0,0,0,2.45.43c3.86,0,7.73-.07,11.59-.13,1,0,2-.11,3-.14Zm-154.71,8c.09.7.19,1.21.22,1.72.16,2.54.27,5.09.47,7.63.11,1.39.34,2.77.58,4.15.15.83.44,1,1.26.77a69.11,69.11,0,0,0,11.25-4.25A4.43,4.43,0,0,0,85.86,92c.2-1.77.23-3.56.32-5.34a3.23,3.23,0,0,0,0-.52c-1.65-.08-3.24-.18-4.82-.22-3-.07-5.93-.11-8.89-.16H72ZM35,188.46c.18,1.33.34,2.84.61,4.34a1.06,1.06,0,0,0,1.54.76,5.16,5.16,0,0,0,1.38-.66c1.35-1,2.68-2.09,4-3.2,2-1.74,4-3.49,5.9-5.32a5.38,5.38,0,0,0,1.83-3.19,33.34,33.34,0,0,0,.19-4.53A10.41,10.41,0,0,0,50,174a1,1,0,0,0-1.23-.7h0l-.19.07a17.39,17.39,0,0,0-3,1.41c-2.3,1.49-4.58,3-6.75,4.69a7.34,7.34,0,0,0-3.24,4.39C35.3,185.28,35.23,186.77,35,188.46Zm167.4,90.19c1.14-.08,2.17-.18,3.21-.21,2.44-.07,4.88-.11,7.32-.16l7.69-.15,8.52-.15c1.32,0,2.63-.1,3.95-.15,2.83-.1,5.66-.19,8.49-.31q2.41-.1,4.81-.31a2.25,2.25,0,0,0,2.09-1.61c.39-1.23.24-2.22-1.28-2.4a10,10,0,0,0-3.36,0,49,49,0,0,1-7.21.68c-2.45.2-4.91.23-7.36.32l-4.77.15c-1.79,0-3.58.12-5.37.15l-10.84.16c-1.39,0-2.78.08-4.17.15-1.1.06-1.68.49-1.71,1.26s0,1.61,0,2.58ZM216.7,54.42l4.52-.24,8.38-.45,5.94-.3c.74,0,1.48-.09,2.22-.15,2.14-.19,4.27-.36,6.4-.6q2.78-.31,5.54-.77a2.82,2.82,0,0,0,1.24-.57c.47-.37.39-.92-.17-1.08a12.52,12.52,0,0,0-2.86-.55c-2.69-.12-5.38-.12-8.07-.17l-6.57-.15c-1.64,0-3.28-.09-4.92-.15-2.43-.09-4.86-.21-7.29-.29-2.21-.07-4.43-.13-6.64-.14-1.36,0-2.73.09-4.09.14a1.22,1.22,0,0,0-1.26,1.16,6,6,0,0,0,.11.79A2.84,2.84,0,0,0,211.7,54h.21c1.7.24,3.46.28,4.84.39ZM73,178.51a6.15,6.15,0,0,0,.78,0c1.26-.19,2.54-.31,3.77-.6,2-.46,4-1,5.93-1.59a2,2,0,0,0,1-1.09,5.49,5.49,0,0,0,.33-1.94v-9a12.73,12.73,0,0,0-.4-2.76c-.25-1-.83-1.16-1.6-.4a15.49,15.49,0,0,1-1.75,1.75c-2.49,1.73-5,3.38-7.56,5.06a1,1,0,0,0-.51.95v9.62ZM75.09,224c2,.12,3.89.28,5.79.34,1.21,0,2.43-.06,3.64-.14,1-.07,1.54-.4,1.64-1.15a17.15,17.15,0,0,0,.17-2.74c0-1.21-.19-2.41-.28-3.61-.11-1.43-.19-2.86-.31-4.29-.07-.77-.2-1.53-.32-2.37-1.24.08-2.39.06-3.51.24a39.85,39.85,0,0,0-5.16,1.07,3,3,0,0,0-2.4,2.77,25,25,0,0,0,0,3.23c.21,2.23.49,4.46.74,6.66Zm49.6-98.68h.15c.07,1.29.13,2.58.22,3.87a1.08,1.08,0,0,0,1.08,1.08h.07a27.84,27.84,0,0,0,3.16-.31,7.32,7.32,0,0,0,4.91-3,15.33,15.33,0,0,0,2.15-5.19,5.83,5.83,0,0,0,.25-2.39,3.84,3.84,0,0,0-2.71-2.94,8.92,8.92,0,0,0-5.08-.44c-2,.44-3,.83-3.38,3.11-.36,2.11-.55,4.17-.82,6.22Zm81.7-24.12h1l6.78-.59c1.84-.16,3.69-.29,5.53-.46,2.73-.24,5.45-.51,8.18-.74a1.19,1.19,0,0,0,1.15-.77,6.27,6.27,0,0,0,.36-1.34c.17-1.27-.17-1.93-1.06-2.09a8.79,8.79,0,0,0-1.76-.16c-2.08.07-4.16.19-6.24.29l-3.94.15c-1,0-1.93.07-2.89.16-2.19.18-4.38.34-6.55.61a23.32,23.32,0,0,0-3.92.85,1.82,1.82,0,0,0-.28,3.33c1.11.79,2.41.65,3.64.77ZM94.46,134h1.47c1.17-.13,2.34-.28,3.51-.43,1.9-.25,3.8-.48,5.68-.78a1.28,1.28,0,0,0,1.2-1.08,26.12,26.12,0,0,0,.25-7.67,5.73,5.73,0,0,0-.41-1.62,1.59,1.59,0,0,0-1.91-1.19h0l-.2.06c-1.63.41-3.26.83-4.86,1.34A4.48,4.48,0,0,0,95.8,126C95.32,128.63,94.92,131.24,94.46,134Zm94,73.58h-.1v-.6a1.45,1.45,0,0,0-1.72-1.54,7.51,7.51,0,0,0-1.78.41c-2.58,1-5.15,2-7.73,2.93-1.23.45-2.53.75-3.75,1.24-.47.19-1.13.7-1.14,1.08s.56,1,1,1.22c3.22,1.86,6.62,3.12,10.43,2.55,1.81-.27,3.42-1.06,4-2.92a32.46,32.46,0,0,0,.78-4.37ZM71.2,139.75v4a3.52,3.52,0,0,0,.5,1.49c.3.53.69.38,1-.09a11.34,11.34,0,0,0,.63-1.16c.82-1.85,1.72-3.68,2.4-5.58,1-2.82,1.93-5.68,2.78-8.55.25-.85.21-1.19-.76-1.57-.59-.23-1.13-.61-1.74-.78-1.15-.33-2.32-.58-3.48-.83-.41-.09-.71,0-.74.56,0,.73-.23,1.45-.27,2.19-.12,2.45-.22,4.91-.3,7.36C71.17,137.75,71.2,138.75,71.2,139.75ZM149.14,196l.05.16c2.18-.51,4.41-.91,6.55-1.56a59.65,59.65,0,0,0,15.13-7.36,19.42,19.42,0,0,0,2.84-2.41,1.14,1.14,0,0,0,0-1.09,1.18,1.18,0,0,0-1-.32,11.26,11.26,0,0,0-2.26.83c-3.78,1.86-7.53,3.79-11.32,5.62a51.72,51.72,0,0,1-8.41,3,18.39,18.39,0,0,0-3.21,1.38,1.14,1.14,0,0,0-.48.91c0,.23.4.55.69.64A8,8,0,0,0,149.14,196Zm23.14-6.79-.07-.18a17.13,17.13,0,0,0-2,.8c-1.63.89-3.16,2-4.84,2.74q-4.22,2-8.57,3.62c-2.34.89-4.79,1.52-7.16,2.35a8.91,8.91,0,0,0-2.27,1.31c-.53.39-.36.91.29,1.05A6.29,6.29,0,0,0,149,201a22.22,22.22,0,0,0,6.87-1.43,79.84,79.84,0,0,0,11-4.56,30.92,30.92,0,0,0,6.22-3.85,2,2,0,0,0,.7-1.43c-.08-.59-.8-.61-1.37-.57Zm-52.45-32a3,3,0,0,0-.46.79,10.72,10.72,0,0,0-.31,2.1v7.12a6.68,6.68,0,0,0,.25,1.59,1.36,1.36,0,0,0,1.56,1c.87-.15,1.74-.25,2.6-.45,1.25-.29,2.47-.65,3.65-1,.07-2-5.37-10.27-7.29-11.12Zm81-128.73a15.78,15.78,0,0,0,2-.79c2.44-1.35,4.89-2.68,7.25-4.15a30.38,30.38,0,0,0,3.38-2.73c.16-.13.19-.42.28-.63a2,2,0,0,0-.64-.07c-1.5.34-3,.61-4.47,1.09-3,1-5.88,2.06-8.81,3.14a11.45,11.45,0,0,0-1.63.92,16.77,16.77,0,0,0,1.08,2.13c.4.52.75,1.17,1.6,1.12Zm-12.9,250.77c1.67-.13,3.28-.2,4.88-.4a7.48,7.48,0,0,0,2.2-.74,1.21,1.21,0,0,0,.6-.89.85.85,0,0,0-.77-.92c-1.26-.15-2.51-.48-3.77-.54-2-.09-4,0-6,0a7.36,7.36,0,0,0-1.73.29,1.85,1.85,0,0,0-1.16,1.9c.07.79.79.85,1.32.92,1.52.21,3,.29,4.47.42Z" transform="translate(0 0)"/>
  <path class="f" d="M60.55,295.08H57.1a3.3,3.3,0,0,0-.48-.39A11.39,11.39,0,0,1,53,291.61a40.26,40.26,0,0,1-5.3-9.88c-1.46-3.7-2.72-7.48-4-11.24-.71-2.08-1.24-4.22-1.92-6.3s-1.12-4.17-2.42-5.94c-.26-.35-.77-.78-1.12-.74s-.75.57-.93,1a15.38,15.38,0,0,0-1,6,94.84,94.84,0,0,1-.48,10,14,14,0,0,1-1.67,5.37,4.24,4.24,0,0,1-3.7,2.29,3.92,3.92,0,0,1-3.42-2A54.92,54.92,0,0,1,23,273.48c-2.29-4.63-4.44-9.33-6.51-14.07a50.5,50.5,0,0,1-2.56-7.24,35.49,35.49,0,0,1-.85-6c-.23-2.66-.33-5.34-.47-8q-.17-3.19-.3-6.39c-.11-2.53-.2-5.06-.3-7.59,0-1.34-.11-2.68-.15-4-.06-1.89-.14-3.78-.14-5.67,0-2.11.08-4.23.15-6.34a4.37,4.37,0,0,1,.22-.89,7.37,7.37,0,0,1,.94.31c.92.44,1.8,1,2.74,1.36s1.43.06,1.49-.84c.17-2.37.41-4.74.43-7.11,0-3.94-.07-7.88-.13-11.82,0-2.44-.09-4.88-.15-7.32q-.06-2.61-.15-5.22-.14-4.25-.3-8.49c-.09-2.26-.21-4.51-.3-6.77q-.16-4.13-.3-8.27-.09-2.65-.15-5.3c-.06-2.27-.13-4.53-.14-6.8V129.46c0-2.74-.09-5.48-.15-8.22,0-2-.1-4.08-.15-6.12s-.1-3.78-.15-5.67q-.07-2.31-.15-4.62-.14-3.87-.3-7.74c-.12-2.28-.12-4.56-.32-6.84-.14-2-.32-4.08-.61-6.1a10,10,0,0,0-1.91-4.87C9.75,76,7.14,73,4.6,69.88a11.14,11.14,0,0,1-2.71-5.1,30,30,0,0,1-.56-4.07A5.52,5.52,0,0,1,2,57.22a1.44,1.44,0,0,0,.08-1.11c-.34-1-.75-2-1.18-3S.12,51,1,49.95a2.51,2.51,0,0,0,.45-1.29,15.82,15.82,0,0,0,0-2.26,11.69,11.69,0,0,1,.74-4.86,3.35,3.35,0,0,0-.21-3,29.62,29.62,0,0,0-1.7-2.66c-.45-.63-.36-.91.24-1.42,1.68-1.46,3.23-3,4.87-4.58C6,29.36,6.5,28.81,7.1,28.33c2.18-1.76,4.3-3.6,6.59-5.21,2.78-2,5.6-3.88,9.1-4.41a5.29,5.29,0,0,1,4.87,1.43c1.12,1.15,2.09,2.44,3.2,3.6a4.15,4.15,0,0,0,3.42,1.44,13.29,13.29,0,0,0,4.84-1.6c2.69-1.36,5.35-2.79,8-4.23a14.23,14.23,0,0,0,5.32-5.21,30.31,30.31,0,0,1,4.36-6c.45-.44.89-.55,1.36-.11a42.19,42.19,0,0,1,3.59,3.55q3,3.55,5.69,7.33a61.24,61.24,0,0,1,7.2,12.51,13.18,13.18,0,0,1,1,7.12,24.49,24.49,0,0,1-2.52,6.93c-1.38,2.78-2.84,5.53-4.19,8.33A7.58,7.58,0,0,0,68,57.55,1.41,1.41,0,0,0,69.34,59h.12a9,9,0,0,0,3.87-1,47.33,47.33,0,0,0,10.42-6.5,1,1,0,0,0,.29-.7c0-4.64,0-9.28-.18-13.92a12.85,12.85,0,0,0-.94-4.12c-.76-2-1.78-3.82-2.67-5.73A14.52,14.52,0,0,1,78.8,21V17.57a13,13,0,0,1,1.11-4.77,23.92,23.92,0,0,1,4.6-6.54c1.82-2,3.76-3.86,5.61-5.81A1.36,1.36,0,0,1,91.39,0c.9.1,1.81.21,2.71.29,1.33.12,2.66.17,4,.32,1.8.21,3.61.42,5.39.76a14.57,14.57,0,0,1,3.61,1.1,17.2,17.2,0,0,1,5.28,4.38,33,33,0,0,1,6.11,9.73,7.12,7.12,0,0,1,.66,4.27c-.48,2-1.23,3.9-1.9,5.83a11.25,11.25,0,0,0-.9,4.37c.06,1,.61,1.77,1.32,1.63a12.86,12.86,0,0,0,3.14-.91,13.66,13.66,0,0,0,2.67-1.92c1.43-1.22,2.81-2.49,4.32-3.85,1.84,1.32,3.69,2.6,5.49,4A16.13,16.13,0,0,1,138,36.47a33.71,33.71,0,0,0,1.86,3.41,1.23,1.23,0,0,0,2.27-.25,1.53,1.53,0,0,1,.35-.64c.83-1,1.64-1.93,2.52-2.82,1.36-1.37,2.86-2.62,4.14-4.06a3.24,3.24,0,0,1,3.14-1.18,8.65,8.65,0,0,0,.95.14c1.79.06,3.58.17,5.37.14,2.88,0,5.76-.15,8.64-.3,1.47-.08,1.81-.83,1.07-2.15a2.12,2.12,0,0,0-.39-.53,10.49,10.49,0,0,0-4.9-2.39c-2.47-.57-5-1-7.47-1.54-2-.48-3.92-1.37-4.65-3.53a38.61,38.61,0,0,1-1.19-4.9,27.08,27.08,0,0,1-.44-3.58c-.08-1.28-.22-1.46.94-2.18a15.76,15.76,0,0,1,2.24-1.23c3.06-1.28,6.13-2.56,9.23-3.74a19.27,19.27,0,0,1,7.61-1.49c1.91.08,3.83.33,5.73.59,2.21.3,4.43.58,6.6,1.07A11.68,11.68,0,0,1,188.87,10a28.77,28.77,0,0,0,2.27,3c.66.72,1.39,1.56,2.56,1.39,1.57-.24,3.14-.52,4.7-.81s3.31-.65,5-1c2.76-.54,5.52-1,8.28-1.6,2.18-.44,4.36-.88,6.52-1.41,2.89-.71,5.77-1.44,8.63-2.28A4.22,4.22,0,0,0,229.65,5a.94.94,0,0,1,.67-.47,12.29,12.29,0,0,1,2.69,0c2.68.44,5.36.9,8,1.49a35.24,35.24,0,0,1,9.8,3.4c2.47,1.39,4.92,2.84,7.25,4.45A15.3,15.3,0,0,1,263,18.75a3.49,3.49,0,0,1,0,4,7.21,7.21,0,0,1-3.75,2.36,29.2,29.2,0,0,1-8.7,1,14.23,14.23,0,0,0-5,1,7.86,7.86,0,0,0-2.22,1.44.71.71,0,0,0,.4,1.18,34.23,34.23,0,0,0,4.05.1c2.21-.12,4.42-.36,6.63-.57,1.35-.13,2.69-.33,4-.42a2.69,2.69,0,0,1,2.31.48,36,36,0,0,0,2.85,2.2A60.08,60.08,0,0,1,272,38.83a5.6,5.6,0,0,1,1.79,4.43,6.48,6.48,0,0,1-.91,2.58,30,30,0,0,1-3,3.76A3.87,3.87,0,0,1,267,50.76h-8.45a5.81,5.81,0,0,0,.44.81c.43.51.88,1,1.34,1.5,1.93,2,3.9,4,5.8,6.12a21,21,0,0,1,4.07,6.1,9.49,9.49,0,0,1,.87,3.89c-.1,2.22-1.6,3.69-3.5,4.67a10.85,10.85,0,0,1-7.5.54c-2.5-.55-4.88-1.2-7.33-1.75-.48-.11-1.34-.09-1.46.15-.29.59.4.93.83,1.21,1.88,1.27,3.8,2.5,5.69,3.76,4.9,3.26,9.8,6.51,13.74,11a16.74,16.74,0,0,1,3.76,6.83,4.19,4.19,0,0,1-2.41,5.18,17.59,17.59,0,0,1-5.19,1.47,14.52,14.52,0,0,0-4.23,1.13,2.13,2.13,0,0,0-.82,3.18c.86,1.22,1.81,2.38,2.77,3.53a14.83,14.83,0,0,1,2.59,4,15.7,15.7,0,0,1,.72,6.43,5.52,5.52,0,0,1-.45,2,16,16,0,0,1-5.94,6.7c-3.09,2.12-6.55,2.4-10.17,1.6a44.8,44.8,0,0,1-9.1-3.44c-1.91-.89-3.81-1.79-5.75-2.6a17.68,17.68,0,0,0-7.93-1,14.19,14.19,0,0,0-2.67.46c-.33.08-.58.44-.87.67a6.45,6.45,0,0,0,.78.89,26.7,26.7,0,0,1,2.17,1.63,27,27,0,0,1,2.06,2.33,21.4,21.4,0,0,1,3.58,5.37c.87,2.07.57,3.89-1.72,4.85-.74.31-1.49.62-2.21,1a1.65,1.65,0,0,0-1.06,1.7c.08,1.11.14,2.23.15,3.34,0,.66.22.89.91.89h13.35c3.93,0,7.86-.17,11.79-.3a3.82,3.82,0,0,0,3.3-1.76,13.67,13.67,0,0,1,1.38-1.58c.86.47,1.69.9,2.49,1.37,2.3,1.35,4.64,2.64,6.86,4.11a20.48,20.48,0,0,1,4.77,4.5,25,25,0,0,1,3.21,5.59,9.66,9.66,0,0,1,.73,6.3,12.15,12.15,0,0,1-6.5,8.47,13.8,13.8,0,0,1-9.71,1c-1.51-.36-2.93-1.07-4.41-1.54a40.4,40.4,0,0,0-13-1.8,6.5,6.5,0,0,0-1.65.32c-.46.13-.71.46-.39.94a10.06,10.06,0,0,0,1.21,1.66c1.45,1.43,2.92,2.84,4.46,4.17,1.83,1.57,3.68,3.13,5.62,4.55,2.61,1.9,5.27,3.75,8,5.48s5.53,3.34,8.34,4.92a10,10,0,0,0,5,1.21h3.26c.23,1.59.46,3.1.65,4.6q.34,2.63.61,5.28c.21,2,.47,4.07.57,6.11.07,1.46-.06,2.93-.13,4.39a13.71,13.71,0,0,1-2.16,6.85c-.52.81-.93,1.74-2,2.13a1.06,1.06,0,0,0-.16,1.88,6.5,6.5,0,0,0,1.92.84c2.25.63,4.54,1.16,6.78,1.83a9.82,9.82,0,0,1,4.31,2.45c1.27,1.3,1,1.79-.09,2.67a2.09,2.09,0,0,0-.7,2.22,5.3,5.3,0,0,0,1.39,2.62,1.88,1.88,0,0,1,.63,2c-.3.75-.63,1.48-.9,2.24a1.5,1.5,0,0,0,1.57,2,6.65,6.65,0,0,1-.36,3.6c-.52,1.34-1,2.72.37,3.92.08.07.08.28.07.42-.12,1.23.28,2.5-.45,3.71a3.67,3.67,0,0,0-.14,1.91,8.25,8.25,0,0,1-1.08,4.16,4.08,4.08,0,0,0-.1,4.08,1.82,1.82,0,0,1-.07,1.94,4.54,4.54,0,0,1-.84,1,4.77,4.77,0,0,0-1.42,5.09,4,4,0,0,1-1.2,4.28c-1.18,1.06-2.32,2.16-3.58,3.11a17.3,17.3,0,0,1-9.6,3.64,31,31,0,0,1-5.33-.28,30.42,30.42,0,0,1-9-2.71,14.23,14.23,0,0,0-7.79-1c-2.08.25-4.15.52-6.23.73-1.38.14-2.76.23-4.14.3l-8.76.45-6.62.3-8.34.3-4.47.15-5.07.15-5.52.15c-2.37.06-4.73.12-7.1.15-4.49.06-9,.13-13.47.14-2.67,0-5.33-.08-8-.14-1,0-1.93-.08-2.9-.15-2.54-.19-5.07-.38-7.61-.6-1.94-.17-3.88-.35-5.8-.61-2.11-.29-4.21-.65-6.31-1-3-.54-5.95-1-8.85-1.73-4-1-7.85-2.37-11.8-3.44a38,38,0,0,0-7-1.36,43.62,43.62,0,0,0-7.28.27c-2.39.22-4.76.64-7.14,1-2.85.47-5.7,1-8.53,1.51a6.31,6.31,0,0,0-5.33,4.74,32.42,32.42,0,0,1-1,3.27,10.86,10.86,0,0,1-3,4.51,4.13,4.13,0,0,1-2.81,1,6.76,6.76,0,0,1-4.54-2.31c-1.85-1.77-3.65-3.59-5.43-5.43-.77-.79-1.41-1.71-2.13-2.55s-1.5-1.81-2.34-2.62a1.14,1.14,0,0,0-2,.23c-.87,1.33-1.71,2.68-2.47,4.07-1.16,2.11-2.22,4.27-3.36,6.38A23.48,23.48,0,0,1,60.55,295.08ZM182.38,147.93v-.11l4-.34a2.65,2.65,0,0,0,2.57-2.26,22.74,22.74,0,0,0,.57-2.79,5.3,5.3,0,0,0-1-4.17,21.38,21.38,0,0,0-5-4.08c-1.24-.76-2.52-1.63-2.75-3.17a6.89,6.89,0,0,1,.62-4.47,1.75,1.75,0,0,0-.24-2.2,23,23,0,0,0-2.51-2.51,17.71,17.71,0,0,1-4.2-4.93,3.74,3.74,0,0,1-.33-3.52,3.37,3.37,0,0,0,.19-2.44,18.27,18.27,0,0,0-4.21-7,1,1,0,0,0-1.27-.29c-.87.37-1.78.67-2.66,1-1.69.71-3.35,1.5-5.06,2.15a31.09,31.09,0,0,1-8.37,1.49c-2.69.24-5.39.34-8.09.46-.55,0-.64.23-.67.72a33.25,33.25,0,0,1-.4,4,13.73,13.73,0,0,1-2.9,5.94c-.72.92-1.4,1.95-.92,3.25,1,2.59,1.91,5.17,2.88,7.75a36.18,36.18,0,0,1,2.08,8.3c.23,1.83.33,3.69.46,5.53.16,2.29.27,4.59.47,6.88.13,1.46.36,2.92.6,4.37.13.76.63,1,1.21.42a25.86,25.86,0,0,0,2.39-2.5,32.34,32.34,0,0,1,5-5.28,4.21,4.21,0,0,1,3.64-1.06,25.23,25.23,0,0,0,3.43.69c2.15.19,4.31.29,6.46.31,2.86,0,5.73-.09,8.6-.13C178.75,147.88,180.56,147.93,182.38,147.93Zm-60.53,55.54s-.08.07-.08.09c0,4.46.06,8.93.15,13.39a13.77,13.77,0,0,0,.46,2.82,1.2,1.2,0,0,0,.65.71,5.61,5.61,0,0,0,1.57.35c2.56.22,5.12.45,7.68.6s5.11.22,7.66.31l5,.15c1.89.05,3.78.11,5.67.15,3.46.06,6.93.15,10.39.14,4.46,0,8.93-.09,13.39-.14.79,0,1-.32.6-1a19,19,0,0,0-2.08-2.92c-1.84-2-3.8-3.89-5.65-5.87a1.55,1.55,0,0,0-1.78-.46c-2,.53-4.08,1-6.14,1.39s-4.18.58-6.25.93a15.31,15.31,0,0,1-5.67-.25,9.82,9.82,0,0,1-6.48-4.59,4.73,4.73,0,0,0-2.58-2.22c-.7-.2-1.47-.15-2.16-.38a23.86,23.86,0,0,1-4-1.57C128.91,203.27,125.39,203.33,121.85,203.47Zm59-31a4.17,4.17,0,0,0-.88-.35c-2.1-.27-4.19-.55-6.29-.76-1.55-.15-3.11-.17-4.66-.32-2.08-.21-4.15-.45-6.22-.75a57.88,57.88,0,0,1-10.24-2.46,17.93,17.93,0,0,1-6.16-3.18c-1.37-1.18-2.36-.49-3.07.42a22.78,22.78,0,0,0-3.33,5.86,7.62,7.62,0,0,0-.42,4.2c.42,2.16,2,3.55,3.47,4.93a6.19,6.19,0,0,1,2.28,4.72,12.4,12.4,0,0,0,.16,2.14,2.32,2.32,0,0,0,2,2.13,12.1,12.1,0,0,0,5.06-.26,53.78,53.78,0,0,0,13-5.16,65,65,0,0,0,9.19-5.75,36.24,36.24,0,0,0,6.06-5.43ZM117.18,71.88c-.08.82-.19,1.53-.22,2.24-.07,2-.13,3.93-.14,5.89a6.86,6.86,0,0,0,.29,1.8,1.89,1.89,0,0,0,1.74,1.64,19.76,19.76,0,0,0,2.41,0,17.8,17.8,0,0,0,5.82-1.64,16.48,16.48,0,0,0,4.87-3.39c.92-.9,1.84-1.16,2.56-.49,1.46,1.36,2.83,2.83,4.21,4.28a2.75,2.75,0,0,1,.57,1,1.89,1.89,0,0,0,1.54,1.3,8.19,8.19,0,0,0,7-1.7c1.5-1.14,3.07-2.22,4.47-3.48a34.53,34.53,0,0,0,3.38-3.65c.48-.58.3-1-.42-1.2a27.31,27.31,0,0,0-2.74-.77A55.58,55.58,0,0,1,142.36,71a14.77,14.77,0,0,1-3.25-2,2.51,2.51,0,0,0-1.44-.71,10.82,10.82,0,0,0-5.37,1.62,21.41,21.41,0,0,1-8.74,2C121.44,71.95,119.31,71.88,117.18,71.88Zm113.77,144h-.12c.14,2.23.21,4.46.46,6.67a5.47,5.47,0,0,0,.94,2.32,3.35,3.35,0,0,0,3,1.22c3,0,5.91-.11,8.86-.3q3.5-.22,7-.76a33.65,33.65,0,0,0,4.67-1.2,5,5,0,0,0,1.3-1,5.6,5.6,0,0,0-.93-1.05c-1.52-1-3.08-2-4.61-3l-10.65-7c-2.6-1.75-5.16-3.55-7.74-5.33-.91-.62-1.56-.4-1.7.66-.22,1.68-.36,3.38-.45,5.08C230.89,213.38,230.95,214.61,230.95,215.88ZM37.6,241.55h.15v7.61a1.24,1.24,0,0,0,1.71,1.33c.8-.21,1.59-.45,2.38-.71a13.4,13.4,0,0,0,7.49-6.43,28,28,0,0,0,3.26-11.71c.07-.86.16-1.73.16-2.59,0-2.15,0-4.31-.06-6.46,0-.81-.42-.94-1.07-.4-2.12,1.77-4.25,3.53-6.29,5.39s-3.76,3.64-5.64,5.46a17.14,17.14,0,0,1-1.6,1.45,1.36,1.36,0,0,0-.53,1.15C37.62,237.61,37.6,239.58,37.6,241.55Zm-3-93.72a4.21,4.21,0,0,0,1-.2,30.48,30.48,0,0,0,2.9-1.6c2.29-1.5,4.58-3,6.8-4.6a21.07,21.07,0,0,0,3-2.71c1.15-1.23,1.19-2.87,1.25-4.43.08-2.27,0-4.54,0-6.82a21.88,21.88,0,0,0-.3-2.93c-.13-.84-.49-1-1.26-.75a4.71,4.71,0,0,0-.87.38l-9.53,5.78a6.61,6.61,0,0,0-3.34,6.29c.07,2.45,0,4.89,0,7.34.08,1.38.22,2.76.32,4.28Zm14.26-71a7.64,7.64,0,0,0-1,.58c-1.51,1.23-3.11,2.42-4.47,3.74-2.76,2.73-5.39,5.55-8.09,8.37a4.84,4.84,0,0,0-1.57,3c-.09,2.12-.06,4.25,0,6.38a6.74,6.74,0,0,0,.48,2,1.11,1.11,0,0,0,1.8.62c.58-.36,1.18-.7,1.73-1.1l11.43-8.4a.88.88,0,0,0,.43-.83V86.37q-.1-3.9-.31-7.81A9.08,9.08,0,0,0,48.86,76.88Zm92.58-18.65a1.2,1.2,0,0,0,.42-.11c.53-.4,1-.83,1.56-1.24a7.67,7.67,0,0,1,5-2c1.94.06,3.88.15,5.82.14,3.56,0,7.12-.09,10.69-.14l8.66-.16h.08a8.51,8.51,0,0,0,.37-.77c.42-1.16.83-2.33,1.24-3.5.2-.58-.16-.76-.62-.79-2.15-.12-4.31-.23-6.46-.3s-4.18-.1-6.27-.16-4.08-.08-6.12-.16c-1.46-.06-2.91-.19-4.36-.29A21.63,21.63,0,0,1,144.81,47a14.94,14.94,0,0,0-3-.81c-.77-.13-1,.15-1,.89,0,1.59.06,3.18.15,4.77C141.08,54,141.28,56.09,141.44,58.23ZM224,77.61c.36,0,1-.14,1.69-.17l6.61-.31a19.08,19.08,0,0,0,2.14-.16c2.17-.24,4.35-.44,6.52-.76a25.91,25.91,0,0,0,4.13-.93A1.86,1.86,0,0,0,246.18,74c.07-.53-.64-.69-1.15-.79a4.35,4.35,0,0,0-.57-.14c-1.8-.11-3.61-.28-5.41-.29-2.61,0-5.23.08-7.84.13l-6.57.15-10.66.3c-1.21,0-2.43.06-3.64.15-2.38.18-4.77.34-7.15.61a7.69,7.69,0,0,0-4.79,2.64c-.3.32-.36.81.28.95a12.23,12.23,0,0,0,2.45.43c3.86,0,7.73-.07,11.59-.13,1,0,2-.11,3-.14Zm-154.71,8c.09.7.19,1.21.22,1.72.16,2.54.27,5.09.47,7.63.11,1.39.34,2.77.58,4.15.15.83.44,1,1.26.77a69.11,69.11,0,0,0,11.25-4.25A4.43,4.43,0,0,0,85.86,92c.2-1.77.23-3.56.32-5.34a3.23,3.23,0,0,0,0-.52c-1.65-.08-3.24-.18-4.82-.22-3-.07-5.93-.11-8.89-.16H72ZM35,188.46c.18,1.33.34,2.84.61,4.34a1.06,1.06,0,0,0,1.54.76,5.16,5.16,0,0,0,1.38-.66c1.35-1,2.68-2.09,4-3.2,2-1.74,4-3.49,5.9-5.32a5.38,5.38,0,0,0,1.83-3.19,33.34,33.34,0,0,0,.19-4.53A10.41,10.41,0,0,0,50,174a1,1,0,0,0-1.23-.7h0l-.19.07a17.39,17.39,0,0,0-3,1.41c-2.3,1.49-4.58,3-6.75,4.69a7.34,7.34,0,0,0-3.24,4.39C35.3,185.28,35.23,186.77,35,188.46Zm167.4,90.19c1.14-.08,2.17-.18,3.21-.21,2.44-.07,4.88-.11,7.32-.16l7.69-.15,8.52-.15c1.32,0,2.63-.1,3.95-.15,2.83-.1,5.66-.19,8.49-.31q2.41-.1,4.81-.31a2.25,2.25,0,0,0,2.09-1.61c.39-1.23.24-2.22-1.28-2.4a10,10,0,0,0-3.36,0,49,49,0,0,1-7.21.68c-2.45.2-4.91.23-7.36.32l-4.77.15c-1.79,0-3.58.12-5.37.15l-10.84.16c-1.39,0-2.78.08-4.17.15-1.1.06-1.68.49-1.71,1.26s0,1.61,0,2.58ZM216.7,54.42l4.52-.24,8.38-.45,5.94-.3c.74,0,1.48-.09,2.22-.15,2.14-.19,4.27-.36,6.4-.6q2.78-.31,5.54-.77a2.82,2.82,0,0,0,1.24-.57c.47-.37.39-.92-.17-1.08a12.52,12.52,0,0,0-2.86-.55c-2.69-.12-5.38-.12-8.07-.17l-6.57-.15c-1.64,0-3.28-.09-4.92-.15-2.43-.09-4.86-.21-7.29-.29-2.21-.07-4.43-.13-6.64-.14-1.36,0-2.73.09-4.09.14a1.22,1.22,0,0,0-1.26,1.16,6,6,0,0,0,.11.79A2.84,2.84,0,0,0,211.7,54h.21c1.7.24,3.46.28,4.84.39ZM73,178.51a6.15,6.15,0,0,0,.78,0c1.26-.19,2.54-.31,3.77-.6,2-.46,4-1,5.93-1.59a2,2,0,0,0,1-1.09,5.49,5.49,0,0,0,.33-1.94v-9a12.73,12.73,0,0,0-.4-2.76c-.25-1-.83-1.16-1.6-.4a15.49,15.49,0,0,1-1.75,1.75c-2.49,1.73-5,3.38-7.56,5.06a1,1,0,0,0-.51.95v9.62ZM75.09,224c2,.12,3.89.28,5.79.34,1.21,0,2.43-.06,3.64-.14,1-.07,1.54-.4,1.64-1.15a17.15,17.15,0,0,0,.17-2.74c0-1.21-.19-2.41-.28-3.61-.11-1.43-.19-2.86-.31-4.29-.07-.77-.2-1.53-.32-2.37-1.24.08-2.39.06-3.51.24a39.85,39.85,0,0,0-5.16,1.07,3,3,0,0,0-2.4,2.77,25,25,0,0,0,0,3.23c.21,2.23.49,4.46.74,6.66Zm49.6-98.68h.15c.07,1.29.13,2.58.22,3.87a1.08,1.08,0,0,0,1.08,1.08h.07a27.84,27.84,0,0,0,3.16-.31,7.32,7.32,0,0,0,4.91-3,15.33,15.33,0,0,0,2.15-5.19,5.83,5.83,0,0,0,.25-2.39,3.84,3.84,0,0,0-2.71-2.94,8.92,8.92,0,0,0-5.08-.44c-2,.44-3,.83-3.38,3.11-.36,2.11-.55,4.17-.82,6.22Zm81.7-24.12h1l6.78-.59c1.84-.16,3.69-.29,5.53-.46,2.73-.24,5.45-.51,8.18-.74a1.19,1.19,0,0,0,1.15-.77,6.27,6.27,0,0,0,.36-1.34c.17-1.27-.17-1.93-1.06-2.09a8.79,8.79,0,0,0-1.76-.16c-2.08.07-4.16.19-6.24.29l-3.94.15c-1,0-1.93.07-2.89.16-2.19.18-4.38.34-6.55.61a23.32,23.32,0,0,0-3.92.85,1.82,1.82,0,0,0-.28,3.33c1.11.79,2.41.65,3.64.77ZM94.46,134h1.47c1.17-.13,2.34-.28,3.51-.43,1.9-.25,3.8-.48,5.68-.78a1.28,1.28,0,0,0,1.2-1.08,26.12,26.12,0,0,0,.25-7.67,5.73,5.73,0,0,0-.41-1.62,1.59,1.59,0,0,0-1.91-1.19h0l-.2.06c-1.63.41-3.26.83-4.86,1.34A4.48,4.48,0,0,0,95.8,126C95.32,128.63,94.92,131.24,94.46,134Zm94,73.58h-.1v-.6a1.45,1.45,0,0,0-1.72-1.54,7.51,7.51,0,0,0-1.78.41c-2.58,1-5.15,2-7.73,2.93-1.23.45-2.53.75-3.75,1.24-.47.19-1.13.7-1.14,1.08s.56,1,1,1.22c3.22,1.86,6.62,3.12,10.43,2.55,1.81-.27,3.42-1.06,4-2.92a32.46,32.46,0,0,0,.78-4.37ZM71.2,139.75v4a3.52,3.52,0,0,0,.5,1.49c.3.53.69.38,1-.09a11.34,11.34,0,0,0,.63-1.16c.82-1.85,1.72-3.68,2.4-5.58,1-2.82,1.93-5.68,2.78-8.55.25-.85.21-1.19-.76-1.57-.59-.23-1.13-.61-1.74-.78-1.15-.33-2.32-.58-3.48-.83-.41-.09-.71,0-.74.56,0,.73-.23,1.45-.27,2.19-.12,2.45-.22,4.91-.3,7.36C71.17,137.75,71.2,138.75,71.2,139.75ZM149.14,196l.05.16c2.18-.51,4.41-.91,6.55-1.56a59.65,59.65,0,0,0,15.13-7.36,19.42,19.42,0,0,0,2.84-2.41,1.14,1.14,0,0,0,0-1.09,1.18,1.18,0,0,0-1-.32,11.26,11.26,0,0,0-2.26.83c-3.78,1.86-7.53,3.79-11.32,5.62a51.72,51.72,0,0,1-8.41,3,18.39,18.39,0,0,0-3.21,1.38,1.14,1.14,0,0,0-.48.91c0,.23.4.55.69.64A8,8,0,0,0,149.14,196Zm23.14-6.79-.07-.18a17.13,17.13,0,0,0-2,.8c-1.63.89-3.16,2-4.84,2.74q-4.22,2-8.57,3.62c-2.34.89-4.79,1.52-7.16,2.35a8.91,8.91,0,0,0-2.27,1.31c-.53.39-.36.91.29,1.05A6.29,6.29,0,0,0,149,201a22.22,22.22,0,0,0,6.87-1.43,79.84,79.84,0,0,0,11-4.56,30.92,30.92,0,0,0,6.22-3.85,2,2,0,0,0,.7-1.43c-.08-.59-.8-.61-1.37-.57Zm-52.45-32a3,3,0,0,0-.46.79,10.72,10.72,0,0,0-.31,2.1v7.12a6.68,6.68,0,0,0,.25,1.59,1.36,1.36,0,0,0,1.56,1c.87-.15,1.74-.25,2.6-.45,1.25-.29,2.47-.65,3.65-1,.07-2-5.37-10.27-7.29-11.12Zm81-128.73a15.78,15.78,0,0,0,2-.79c2.44-1.35,4.89-2.68,7.25-4.15a30.38,30.38,0,0,0,3.38-2.73c.16-.13.19-.42.28-.63a2,2,0,0,0-.64-.07c-1.5.34-3,.61-4.47,1.09-3,1-5.88,2.06-8.81,3.14a11.45,11.45,0,0,0-1.63.92,16.77,16.77,0,0,0,1.08,2.13c.4.52.75,1.17,1.6,1.12Zm-12.9,250.77c1.67-.13,3.28-.2,4.88-.4a7.48,7.48,0,0,0,2.2-.74,1.21,1.21,0,0,0,.6-.89.85.85,0,0,0-.77-.92c-1.26-.15-2.51-.48-3.77-.54-2-.09-4,0-6,0a7.36,7.36,0,0,0-1.73.29,1.85,1.85,0,0,0-1.16,1.9c.07.79.79.85,1.32.92,1.52.21,3,.29,4.47.42Z" transform="translate(0 0)"/>
</svg>
