<svg xmlns="http://www.w3.org/2000/svg" xmlns:xlink="http://www.w3.org/1999/xlink" viewBox="0 0 291 295.08">
  <defs>
        <style>
      .a {
        fill: none;
      }

      .b {
        fill: #00427e;
      }

      .c {
        fill: #9ddcf9;
        opacity: 0.4;
        isolation: isolate;
      }

      .d {
        fill: #fd0;
      }

      .e {
        fill: url(#a);
      }
    </style>
    <pattern id="a" data-name="ジャイブ" width="108.34" height="109.64" patternTransform="matrix(0, -1.47, -1.47, 0, -303.28, 57.09)" patternUnits="userSpaceOnUse" viewBox="0 0 108.34 109.64">
      <rect class="a" width="108.34" height="109.64"/>
      <rect class="a" width="108.34" height="109.64"/>
      <path class="b" d="M87.47-34.7a.25.25,0,0,0,.25.21c12.91.13,24.75,3.27,34,11.51-8-5.56-22.94-7.51-31.53-3.62a.25.25,0,0,0-.13.33.25.25,0,0,0,.24.15c10.68-.29,19.28,3,26,9-6.87.42-12.57,4.74-12.56,9.84A.25.25,0,0,0,104-7a.25.25,0,0,0,.23-.15c1.12-2.49,4.75-3.78,8.58-2.88,4.18,1,7,4.19,6.3,7.16-.47,2-2.44,3.4-5,3.79a.25.25,0,0,0,0,.5,17.43,17.43,0,0,0,3.32,0c6.49-.62,11.51-4.6,11.95-9.18,4.71.55,8.88,3.16,10.38,6.77a.25.25,0,0,0,.31.17.25.25,0,0,0,.18-.25c.38-4.75-1.26-7.84-5-10.85a21.81,21.81,0,0,0,17.25-.54.25.25,0,0,0,.13-.33.25.25,0,0,0-.23-.15A16.25,16.25,0,0,1,140.66-18c18.25,5.13,33.09-6.2,28-23a.25.25,0,0,0-.31-.17.25.25,0,0,0-.18.22c-.92,9.71-7.7,16.12-17.86,17.08a17.46,17.46,0,0,0,11.56-15.53.25.25,0,0,0-.22-.27.25.25,0,0,0-.26.15,16.75,16.75,0,0,1-14.16,9.81c6.33-2.58,10.4-8.6,11.57-16.42a.25.25,0,0,0-.16-.32.25.25,0,0,0-.32.17c-3.87,7.58-12.16,12.79-22.45,8.81-10.62-4.11-15.27-16.39-16.3-25a.26.26,0,0,0-.24-.22.25.25,0,0,0-.26.2c-3.72,15.69,3.58,31.95,16.64,38.84-7.1-2-13.44-6.26-17-13.35-8.29-1-14-3.86-16.86-9.24a.25.25,0,0,0-.31-.17.25.25,0,0,0-.17.31c.18,2.11.94,6.33,4.07,8.27-7,0-12.51.89-17.8,3A.26.26,0,0,0,87.47-34.7ZM117-88.17a.25.25,0,0,1-.35,0,.25.25,0,0,1,0-.3c1.62-2.8.14-6.81-3.05-6.81-5.72,0-8.47,10.77-7.6,20.59,2.16-5.76,4-8.05,7.35-10.79a.25.25,0,0,1,.35,0,.25.25,0,0,1,0,.32,46.55,46.55,0,0,0-5.9,24.09c1.46-6,3.2-9.32,8.13-14.38a.25.25,0,0,1,.35,0,.25.25,0,0,1,.06.3A44.25,44.25,0,0,0,115.42-41a.25.25,0,0,1-.13.33.25.25,0,0,1-.22,0c-5.21-2.55-8.26-4.23-12.75-10.39,1.36-7.4.23-11-3.17-17.2C103-58.3,101-44.36,90.92-38.62a.25.25,0,0,1-.35,0,.25.25,0,0,1,0-.35,17.91,17.91,0,0,0,4.16-17.93C96.3-46.56,87.17-37.83,77-37.83c-9.6,0-16.15-7.51-15.61-14.94s5.44-11,9.67-12.5a.25.25,0,0,1,.34.09.25.25,0,0,1-.07.33c-5.61,5.69-6.38,16.49,3.58,19.76C69-50.15,71.21-61.92,80.59-62.81a.25.25,0,0,1,.3.19.25.25,0,0,1-.14.28,8,8,0,0,0-3.68,6.57c0,4.67,3.42,6.51,5.68,6.51,3.42,0,6.26-3.26,6.26-8.18,0-5.84-5.26-10.68-12-11.44s-12.78,2.15-15.75,6.46a.25.25,0,0,1-.34.08.25.25,0,0,1-.11-.29A17.14,17.14,0,0,1,81.63-75a17.14,17.14,0,0,1,6.07,2.9c-6.61-7.5-17-7.61-25.72.09a.25.25,0,0,1-.35.05.25.25,0,0,1,0-.35c2.67-5.41,9.25-11.82,18.61-10.88,8.56.86,13.52,9,14.52,15.69.56-8.52-1.39-14.54-8.75-20.15a.25.25,0,0,1-.11-.34.25.25,0,0,1,.33-.11c6.79,2,12.23,5.43,15,12.54,0-6.16-2.14-12.37-7.53-16.51a.25.25,0,0,1-.11-.34.25.25,0,0,1,.33-.11c3.45,1,6.17,2.49,8.14,5.19,1.31-11.1,6.52-17.69,12.53-17.69,4.12,0,7.2,3,7.2,7.87A11.37,11.37,0,0,1,117-88.17ZM216.23,3.45c-3.16,3.9-9.54,5.39-16.43,4a22.7,22.7,0,0,1-1.61,11.48.25.25,0,0,1-.48-.12C198.09,10,193.09,3,184.26-.1c6.91,4.76,8.93,14.19,5.64,19.07a.25.25,0,0,1-.46-.19c.37-2.06-.61-4.68-2.71-6.73-2.91-2.81-6.85-3.45-8.81-1.43s-1.2,5.95,1.71,8.76A9.68,9.68,0,0,0,183,21.56a.25.25,0,0,1-.06.49c-6.39.55-10.77-3.25-13.52-7.88s-7.57-8.41-13.21-7.67A.25.25,0,0,1,156,6,11,11,0,0,1,165.91,5c-5.79-4.91-14-7.74-21.84-5.23a.25.25,0,0,1-.33-.14.25.25,0,0,1,.06-.27c5.91-6.56,17.69-6.7,25.11-1.37-3-4.32-7.07-7.48-14.29-8.48a.25.25,0,0,1-.23-.27.25.25,0,0,1,.18-.22c8.29-3.08,16.6,0,23.45,8.21a26.34,26.34,0,0,0-14.77-14,.25.25,0,0,1-.16-.28.25.25,0,0,1,.24-.21c3.94-.08,7.49.86,12.27,3.57-3.5-5.65-2.73-15.65,2.4-22.26a.25.25,0,0,1,.35-.07.25.25,0,0,1,.1.27c-1.18,7.2,1.3,15.33,5.61,19.64A18.18,18.18,0,0,1,190-35.77a.25.25,0,0,1,.26,0,.26.26,0,0,1,.16.2c1.23,9.42,11.77,19,20.6,19.78a.25.25,0,0,1,.25.25.25.25,0,0,1-.25.25,20.83,20.83,0,0,1-12.39-1A21.79,21.79,0,0,0,208.14-10a.25.25,0,0,1,.22.28.25.25,0,0,1-.28.22,20.42,20.42,0,0,1-12.73-3.54A31.44,31.44,0,0,0,214.8.34a.25.25,0,1,1,0,.5c-11.92,1.3-21.75-3.32-28.22-11.92,1.65,4.9,6.37,9.76,12.95,12.62,5.85,2.55,11.85,2.95,16.42,1.51a.25.25,0,0,1,.27.4Zm-52.9-75.57c4.81,10.49,4.46,18.69.59,29.05a.25.25,0,0,1-.29.19.25.25,0,0,1-.2-.29c.62-12.62-2.83-21.65-10.3-27.81,8.25,9.85,4.35,29.56-8.82,29.56-9.59,0-17.52-8-19.45-17.52a.25.25,0,0,1,.15-.32.25.25,0,0,1,.32.15c2.84,4.76,7.41,7.85,12.46,7.85,8.13,0,10.54-6.47,10.54-11,0-6.19-4.93-11.34-8.71-11.34a4.94,4.94,0,0,0-5,4.88v.05A8.87,8.87,0,0,0,141-60.52a.25.25,0,0,1,.21.29.25.25,0,0,1-.29.21,10.47,10.47,0,0,1-9.63-5.57,17.39,17.39,0,0,0,.64,7.72.25.25,0,0,1-.14.32.25.25,0,0,1-.3-.09c-7.36-9.39-3.84-25.63,2-32.36-5.53,4-10.42,12.63-10.34,24.39a.25.25,0,0,1-.19.29.25.25,0,0,1-.3-.19h0c-4.11-10.25-1.93-29.25,9.28-39.85a20.13,20.13,0,0,0-9.12.69.25.25,0,0,1-.34-.1.25.25,0,0,1,.1-.34h0c4.09-3.46,9.81-4.54,15.27-4.54-4.7,5.5-3.14,16.55,4.36,16.55,5.35,0,7.78-8.3,3.65-12.78a.25.25,0,0,1,0-.35.25.25,0,0,1,.27-.06c4.78,1.65,9.95,5.79,9.95,11,0,5-4.81,9.39-11.8,9.05,8.82,2.51,18.05-.27,22.88-6.25a.25.25,0,0,1,.31-.07.26.26,0,0,1,.13.29c-2.79,10.72-12,15.2-23.44,13.71,9.28,3.76,23.25.48,29.42-7.31a.25.25,0,0,1,.34-.08.25.25,0,0,1,.11.29c-1.51,6.64-5,11.59-10.76,13.54Z"/>
      <path class="c" d="M189.67-52.83a.25.25,0,0,0-.25-.21c-12.91-.14-24.75-3.27-34-11.52,8,5.56,22.94,7.51,31.53,3.62a.26.26,0,0,0,.11-.35.26.26,0,0,0-.22-.14c-10.68.29-19.28-3-26-9,6.87-.42,12.57-4.74,12.56-9.85a.25.25,0,0,0-.25-.25.25.25,0,0,0-.23.15c-1.12,2.49-4.75,3.78-8.58,2.88-4.18-1-7-4.19-6.3-7.17.47-2,2.44-3.4,5-3.79a.25.25,0,0,0,.25-.25A.25.25,0,0,0,163-89a17.42,17.42,0,0,0-3.32,0c-6.49.62-11.51,4.59-11.95,9.18-4.71-.55-8.88-3.16-10.38-6.77a.25.25,0,0,0-.31-.17.25.25,0,0,0-.18.25c-.38,4.75,1.26,7.84,5,10.85a21.82,21.82,0,0,0-17.26.54.26.26,0,0,0-.14.28.25.25,0,0,0,.24.2,16.26,16.26,0,0,1,11.73,5.07c-18.26-5.13-33.09,6.2-28,23.05a.25.25,0,0,0,.29.2.25.25,0,0,0,.2-.2c.92-9.71,7.7-16.12,17.86-17.08A17.46,17.46,0,0,0,115.26-48a.25.25,0,0,0,.22.27.25.25,0,0,0,.26-.15,16.75,16.75,0,0,1,14.16-9.81c-6.33,2.58-10.4,8.6-11.57,16.42a.25.25,0,0,0,.17.32.25.25,0,0,0,.32-.17C122.68-48.73,131-53.94,141.26-50c10.62,4.11,15.27,16.38,16.3,25a.25.25,0,0,0,.25.25.25.25,0,0,0,.25-.25c3.72-15.69-3.58-31.95-16.64-38.84,7.1,2,13.44,6.26,17,13.35,8.29,1,14,3.86,16.86,9.24a.25.25,0,0,0,.31.17.25.25,0,0,0,.17-.31c-.18-2.11-.94-6.33-4.07-8.27,7,0,12.51-.89,17.8-3A.25.25,0,0,0,189.67-52.83ZM160.18.64a.25.25,0,0,1,.36.34c-1.62,2.8-.14,6.81,3.05,6.81,5.72,0,8.47-10.77,7.6-20.59-2.16,5.75-4,8.05-7.35,10.79a.25.25,0,0,1-.35,0,.25.25,0,0,1,0-.31,46.55,46.55,0,0,0,5.9-24.08c-1.46,6-3.2,9.32-8.13,14.38a.25.25,0,0,1-.35,0,.25.25,0,0,1-.06-.3,44.25,44.25,0,0,0,.95-34.26.25.25,0,0,1,.13-.33.25.25,0,0,1,.22,0c5.21,2.55,8.26,4.23,12.75,10.39-1.36,7.4-.23,11,3.17,17.19-3.94-9.92-1.84-23.89,8.19-29.59a.25.25,0,0,1,.35,0,.25.25,0,0,1,0,.35h0a17.9,17.9,0,0,0-4.16,17.93C180.85-41,190-49.68,200.16-49.68c9.6,0,16.15,7.51,15.61,14.94s-5.44,11-9.67,12.5a.25.25,0,0,1-.34-.09.25.25,0,0,1,.07-.33c5.61-5.69,6.38-16.49-3.58-19.76,5.86,5.06,3.69,16.83-5.69,17.72a.25.25,0,0,1-.26-.17.25.25,0,0,1,.1-.3,8,8,0,0,0,3.68-6.57c0-4.67-3.42-6.51-5.68-6.51-3.42,0-6.26,3.26-6.26,8.18,0,5.84,5.26,10.68,12,11.43s12.78-2.15,15.75-6.46a.25.25,0,0,1,.34-.12.25.25,0,0,1,.13.34,17.14,17.14,0,0,1-20.82,12.42,17.14,17.14,0,0,1-6.06-2.89c6.61,7.5,17,7.61,25.72-.09a.25.25,0,0,1,.35,0,.25.25,0,0,1,0,.28C212.91-9.74,206.33-3.33,197-4.27c-8.56-.86-13.52-9-14.52-15.69-.56,8.52,1.39,14.54,8.75,20.14a.25.25,0,0,1,.07.32.25.25,0,0,1-.3.13c-6.79-2-12.23-5.42-15-12.54C176-5.75,178.11.46,183.5,4.6a.25.25,0,1,1-.22.45c-3.45-1-6.17-2.49-8.14-5.18-1.31,11.1-6.52,17.69-12.53,17.69-4.12,0-7.21-3-7.21-7.87A11.37,11.37,0,0,1,160.18.64ZM61-91c3.16-3.9,9.54-5.39,16.43-4A22.71,22.71,0,0,1,79-106.46a.25.25,0,0,1,.33-.14.25.25,0,0,1,.15.26c-.37,8.77,4.62,15.84,13.45,18.91C86-92.18,84-101.62,87.29-106.49a.25.25,0,0,1,.34-.1.25.25,0,0,1,.12.29c-.37,2.06.61,4.68,2.71,6.72,2.91,2.81,6.85,3.45,8.81,1.43s1.2-5.95-1.71-8.76a9.67,9.67,0,0,0-3.45-2.19.25.25,0,0,1-.11-.26.25.25,0,0,1,.23-.22c6.39-.55,10.77,3.25,13.52,7.88S115.32-93.29,121-94a.25.25,0,0,1,.3.19.25.25,0,0,1-.14.28,11,11,0,0,1-9.86,1.05c5.8,4.91,14,7.74,21.84,5.23a.25.25,0,0,1,.33.14.25.25,0,0,1-.06.27c-5.91,6.56-17.69,6.7-25.11,1.37,3,4.32,7.07,7.49,14.29,8.48a.25.25,0,0,1,.23.27.25.25,0,0,1-.18.22c-8.29,3.08-16.6,0-23.45-8.22a26.34,26.34,0,0,0,14.77,14,.25.25,0,0,1,.17.31.25.25,0,0,1-.25.18c-3.94.08-7.49-.86-12.27-3.57,3.51,5.69,2.74,15.64-2.37,22.26a.25.25,0,0,1-.35.07.25.25,0,0,1-.1-.27c1.18-7.2-1.3-15.33-5.61-19.64a18.17,18.17,0,0,1-5.9,19.64.25.25,0,0,1-.35,0,.25.25,0,0,1-.07-.15c-1.23-9.42-11.77-19-20.6-19.78A.25.25,0,0,1,66-72a.25.25,0,0,1,.25-.25,20.84,20.84,0,0,1,12.39,1A21.81,21.81,0,0,0,69-77.36a.25.25,0,0,1-.22-.28.25.25,0,0,1,.28-.22,20.42,20.42,0,0,1,12.71,3.5A31.45,31.45,0,0,0,62.34-87.87a.25.25,0,0,1-.25-.25.25.25,0,0,1,.25-.25C74.26-89.67,84.09-85,90.56-76.45c-1.65-4.9-6.37-9.76-12.95-12.62C71.76-91.62,65.76-92,61.19-90.58a.25.25,0,0,1-.32-.16.25.25,0,0,1,0-.24Zm52.86,75.62c-4.81-10.49-4.46-18.69-.59-29.05a.25.25,0,0,1,.3-.19.25.25,0,0,1,.19.29h0c-.62,12.62,2.83,21.65,10.3,27.81-8.25-9.85-4.35-29.56,8.82-29.56,9.59,0,17.52,8,19.46,17.53a.25.25,0,0,1-.15.32.25.25,0,0,1-.32-.15c-2.84-4.76-7.41-7.85-12.46-7.85-8.13,0-10.54,6.47-10.54,11,0,6.19,4.93,11.34,8.71,11.34a4.94,4.94,0,0,0,5-4.88v-.05A8.88,8.88,0,0,0,136.21-27a.25.25,0,0,1-.21-.29.25.25,0,0,1,.29-.21,10.47,10.47,0,0,1,9.63,5.57,17.41,17.41,0,0,0-.64-7.72.25.25,0,0,1,.14-.32.25.25,0,0,1,.3.09c7.36,9.39,3.84,25.62-2,32.36,5.53-4,10.42-12.63,10.34-24.39a.25.25,0,0,1,.2-.29.25.25,0,0,1,.29.19h0c4.11,10.25,1.93,29.25-9.28,39.85a20.1,20.1,0,0,0,9.12-.69.25.25,0,1,1,.24.44c-4.09,3.46-9.81,4.54-15.27,4.54,4.7-5.5,3.14-16.55-4.35-16.55-5.35,0-7.78,8.3-3.65,12.78a.25.25,0,0,1-.27.41c-4.78-1.66-9.95-5.79-9.95-11,0-5,4.81-9.39,11.8-9.05C124.11-3.73,114.88-1,110.05,5a.25.25,0,0,1-.44-.22c2.79-10.71,12-15.2,23.44-13.71-9.28-3.76-23.25-.48-29.42,7.31a.25.25,0,0,1-.34.08.25.25,0,0,1-.11-.29C104.6-8.51,108.1-13.45,113.86-15.36Z"/>
      <path class="b" d="M-20.86-34.7a.25.25,0,0,0,.25.21c12.91.13,24.75,3.27,34,11.51-8-5.56-22.94-7.51-31.53-3.62a.25.25,0,0,0-.14.29.25.25,0,0,0,.25.2c10.68-.29,19.28,3,26,9C1.1-16.69-4.6-12.37-4.59-7.27a.25.25,0,0,0,.2.25.25.25,0,0,0,.28-.14C-3-9.65.64-10.94,4.47-10c4.18,1,7,4.19,6.3,7.16-.47,2-2.44,3.4-5,3.79a.25.25,0,0,0,0,.5,17.43,17.43,0,0,0,3.32,0C15.58.79,20.6-3.19,21-7.77c4.71.55,8.88,3.16,10.38,6.77a.25.25,0,0,0,.31.17.25.25,0,0,0,.18-.25c.38-4.75-1.26-7.84-5-10.85a21.81,21.81,0,0,0,17.25-.54.25.25,0,0,0,.13-.33.25.25,0,0,0-.23-.15A16.25,16.25,0,0,1,32.33-18c18.25,5.13,33.09-6.2,28-23a.25.25,0,0,0-.31-.17.25.25,0,0,0-.18.22C58.92-31.31,52.14-24.9,42-23.94A17.46,17.46,0,0,0,53.54-39.47a.25.25,0,0,0-.22-.27.25.25,0,0,0-.26.15A16.75,16.75,0,0,1,38.9-29.78c6.33-2.58,10.4-8.6,11.57-16.42a.25.25,0,0,0-.19-.3.25.25,0,0,0-.28.14c-3.87,7.58-12.16,12.79-22.45,8.81-10.62-4.11-15.27-16.39-16.3-25a.26.26,0,0,0-.24-.22.25.25,0,0,0-.26.2C7-47,14.32-30.7,27.38-23.81c-7.1-2-13.44-6.26-17-13.35-8.29-1-14-3.86-16.86-9.24a.25.25,0,0,0-.3-.13.25.25,0,0,0-.22.27c.18,2.11.94,6.33,4.07,8.27-7,0-12.51.89-17.8,3A.26.26,0,0,0-20.86-34.7ZM8.62-88.17a.25.25,0,0,1-.35,0,.25.25,0,0,1,0-.3c1.62-2.8.14-6.81-3.05-6.81-5.72,0-8.47,10.77-7.6,20.59,2.16-5.76,4-8.05,7.35-10.79a.25.25,0,0,1,.35,0,.25.25,0,0,1,0,.32A46.55,46.55,0,0,0-.55-61.12c1.46-6,3.2-9.32,8.13-14.38a.25.25,0,0,1,.35,0,.25.25,0,0,1,.06.3A44.25,44.25,0,0,0,7-40.95a.25.25,0,0,1-.13.33.25.25,0,0,1-.22,0C1.44-43.18-1.61-44.86-6.1-51c1.36-7.4.23-11-3.17-17.2,3.94,9.92,1.84,23.89-8.19,29.59a.25.25,0,0,1-.32-.06.25.25,0,0,1,0-.33,17.91,17.91,0,0,0,4.16-17.93c1.53,10.39-7.6,19.12-17.78,19.12-9.6,0-16.15-7.51-15.61-14.94s5.44-11,9.67-12.5a.26.26,0,0,1,.3.1.26.26,0,0,1,0,.32c-5.61,5.69-6.38,16.49,3.58,19.76-5.86-5.06-3.69-16.83,5.69-17.72a.25.25,0,0,1,.26.17.25.25,0,0,1-.1.3,8,8,0,0,0-3.68,6.57c0,4.67,3.42,6.51,5.68,6.51,3.42,0,6.26-3.26,6.26-8.18,0-5.84-5.26-10.68-12-11.44s-12.78,2.15-15.75,6.46a.25.25,0,0,1-.31.09.25.25,0,0,1-.14-.29A17.14,17.14,0,0,1-26.73-75a17.14,17.14,0,0,1,6.07,2.9c-6.61-7.5-17-7.61-25.72.09a.25.25,0,0,1-.32,0,.25.25,0,0,1-.07-.31c2.67-5.41,9.25-11.82,18.61-10.88,8.56.86,13.52,9,14.52,15.69.56-8.52-1.39-14.54-8.75-20.15a.26.26,0,0,1-.07-.32.26.26,0,0,1,.3-.13c6.79,2,12.23,5.43,15,12.54,0-6.16-2.14-12.37-7.53-16.51a.25.25,0,0,1-.07-.31.25.25,0,0,1,.3-.13c3.45,1,6.17,2.49,8.14,5.19C-5-98.47.22-105.06,6.23-105.06c4.13,0,7.21,3,7.21,7.87A11.37,11.37,0,0,1,8.62-88.17ZM107.85,3.45c-3.16,3.9-9.54,5.39-16.43,4a22.7,22.7,0,0,1-1.61,11.48.25.25,0,0,1-.48-.12C89.7,10,84.71,3,75.88-.1,82.79,4.66,84.81,14.09,81.52,19a.25.25,0,0,1-.46-.19c.37-2.06-.61-4.68-2.71-6.73-2.91-2.81-6.85-3.45-8.81-1.43s-1.2,5.95,1.71,8.76a9.68,9.68,0,0,0,3.45,2.18.25.25,0,0,1-.06.49c-6.41.59-10.79-3.24-13.54-7.87S53.53,5.77,47.89,6.51A.25.25,0,0,1,47.73,6,11,11,0,0,1,57.59,5C51.8.08,43.59-2.75,35.75-.24a.25.25,0,0,1-.33-.14.25.25,0,0,1,.06-.27C41.39-7.21,53.17-7.35,60.59-2c-3-4.32-7.07-7.48-14.29-8.48a.25.25,0,0,1-.23-.27.25.25,0,0,1,.18-.22c8.29-3.08,16.6,0,23.45,8.21a26.34,26.34,0,0,0-14.77-14,.25.25,0,0,1-.16-.28.25.25,0,0,1,.24-.21c3.94-.08,7.49.86,12.27,3.57C63.77-19.36,64.53-29.36,69.64-36A.25.25,0,0,1,70-36a.25.25,0,0,1,.1.27c-1.18,7.2,1.3,15.33,5.61,19.64a18.18,18.18,0,0,1,5.9-19.64.25.25,0,0,1,.26,0,.26.26,0,0,1,.16.2c1.23,9.42,11.77,19,20.6,19.78a.25.25,0,0,1,.25.25.25.25,0,0,1-.25.25,20.83,20.83,0,0,1-12.39-1A21.79,21.79,0,0,0,99.78-10a.25.25,0,0,1,.22.28.25.25,0,0,1-.28.22A20.42,20.42,0,0,1,87-13.17,31.44,31.44,0,0,0,106.43.34a.25.25,0,0,1,0,.5C94.51,2.14,84.68-2.48,78.21-11.08c1.65,4.9,6.37,9.76,12.95,12.62C97,4.09,103,4.49,107.58,3.05a.25.25,0,0,1,.27.4ZM55-72.12c4.81,10.49,4.46,18.69.59,29.05a.25.25,0,0,1-.3.19.25.25,0,0,1-.19-.29h0c.62-12.62-2.83-21.65-10.3-27.81C53-61.13,49.1-41.42,35.93-41.42c-9.59,0-17.52-8-19.46-17.52a.25.25,0,0,1,.15-.32.25.25,0,0,1,.32.15c2.84,4.76,7.41,7.85,12.46,7.85,8.13,0,10.54-6.47,10.54-11,0-6.19-4.93-11.34-8.71-11.34a4.94,4.94,0,0,0-5,4.88v.05a8.87,8.87,0,0,0,6.38,8.16.25.25,0,0,1,.22.29.25.25,0,0,1-.28.21,10.47,10.47,0,0,1-9.63-5.57,17.39,17.39,0,0,0,.64,7.72.26.26,0,0,1-.13.3.25.25,0,0,1-.32-.07C15.74-67,19.26-83.27,25.1-90c-5.53,4-10.42,12.63-10.34,24.39a.25.25,0,0,1-.19.29.25.25,0,0,1-.3-.19c-4.17-10.25-2-29.24,9.22-39.85a20.13,20.13,0,0,0-9.13.69.25.25,0,0,1-.34-.1.25.25,0,0,1,.1-.34h0c4.09-3.46,9.81-4.54,15.27-4.54-4.7,5.5-3.14,16.55,4.36,16.55,5.35,0,7.78-8.3,3.65-12.78a.25.25,0,0,1,0-.35.25.25,0,0,1,.27-.06c4.78,1.65,10,5.79,10,11,0,5-4.81,9.39-11.8,9.05,8.82,2.51,18-.27,22.88-6.25a.25.25,0,0,1,.31-.07.26.26,0,0,1,.13.29c-2.79,10.72-12,15.2-23.44,13.71C45-74.8,59-78.08,65.12-85.87a.25.25,0,0,1,.34-.08.25.25,0,0,1,.11.29C64.2-79,60.7-74.07,54.94-72.12Z"/>
      <path class="c" d="M81.33-52.83a.25.25,0,0,0-.25-.21c-12.91-.14-24.75-3.27-34-11.52,8,5.56,22.94,7.51,31.53,3.62a.26.26,0,0,0,.11-.35.26.26,0,0,0-.22-.14c-10.68.29-19.28-3-26-9,6.87-.42,12.57-4.74,12.56-9.85a.25.25,0,0,0-.25-.25.25.25,0,0,0-.23.15C63.46-77.89,59.83-76.6,56-77.5c-4.18-1-7-4.19-6.3-7.17.47-2,2.44-3.4,5-3.79a.25.25,0,0,0,.25-.25A.25.25,0,0,0,54.7-89a17.42,17.42,0,0,0-3.32,0c-6.49.62-11.51,4.59-12,9.18-4.71-.55-8.88-3.16-10.38-6.77a.25.25,0,0,0-.31-.17.25.25,0,0,0-.18.25c-.38,4.75,1.26,7.84,5,10.85a21.82,21.82,0,0,0-17.26.54.26.26,0,0,0-.14.28.25.25,0,0,0,.24.2,16.26,16.26,0,0,1,11.73,5.07C9.82-74.61-5-63.28.12-46.43a.25.25,0,0,0,.29.2.25.25,0,0,0,.2-.2c.92-9.71,7.7-16.12,17.86-17.08A17.46,17.46,0,0,0,6.92-48a.25.25,0,0,0,.22.27.25.25,0,0,0,.26-.15,16.75,16.75,0,0,1,14.16-9.81c-6.33,2.58-10.4,8.6-11.57,16.42a.25.25,0,0,0,.17.32.25.25,0,0,0,.31-.17C14.34-48.72,22.63-53.93,32.92-50c10.62,4.11,15.27,16.38,16.3,25a.25.25,0,0,0,.25.25.25.25,0,0,0,.25-.25c3.72-15.69-3.58-31.95-16.64-38.84,7.1,2,13.44,6.26,17,13.35,8.29,1,14,3.86,16.86,9.24a.25.25,0,0,0,.31.17.25.25,0,0,0,.17-.31c-.18-2.11-.94-6.33-4.07-8.27,7,0,12.51-.89,17.8-3A.25.25,0,0,0,81.33-52.83ZM51.84.64A.25.25,0,0,1,52.2,1c-1.62,2.8-.14,6.81,3,6.81C61,7.79,63.72-3,62.85-12.8,60.69-7.05,58.85-4.75,55.5-2a.25.25,0,0,1-.35,0,.25.25,0,0,1,0-.31,46.55,46.55,0,0,0,5.88-24c-1.46,6-3.2,9.32-8.13,14.38a.25.25,0,0,1-.35,0,.25.25,0,0,1-.06-.3,44.25,44.25,0,0,0,1-34.26.25.25,0,0,1,.13-.33.25.25,0,0,1,.22,0C59-44.36,62-42.67,66.52-36.51c-1.36,7.4-.23,11,3.17,17.19-3.94-9.92-1.84-23.89,8.19-29.59a.25.25,0,0,1,.35,0,.25.25,0,0,1,0,.35h0A17.9,17.9,0,0,0,74-30.58C72.47-41,81.6-49.69,91.78-49.69c9.6,0,16.15,7.51,15.61,14.94s-5.44,11-9.67,12.5a.25.25,0,0,1-.34-.09.25.25,0,0,1,.07-.33c5.61-5.69,6.38-16.49-3.58-19.76,5.86,5.06,3.69,16.83-5.69,17.72a.25.25,0,0,1-.26-.17.25.25,0,0,1,.1-.3,8,8,0,0,0,3.68-6.57c0-4.67-3.42-6.51-5.68-6.51-3.42,0-6.26,3.26-6.26,8.18,0,5.84,5.26,10.68,12,11.43s12.78-2.15,15.75-6.46a.25.25,0,0,1,.34-.08.25.25,0,0,1,.11.29A17.14,17.14,0,0,1,87.13-12.51a17.14,17.14,0,0,1-6-2.85c6.61,7.5,17,7.61,25.72-.09a.25.25,0,0,1,.35,0,.25.25,0,0,1,0,.28C104.58-9.77,98-3.36,88.64-4.29c-8.56-.86-13.52-9-14.52-15.69C73.56-11.46,75.51-5.44,82.87.16a.25.25,0,0,1,.07.32.25.25,0,0,1-.3.13c-6.79-2-12.23-5.42-15-12.54,0,6.16,2.14,12.37,7.53,16.51a.25.25,0,0,1-.22.45C71.5,4,68.78,2.54,66.81-.15c-1.31,11.1-6.52,17.69-12.53,17.69-4.12,0-7.21-3-7.21-7.87A11.37,11.37,0,0,1,51.84.64ZM-47.39-91c3.16-3.9,9.54-5.39,16.43-4a22.71,22.71,0,0,1,1.61-11.49.26.26,0,0,1,.29-.14.26.26,0,0,1,.19.26c-.37,8.77,4.62,15.84,13.45,18.91-6.91-4.76-8.93-14.19-5.64-19.06a.26.26,0,0,1,.31-.09.25.25,0,0,1,.15.28c-.37,2.06.61,4.68,2.71,6.72C-15-96.78-11-96.14-9.08-98.16s1.2-5.95-1.71-8.76a9.67,9.67,0,0,0-3.45-2.19.25.25,0,0,1-.17-.27.25.25,0,0,1,.23-.22c6.39-.55,10.77,3.25,13.52,7.88s7.57,8.41,13.21,7.67a.25.25,0,0,1,.3.19.25.25,0,0,1-.14.28,11,11,0,0,1-9.86,1.05c5.79,4.91,14,7.74,21.84,5.23a.25.25,0,0,1,.33.14.25.25,0,0,1-.06.27C19-80.33,7.27-80.19-.15-85.52,2.85-81.2,6.92-78,14.14-77a.25.25,0,0,1,.23.27.25.25,0,0,1-.18.22c-8.29,3.08-16.6,0-23.45-8.22a26.34,26.34,0,0,0,14.77,14,.25.25,0,0,1,.17.31.25.25,0,0,1-.25.18c-3.94.08-7.49-.86-12.27-3.57,3.51,5.69,2.74,15.64-2.37,22.26a.26.26,0,0,1-.3.08.26.26,0,0,1-.15-.28C-8.48-59-11-67.12-15.27-71.43a18.17,18.17,0,0,1-5.9,19.64.25.25,0,0,1-.26,0,.26.26,0,0,1-.16-.2c-1.23-9.42-11.77-19-20.6-19.78a.25.25,0,0,1-.23-.24.25.25,0,0,1,.2-.26,20.84,20.84,0,0,1,12.39,1,21.81,21.81,0,0,0-9.53-6.09.25.25,0,0,1-.18-.27.25.25,0,0,1,.23-.22,20.42,20.42,0,0,1,12.74,3.49A31.45,31.45,0,0,0-46-87.87a.26.26,0,0,1-.2-.26.25.25,0,0,1,.2-.23c11.92-1.3,21.75,3.32,28.22,11.92-1.65-4.9-6.37-9.76-12.95-12.62-5.85-2.55-11.85-2.95-16.42-1.51a.25.25,0,0,1-.29-.1A.25.25,0,0,1-47.39-91ZM5.52-15.36C.71-25.85,1.06-34.05,4.93-44.41a.25.25,0,0,1,.3-.19.25.25,0,0,1,.19.29C4.8-31.69,8.25-22.66,15.72-16.5c-8.25-9.85-4.35-29.56,8.82-29.56,9.59,0,17.52,8,19.46,17.53a.25.25,0,0,1-.15.32.25.25,0,0,1-.32-.15c-2.84-4.76-7.41-7.85-12.46-7.85-8.13,0-10.54,6.47-10.54,11,0,6.19,4.93,11.34,8.71,11.34a4.94,4.94,0,0,0,5-4.88v-.05A8.88,8.88,0,0,0,27.86-27a.25.25,0,0,1-.22-.29.25.25,0,0,1,.28-.21,10.47,10.47,0,0,1,9.63,5.57A17.41,17.41,0,0,0,37-29.66a.25.25,0,0,1,.14-.32.25.25,0,0,1,.3.09c7.36,9.39,3.84,25.62-2,32.36,5.53-4,10.42-12.63,10.34-24.39a.25.25,0,0,1,.19-.29.25.25,0,0,1,.3.19C50.38-11.77,48.2,7.23,37,17.83a20.1,20.1,0,0,0,9.13-.69.25.25,0,0,1,.24.44c-4.09,3.46-9.81,4.54-15.27,4.54,4.7-5.5,3.14-16.55-4.35-16.55-5.35,0-7.78,8.3-3.65,12.78a.25.25,0,0,1-.27.41C18,17.1,12.87,13,12.87,7.76c0-5,4.81-9.39,11.8-9.05C15.85-3.79,6.62-1,1.79,5a.25.25,0,0,1-.44-.22C4.14-6,13.35-10.46,24.79-9,15.51-12.73,1.54-9.45-4.63-1.66a.25.25,0,0,1-.31.07.25.25,0,0,1-.14-.28C-3.73-8.51-.24-13.45,5.52-15.36Z"/>
      <path class="b" d="M87.47,75a.25.25,0,0,0,.25.21c12.91.13,24.75,3.27,34,11.51-8-5.56-22.94-7.51-31.53-3.62a.25.25,0,0,0,.11.48c10.68-.29,19.28,3,26,9-6.87.42-12.57,4.74-12.56,9.84a.25.25,0,0,0,.48.1c1.12-2.49,4.75-3.78,8.58-2.88,4.18,1,7,4.19,6.3,7.16-.47,2-2.44,3.4-5,3.79a.26.26,0,0,0,0,.51,17.43,17.43,0,0,0,3.32,0c6.49-.62,11.51-4.6,12-9.18,4.71.55,8.88,3.16,10.38,6.77a.25.25,0,0,0,.49-.08c.38-4.75-1.26-7.84-5-10.85a21.81,21.81,0,0,0,17.25-.54.25.25,0,0,0-.1-.48,16.25,16.25,0,0,1-11.68-5c18.25,5.13,33.09-6.2,28-23a.25.25,0,0,0-.49,0c-.92,9.71-7.7,16.12-17.86,17.08a17.46,17.46,0,0,0,11.56-15.53.25.25,0,0,0-.48-.12,16.75,16.75,0,0,1-14.16,9.81c6.33-2.58,10.4-8.6,11.57-16.42a.25.25,0,1,0-.48-.15c-3.87,7.58-12.16,12.79-22.45,8.81-10.62-4.11-15.27-16.39-16.3-25a.26.26,0,0,0-.24-.22.25.25,0,0,0-.26.2c-3.77,15.54,3.53,31.84,16.59,38.73-7.1-2-13.44-6.26-17-13.35-8.29-1-14-3.86-16.86-9.24a.25.25,0,0,0-.48.14c.18,2.11.94,6.33,4.07,8.27-7,0-12.51.89-17.8,3A.26.26,0,0,0,87.47,75ZM117,21.47a.25.25,0,0,1-.36-.34c1.62-2.8.14-6.81-3.05-6.81-5.72,0-8.47,10.77-7.6,20.59,2.16-5.76,4-8.05,7.35-10.79a.25.25,0,0,1,.39.31,46.55,46.55,0,0,0-5.9,24.09c1.46-6,3.2-9.32,8.13-14.38a.25.25,0,0,1,.41.28,44.25,44.25,0,0,0-1,34.22A.25.25,0,0,1,115,69c-5.21-2.55-8.26-4.23-12.75-10.39,1.36-7.4.23-11-3.17-17.2,3.89,10,1.89,24-8.19,29.65a.25.25,0,0,1-.31-.4,17.91,17.91,0,0,0,4.16-17.93C96.3,63.08,87.17,71.81,77,71.81c-9.6,0-16.15-7.51-15.61-14.94s5.44-11,9.67-12.5a.25.25,0,0,1,.27.42c-5.61,5.69-6.38,16.49,3.58,19.76-5.91-5.06-3.7-16.83,5.68-17.73a.25.25,0,0,1,.16.47,8,8,0,0,0-3.68,6.57c0,4.67,3.42,6.51,5.68,6.51,3.42,0,6.26-3.26,6.26-8.18,0-5.84-5.26-10.68-12-11.44S64.23,42.9,61.26,47.21a.25.25,0,0,1-.45-.21A17.14,17.14,0,0,1,87.7,37.49c-6.61-7.5-17-7.61-25.72.09a.25.25,0,0,1-.4-.3c2.67-5.41,9.25-11.82,18.61-10.88,8.56.86,13.52,9,14.52,15.69.56-8.52-1.39-14.54-8.75-20.15a.25.25,0,1,1,.22-.45c6.79,2,12.23,5.43,15,12.54,0-6.16-2.14-12.37-7.53-16.51a.25.25,0,1,1,.22-.45c3.45,1,6.17,2.49,8.14,5.19,1.31-11.1,6.52-17.69,12.53-17.69,4.12,0,7.2,3,7.2,7.87A11.37,11.37,0,0,1,117,21.47Zm99.19,91.62c-3.16,3.9-9.54,5.39-16.43,4a22.7,22.7,0,0,1-1.61,11.48.25.25,0,0,1-.48-.12c.33-8.81-4.67-15.81-13.46-18.91,6.91,4.76,8.93,14.19,5.64,19.07a.25.25,0,0,1-.46-.19c.37-2.06-.61-4.68-2.71-6.73-2.91-2.81-6.85-3.45-8.81-1.43s-1.2,6,1.71,8.76a9.68,9.68,0,0,0,3.42,2.19.25.25,0,0,1-.06.49c-6.39.55-10.77-3.25-13.52-7.88s-7.57-8.41-13.21-7.67a.26.26,0,0,1-.27-.17.25.25,0,0,1,.11-.3,11,11,0,0,1,9.88-1c-5.79-4.91-14-7.74-21.84-5.23a.25.25,0,0,1-.27-.41c5.91-6.56,17.69-6.7,25.11-1.37-3-4.32-7.07-7.48-14.29-8.48a.25.25,0,0,1-.05-.49c8.29-3.08,16.6,0,23.45,8.21a26.34,26.34,0,0,0-14.77-14,.25.25,0,0,1,.08-.49c3.94-.08,7.49.86,12.27,3.57-3.52-5.71-2.75-15.66,2.38-22.31a.25.25,0,0,1,.45.2c-1.18,7.2,1.3,15.33,5.61,19.64A18.18,18.18,0,0,1,190,73.84a.25.25,0,0,1,.26,0,.26.26,0,0,1,.16.2c1.23,9.42,11.77,19,20.6,19.78a.25.25,0,0,1,0,.5,20.83,20.83,0,0,1-12.39-1,21.79,21.79,0,0,0,9.55,6.25.25.25,0,0,1-.06.5h0a20.42,20.42,0,0,1-12.73-3.54A31.44,31.44,0,0,0,214.8,110a.26.26,0,0,1,.2.26.25.25,0,0,1-.23.24c-11.92,1.3-21.77-3.32-28.22-11.92,1.65,4.9,6.37,9.76,12.95,12.62,5.85,2.54,11.85,2.95,16.42,1.51a.25.25,0,0,1,.29.1A.26.26,0,0,1,216.19,113.09Zm-52.9-75.57c4.81,10.49,4.46,18.69.59,29a.25.25,0,0,1-.49-.1c.62-12.62-2.83-21.65-10.3-27.81,8.25,9.85,4.35,29.56-8.82,29.56-9.59,0-17.52-8-19.45-17.52a.25.25,0,0,1,.47-.18c2.84,4.76,7.41,7.85,12.46,7.85,8.13,0,10.54-6.47,10.54-11,0-6.19-4.93-11.34-8.71-11.34a4.94,4.94,0,0,0-5,4.88V41A8.87,8.87,0,0,0,141,49.12a.25.25,0,0,1-.07.5h0A10.47,10.47,0,0,1,131.26,44a17.39,17.39,0,0,0,.64,7.72.25.25,0,0,1-.44.23c-7.46-9.36-3.9-25.62,1.92-32.36C127.85,23.64,123,32.28,123,44a.25.25,0,0,1-.49.1c-4.11-10.25-1.93-29.25,9.28-39.85a20.13,20.13,0,0,0-9.12.69.25.25,0,0,1-.24-.44C126.52,1.08,132.24,0,137.7,0c-4.7,5.5-3.14,16.55,4.36,16.55,5.35,0,7.78-8.3,3.65-12.78a.25.25,0,0,1,.27-.41c4.78,1.65,9.95,5.79,9.95,11,0,5-4.81,9.39-11.8,9.05,8.82,2.51,18.05-.27,22.88-6.25a.25.25,0,0,1,.31-.07.26.26,0,0,1,.13.29c-2.79,10.72-12,15.2-23.44,13.71,9.28,3.76,23.25.48,29.42-7.31a.25.25,0,0,1,.45.21c-1.35,6.65-4.88,11.58-10.6,13.53Z"/>
      <path class="c" d="M189.67,56.81a.25.25,0,0,0-.25-.21c-12.91-.14-24.75-3.27-34-11.52,8,5.56,22.94,7.51,31.53,3.62a.26.26,0,0,0-.11-.49c-10.68.29-19.28-3-26-9,6.87-.42,12.57-4.74,12.56-9.85a.25.25,0,0,0-.48-.1c-1.12,2.49-4.75,3.78-8.58,2.88-4.18-1-7-4.19-6.3-7.17.47-2,2.44-3.4,5-3.79a.25.25,0,0,0,0-.5,17.42,17.42,0,0,0-3.32,0c-6.49.62-11.51,4.59-11.95,9.18-4.71-.55-8.88-3.16-10.38-6.77a.25.25,0,0,0-.49.08c-.38,4.75,1.26,7.84,5,10.85a21.82,21.82,0,0,0-17.31.62.26.26,0,0,0-.14.28.25.25,0,0,0,.24.2,16.26,16.26,0,0,1,11.73,5.07c-18.26-5.13-33.09,6.2-28,23a.25.25,0,0,0,.49,0c.92-9.71,7.7-16.12,17.86-17.08a17.46,17.46,0,0,0-11.51,15.48.25.25,0,0,0,.48.12,16.75,16.75,0,0,1,14.16-9.81c-6.33,2.58-10.4,8.6-11.57,16.42a.25.25,0,1,0,.48.15c3.87-7.58,12.16-12.79,22.45-8.81,10.62,4.11,15.27,16.38,16.3,25a.25.25,0,1,0,.5,0c3.72-15.69-3.58-32-16.64-38.84,7.1,2,13.44,6.26,17,13.35,8.29,1,14,3.86,16.86,9.24a.25.25,0,0,0,.48-.14c-.18-2.11-.94-6.33-4.07-8.27,7,0,12.51-.89,17.8-3A.25.25,0,0,0,189.67,56.81Zm-29.49,53.47a.26.26,0,0,1,.32,0,.25.25,0,0,1,0,.31c-1.62,2.8-.14,6.81,3.05,6.81,5.72,0,8.47-10.77,7.6-20.59-2.15,5.83-4,8.08-7.31,10.83a.25.25,0,0,1-.38-.32,46.55,46.55,0,0,0,5.9-24.08c-1.46,6-3.2,9.32-8.13,14.38a.25.25,0,0,1-.41-.28,44.25,44.25,0,0,0,.95-34.26.25.25,0,0,1,.35-.32c5.21,2.55,8.26,4.23,12.75,10.39-1.36,7.4-.23,11,3.17,17.19-3.94-9.92-1.84-23.89,8.19-29.59a.25.25,0,0,1,.31.4,17.9,17.9,0,0,0-4.16,17.93C180.84,68.64,190,60,200.15,60c9.6,0,16.15,7.51,15.61,14.94s-5.44,11-9.67,12.5a.25.25,0,0,1-.27-.42c5.61-5.69,6.38-16.49-3.58-19.76,5.86,5.06,3.69,16.83-5.69,17.72a.25.25,0,0,1-.16-.46,8,8,0,0,0,3.68-6.57c0-4.67-3.42-6.51-5.68-6.51-3.42,0-6.26,3.26-6.26,8.18,0,5.84,5.26,10.68,12,11.43s12.78-2.15,15.75-6.46a.25.25,0,1,1,.46.21,17.14,17.14,0,0,1-26.89,9.51c6.61,7.5,17,7.61,25.72-.09a.25.25,0,0,1,.39.3c-2.64,5.4-9.23,11.82-18.56,10.88-8.56-.86-13.52-9-14.52-15.69-.56,8.52,1.39,14.54,8.75,20.14a.26.26,0,0,1-.23.45c-6.79-2-12.23-5.42-15-12.54,0,6.16,2.14,12.37,7.53,16.51a.26.26,0,0,1-.23.45c-3.45-1-6.17-2.49-8.14-5.18-1.31,11.1-6.52,17.69-12.53,17.69-4.12,0-7.21-3-7.21-7.87A11.37,11.37,0,0,1,160.18,110.28ZM61,18.64c3.16-3.9,9.54-5.39,16.43-4A22.71,22.71,0,0,1,79,3.19a.25.25,0,0,1,.48.12c-.37,8.77,4.62,15.84,13.45,18.91C86,17.46,84,8,87.29,3.15a.25.25,0,0,1,.46.19c-.37,2.06.61,4.68,2.71,6.72,2.91,2.81,6.85,3.45,8.81,1.43s1.2-5.95-1.71-8.76A9.67,9.67,0,0,0,94.11.54a.25.25,0,0,1-.17-.27.25.25,0,0,1,.23-.22c6.39-.55,10.77,3.25,13.52,7.88s7.57,8.41,13.21,7.67a.25.25,0,0,1,.16.47,11,11,0,0,1-9.86,1.05c5.8,4.91,14,7.74,21.84,5.23a.25.25,0,0,1,.27.41c-5.91,6.56-17.69,6.7-25.11,1.37,3,4.32,7.07,7.49,14.29,8.48a.25.25,0,0,1,.05.49c-8.29,3.08-16.6,0-23.45-8.22a26.34,26.34,0,0,0,14.77,14,.25.25,0,0,1-.08.49c-3.94.08-7.49-.86-12.27-3.57,3.51,5.69,2.74,15.64-2.37,22.26a.25.25,0,0,1-.45-.2c1.18-7.2-1.3-15.33-5.61-19.64a18.17,18.17,0,0,1-5.9,19.64.25.25,0,0,1-.42-.16c-1.23-9.42-11.77-19-20.6-19.78a.25.25,0,0,1,0-.5,20.84,20.84,0,0,1,12.39,1A21.81,21.81,0,0,0,69,32.24a.25.25,0,0,1,.06-.5,20.42,20.42,0,0,1,12.73,3.54A31.45,31.45,0,0,0,62.34,21.77a.25.25,0,0,1,0-.5c12-1.3,21.78,3.37,28.25,11.92-1.65-4.9-6.37-9.76-12.95-12.62C71.8,18,65.8,17.64,61.23,19.06a.25.25,0,0,1-.23-.42Zm52.9,75.57c-4.81-10.49-4.46-18.69-.59-29a.25.25,0,0,1,.49.1c-.62,12.62,2.83,21.65,10.3,27.81-8.25-9.85-4.35-29.56,8.82-29.56,9.59,0,17.52,8,19.46,17.53a.25.25,0,0,1-.47.18c-2.84-4.76-7.41-7.85-12.46-7.85-8.13,0-10.54,6.47-10.54,11,0,6.19,4.93,11.34,8.71,11.34a4.94,4.94,0,0,0,5-4.88v-.05a8.88,8.88,0,0,0-6.38-8.14.25.25,0,0,1,.07-.5,10.47,10.47,0,0,1,9.63,5.57A17.41,17.41,0,0,0,145.3,80a.25.25,0,0,1,.44-.23c7.36,9.39,3.84,25.62-2,32.36,5.53-4,10.42-12.63,10.34-24.39a.25.25,0,0,1,.49-.1c4.11,10.25,1.93,29.25-9.28,39.85a20.1,20.1,0,0,0,9.12-.69.26.26,0,0,1,.24.44c-4.09,3.46-9.81,4.54-15.27,4.54,4.7-5.5,3.14-16.55-4.35-16.55-5.35,0-7.78,8.3-3.65,12.78a.27.27,0,0,1-.3.41c-4.78-1.66-9.95-5.79-9.95-11,0-5,4.81-9.39,11.8-9.05-8.82-2.5-18.05.27-22.88,6.25a.24.24,0,0,1-.38-.26c2.79-10.71,12-15.2,23.43-13.71-9.28-3.76-23.25-.48-29.42,7.31a.25.25,0,0,1-.45-.21c1.37-6.61,4.87-11.55,10.63-13.51Z"/>
      <path class="b" d="M-20.86,75a.25.25,0,0,0,.25.21c12.91.13,24.75,3.27,34,11.51-8-5.56-22.94-7.51-31.53-3.62a.25.25,0,0,0-.14.29.25.25,0,0,0,.25.2c10.68-.29,19.28,3,26,9-6.92.38-12.62,4.7-12.6,9.8a.25.25,0,0,0,.19.3h0a.25.25,0,0,0,.28-.14C-3,100,.6,98.64,4.43,99.57c4.18,1,7,4.19,6.3,7.16-.47,2-2.44,3.4-5,3.79a.26.26,0,0,0,0,.51,17.43,17.43,0,0,0,3.32,0c6.49-.62,11.51-4.6,11.95-9.18,4.76.54,8.94,3.15,10.43,6.79a.25.25,0,0,0,.49-.08c.38-4.75-1.26-7.84-5-10.85a21.81,21.81,0,0,0,17.25-.54.25.25,0,0,0-.1-.48,16.25,16.25,0,0,1-11.69-5.05c18.25,5.13,33.09-6.2,28-23a.25.25,0,0,0-.49,0c-1,9.66-7.76,16.07-17.9,17A17.46,17.46,0,0,0,53.54,70.13a.25.25,0,0,0-.48-.12A16.75,16.75,0,0,1,38.9,79.82c6.33-2.58,10.4-8.6,11.57-16.42a.25.25,0,1,0-.48-.15C46.12,70.83,37.83,76,27.54,72.06c-10.62-4.11-15.27-16.39-16.3-25a.26.26,0,0,0-.24-.22.25.25,0,0,0-.26.2C7,62.64,14.32,78.94,27.38,85.83c-7.1-2-13.44-6.26-17-13.35-8.29-1-14-3.86-16.86-9.24a.25.25,0,0,0-.3-.12.25.25,0,0,0-.22.26c.2,2.11,1,6.33,4.09,8.26-7,0-12.51.89-17.8,3A.26.26,0,0,0-20.86,75ZM8.62,21.47a.25.25,0,0,1-.36-.34c1.62-2.8.14-6.81-3.05-6.81-5.72,0-8.47,10.77-7.6,20.59,2.16-5.76,4-8.05,7.35-10.79a.25.25,0,0,1,.39.31A46.55,46.55,0,0,0-.55,48.52c1.46-6,3.2-9.32,8.13-14.38a.25.25,0,0,1,.42.28A44.25,44.25,0,0,0,7,68.64a.25.25,0,0,1-.35.32c-5.16-2.5-8.22-4.18-12.71-10.32,1.36-7.4.23-11-3.17-17.2C-5.29,51.36-7.39,65.33-17.42,71a.25.25,0,0,1-.32-.06.25.25,0,0,1,0-.33,17.91,17.91,0,0,0,4.16-17.93C-12,63.1-21.18,71.83-31.36,71.83c-9.6,0-16.15-7.51-15.61-14.94s5.44-11,9.67-12.5a.26.26,0,0,1,.3.1.26.26,0,0,1,0,.32c-5.61,5.69-6.38,16.49,3.58,19.76-5.86-5.06-3.69-16.83,5.69-17.72a.25.25,0,0,1,.26.17.25.25,0,0,1-.1.3,8,8,0,0,0-3.68,6.57c0,4.67,3.42,6.51,5.68,6.51,3.42,0,6.26-3.26,6.26-8.18,0-5.84-5.26-10.68-12-11.44s-12.78,2.15-15.75,6.46a.25.25,0,0,1-.31.09.25.25,0,0,1-.14-.29A17.14,17.14,0,0,1-26.69,34.63a17.14,17.14,0,0,1,6.07,2.9c-6.61-7.5-17-7.61-25.72.09a.25.25,0,0,1-.32,0,.25.25,0,0,1-.07-.31c2.67-5.41,9.25-11.82,18.61-10.88,8.56.86,13.52,9,14.52,15.69C-13,33.6-15,27.58-22.35,22a.26.26,0,0,1-.07-.32.26.26,0,0,1,.3-.13c6.79,2,12.23,5.43,15,12.54,0-6.16-2.14-12.37-7.53-16.51a.25.25,0,0,1-.07-.31.25.25,0,0,1,.3-.13c3.45,1,6.17,2.49,8.14,5.19C-5,11.18.22,4.58,6.23,4.58c4.13,0,7.21,3,7.21,7.87A11.37,11.37,0,0,1,8.62,21.47Zm99.23,91.62c-3.16,3.9-9.54,5.39-16.43,4a22.7,22.7,0,0,1-1.61,11.48.25.25,0,0,1-.48-.12c.37-8.81-4.63-15.81-13.46-18.91,6.91,4.75,8.93,14.19,5.64,19.1a.25.25,0,0,1-.46-.19c.37-2.06-.61-4.68-2.71-6.73-2.91-2.81-6.85-3.45-8.81-1.43s-1.2,5.95,1.71,8.76a9.68,9.68,0,0,0,3.45,2.18.25.25,0,0,1-.06.49c-6.39.55-10.77-3.25-13.52-7.88s-7.58-8.43-13.22-7.69a.26.26,0,0,1-.27-.17.25.25,0,0,1,.11-.3,11,11,0,0,1,9.86-1c-5.79-4.92-14-7.75-21.84-5.24a.25.25,0,0,1-.27-.41c5.92-6.56,17.7-6.69,25.12-1.35-3-4.32-7.07-7.48-14.29-8.48a.25.25,0,0,1,0-.49c8.29-3.08,16.6,0,23.45,8.21a26.34,26.34,0,0,0-14.77-14,.25.25,0,0,1,.08-.49c3.94-.08,7.49.86,12.27,3.57-3.52-5.72-2.76-15.67,2.35-22.32a.25.25,0,0,1,.45.2c-1.18,7.2,1.3,15.33,5.61,19.64a18.18,18.18,0,0,1,5.9-19.64.25.25,0,0,1,.26,0A.26.26,0,0,1,82,74c1.23,9.42,11.77,19,20.6,19.78a.25.25,0,0,1,0,.5,20.83,20.83,0,0,1-12.39-1,21.79,21.79,0,0,0,9.55,6.25.25.25,0,0,1-.06.5A20.42,20.42,0,0,1,87,96.47,31.44,31.44,0,0,0,106.46,110a.26.26,0,0,1,.2.26.25.25,0,0,1-.23.24c-11.92,1.3-21.75-3.32-28.22-11.92,1.65,4.9,6.37,9.76,12.95,12.62,5.84,2.55,11.84,2.95,16.42,1.51a.25.25,0,0,1,.29.1A.26.26,0,0,1,107.85,113.09ZM54.94,37.52c4.81,10.49,4.46,18.69.59,29a.25.25,0,0,1-.49-.1c.62-12.62-2.83-21.65-10.3-27.81C53,48.52,49.1,68.23,35.92,68.23c-9.59,0-17.52-8-19.46-17.52a.25.25,0,1,1,.47-.18h0c2.84,4.76,7.41,7.85,12.46,7.85,8.13,0,10.54-6.47,10.54-11C39.93,41.19,35,36,31.22,36a4.94,4.94,0,0,0-5,4.88V41a8.87,8.87,0,0,0,6.38,8.16.25.25,0,0,1-.07.5,10.47,10.47,0,0,1-9.63-5.57,17.39,17.39,0,0,0,.64,7.72.26.26,0,0,1-.13.3.25.25,0,0,1-.32-.07C15.71,42.64,19.23,26.38,25,19.64c-5.49,4-10.38,12.64-10.3,24.4a.25.25,0,0,1-.49.1h0C10.1,33.89,12.28,14.89,23.49,4.29A20.13,20.13,0,0,0,14.36,5a.25.25,0,1,1-.24-.44C18.21,1.08,23.93,0,29.39,0c-4.7,5.5-3.14,16.55,4.36,16.55,5.35,0,7.78-8.3,3.65-12.78a.25.25,0,0,1,.27-.41c4.78,1.65,10,5.79,10,11,0,5-4.81,9.39-11.8,9.05,8.82,2.51,18-.27,22.88-6.25a.25.25,0,0,1,.31-.07.26.26,0,0,1,.13.29c-2.8,10.74-12,15.26-23.44,13.73C45,34.87,59,31.59,65.12,23.8a.25.25,0,0,1,.45.21C64.2,30.64,60.7,35.57,54.94,37.52Z"/>
      <path class="c" d="M81.33,56.81a.25.25,0,0,0-.25-.21c-12.91-.14-24.75-3.27-34-11.52,8,5.56,22.94,7.51,31.53,3.62a.26.26,0,0,0-.11-.49c-10.68.29-19.28-3-26-9,6.87-.42,12.57-4.74,12.56-9.85a.25.25,0,0,0-.48-.1C63.46,31.75,59.83,33,56,32.14c-4.18-1-7-4.19-6.3-7.17.47-2,2.44-3.4,5-3.79a.25.25,0,0,0,0-.5,17.42,17.42,0,0,0-3.32,0c-6.49.62-11.51,4.59-12,9.18-4.71-.55-8.88-3.16-10.38-6.77a.25.25,0,0,0-.49.08c-.38,4.75,1.26,7.84,5,10.85a21.82,21.82,0,0,0-17.31.62.26.26,0,0,0-.14.28.25.25,0,0,0,.24.2,16.26,16.26,0,0,1,11.73,5.07C9.82,35-5,46.36.12,63.21a.25.25,0,0,0,.49,0c.92-9.71,7.7-16.12,17.86-17.08A17.46,17.46,0,0,0,6.92,61.64a.25.25,0,0,0,.48.12,16.75,16.75,0,0,1,14.16-9.81c-6.33,2.58-10.4,8.6-11.57,16.42a.25.25,0,1,0,.48.15c3.87-7.58,12.16-12.79,22.45-8.81,10.62,4.11,15.27,16.38,16.3,25a.25.25,0,0,0,.5,0c3.72-15.69-3.58-32-16.64-38.84,7.1,2,13.44,6.26,17,13.35,8.29,1,14,3.86,16.86,9.24a.25.25,0,0,0,.48-.14h0c-.18-2.11-.94-6.33-4.07-8.27,7,0,12.51-.89,17.8-3A.25.25,0,0,0,81.33,56.81ZM51.84,110.28a.26.26,0,0,1,.32,0,.25.25,0,0,1,0,.31c-1.62,2.8-.14,6.81,3,6.81,5.79,0,8.51-10.76,7.64-20.56-2.16,5.8-4,8.05-7.35,10.8a.25.25,0,0,1-.38-.32A46.55,46.55,0,0,0,61,83.23c-1.46,6-3.2,9.32-8.13,14.38a.25.25,0,0,1-.41-.28,44.25,44.25,0,0,0,1-34.26.25.25,0,0,1,.35-.32C59,65.29,62,67,66.52,73.13c-1.36,7.4-.23,11,3.17,17.19-3.94-9.92-1.84-23.89,8.19-29.59a.25.25,0,0,1,.31.4A17.9,17.9,0,0,0,74,79.06C72.5,68.64,81.63,60,91.81,60c9.6,0,16.15,7.51,15.61,14.94s-5.44,11-9.67,12.5a.25.25,0,0,1-.27-.42c5.61-5.69,6.38-16.49-3.58-19.76,5.86,5.06,3.69,16.83-5.69,17.72a.25.25,0,0,1-.16-.46,8,8,0,0,0,3.68-6.57c0-4.67-3.42-6.51-5.68-6.51-3.42,0-6.26,3.26-6.26,8.18,0,5.84,5.26,10.68,12,11.43s12.78-2.15,15.75-6.46a.25.25,0,0,1,.45.21A17.14,17.14,0,0,1,81.1,94.26c6.61,7.5,17,7.61,25.72-.09a.25.25,0,0,1,.39.3c-2.63,5.4-9.21,11.82-18.57,10.88-8.56-.86-13.52-9-14.52-15.69-.56,8.52,1.39,14.54,8.75,20.14a.26.26,0,0,1-.23.45c-6.79-2-12.23-5.42-15-12.54,0,6.16,2.14,12.37,7.53,16.51a.25.25,0,0,1-.27.42h0c-3.45-1-6.17-2.47-8.14-5.16-1.31,11.1-6.52,17.69-12.53,17.69-4.12,0-7.21-3-7.21-7.87A11.37,11.37,0,0,1,51.84,110.28ZM-47.39,18.64c3.16-3.9,9.54-5.39,16.43-4A22.71,22.71,0,0,1-29.35,3.15.26.26,0,0,1-29.06,3a.26.26,0,0,1,.19.26c-.37,8.77,4.62,15.84,13.45,18.91C-22.33,17.42-24.35,8-21.06,3.12A.26.26,0,0,1-20.75,3a.25.25,0,0,1,.15.28C-21,5.37-20,8-17.89,10-15,12.88-11,13.52-9.06,11.49s1.2-5.95-1.71-8.76A9.67,9.67,0,0,0-14.22.54a.25.25,0,0,1-.17-.27A.25.25,0,0,1-14.16,0C-7.77-.5-3.39,3.3-.64,7.93s7.57,8.41,13.21,7.71a.25.25,0,0,1,.16.47,11,11,0,0,1-9.86,1.05c5.79,4.91,14,7.74,21.84,5.23a.25.25,0,0,1,.27.41C19.07,29.33,7.29,29.46-.13,24.14c3,4.31,7.06,7.5,14.29,8.5a.25.25,0,0,1,.05.49c-8.29,3.08-16.6,0-23.45-8.22a26.34,26.34,0,0,0,14.77,14,.25.25,0,0,1-.08.49c-3.94.08-7.49-.86-12.27-3.57,3.51,5.69,2.74,15.64-2.37,22.26a.26.26,0,0,1-.3.08.26.26,0,0,1-.15-.28c1.18-7.2-1.3-15.33-5.61-19.64a18.17,18.17,0,0,1-5.9,19.64.25.25,0,0,1-.26,0,.26.26,0,0,1-.16-.2c-1.23-9.42-11.77-19-20.6-19.78a.25.25,0,0,1-.23-.24.25.25,0,0,1,.2-.26,20.84,20.84,0,0,1,12.39,1,21.81,21.81,0,0,0-9.55-6.24.25.25,0,0,1-.18-.27.25.25,0,0,1,.23-.22,20.42,20.42,0,0,1,12.73,3.54A31.45,31.45,0,0,0-46,21.77a.26.26,0,0,1-.2-.26.25.25,0,0,1,.23-.24c12-1.3,21.75,3.37,28.22,11.92-1.65-4.9-6.37-9.76-13-12.62-5.85-2.54-11.85-2.95-16.42-1.51a.25.25,0,0,1-.29-.1A.25.25,0,0,1-47.39,18.64ZM5.52,94.23C.71,83.75,1,75.55,4.92,65.18a.25.25,0,0,1,.49.1h0C4.8,77.9,8.24,86.93,15.72,93.09c-8.25-9.85-4.35-29.56,8.82-29.56,9.59,0,17.52,8,19.46,17.53a.25.25,0,0,1-.47.18h0c-2.84-4.76-7.41-7.85-12.46-7.85-8.13,0-10.54,6.47-10.54,11,0,6.19,4.93,11.34,8.71,11.34a4.94,4.94,0,0,0,5-4.88V90.8a8.88,8.88,0,0,0-6.34-8.16.25.25,0,0,1,.07-.5,10.47,10.47,0,0,1,9.63,5.57A17.41,17.41,0,0,0,37,80a.25.25,0,0,1,.44-.23c7.36,9.39,3.84,25.62-2,32.36,5.53-4,10.42-12.63,10.34-24.39a.25.25,0,0,1,.49-.1c4.09,10.25,1.91,29.24-9.27,39.85a20.1,20.1,0,0,0,9.13-.69.26.26,0,0,1,.24.44c-4.09,3.46-9.81,4.54-15.27,4.54,4.7-5.5,3.14-16.55-4.35-16.55-5.35,0-7.78,8.3-3.65,12.78a.27.27,0,0,1-.3.41c-4.8-1.66-9.95-5.76-9.95-11,0-5,4.81-9.39,11.8-9.05-8.82-2.51-18.05.31-22.88,6.25a.25.25,0,0,1-.44-.23c2.79-10.71,12-15.2,23.44-13.71-9.28-3.76-23.25-.48-29.42,7.31A.25.25,0,0,1-5,108h0a.25.25,0,0,1-.14-.28C-3.73,101.13-.24,96.19,5.52,94.23Z"/>
    </pattern>
  </defs>
  <title>mutsumi</title>
  <path class="d" d="M60.55,295.05H57.1a3.3,3.3,0,0,0-.48-.39A11.39,11.39,0,0,1,53,291.58a40.26,40.26,0,0,1-5.3-9.88c-1.46-3.7-2.72-7.48-4-11.24-.71-2.08-1.24-4.22-1.92-6.3s-1.12-4.17-2.42-5.94c-.26-.35-.77-.78-1.12-.74s-.75.57-.93,1a15.38,15.38,0,0,0-1,6,94.84,94.84,0,0,1-.48,10,14,14,0,0,1-1.67,5.37,4.24,4.24,0,0,1-3.7,2.29,3.92,3.92,0,0,1-3.42-2,54.92,54.92,0,0,1-4.09-6.69c-2.29-4.63-4.44-9.33-6.51-14.07a50.5,50.5,0,0,1-2.56-7.24,35.49,35.49,0,0,1-.85-6c-.23-2.66-.33-5.34-.47-8q-.17-3.19-.3-6.39c-.11-2.53-.2-5.06-.3-7.59,0-1.34-.11-2.68-.15-4-.06-1.89-.14-3.78-.14-5.67,0-2.11.08-4.23.15-6.34a4.37,4.37,0,0,1,.22-.89,7.37,7.37,0,0,1,.94.31c.92.44,1.8,1,2.74,1.36s1.43.06,1.49-.84c.17-2.37.41-4.74.43-7.11,0-3.94-.07-7.88-.13-11.82,0-2.44-.09-4.88-.15-7.32q-.06-2.61-.15-5.22-.14-4.25-.3-8.49c-.09-2.26-.21-4.51-.3-6.77q-.16-4.13-.3-8.27-.09-2.65-.15-5.3c-.06-2.27-.13-4.53-.14-6.8V129.43c0-2.74-.09-5.48-.15-8.22,0-2-.1-4.08-.15-6.12s-.1-3.78-.15-5.67q-.07-2.31-.15-4.62-.14-3.87-.3-7.74C15,94.78,15,92.5,14.8,90.22c-.14-2-.32-4.08-.61-6.1a10,10,0,0,0-1.91-4.87C9.75,76,7.14,72.95,4.6,69.85a11.14,11.14,0,0,1-2.71-5.1,30,30,0,0,1-.56-4.07A5.52,5.52,0,0,1,2,57.19a1.44,1.44,0,0,0,.08-1.11c-.34-1-.75-2-1.18-3S.12,51,1,49.92a2.51,2.51,0,0,0,.45-1.29,15.82,15.82,0,0,0,0-2.26,11.69,11.69,0,0,1,.74-4.86,3.35,3.35,0,0,0-.21-3A29.62,29.62,0,0,0,.28,35.85c-.45-.63-.36-.91.24-1.42,1.68-1.46,3.23-3,4.87-4.58C6,29.33,6.5,28.78,7.1,28.3c2.18-1.76,4.3-3.6,6.59-5.21,2.78-2,5.6-3.88,9.1-4.41a5.29,5.29,0,0,1,4.87,1.43c1.12,1.15,2.09,2.44,3.2,3.6a4.15,4.15,0,0,0,3.42,1.44,13.29,13.29,0,0,0,4.84-1.6c2.69-1.36,5.35-2.79,8-4.23a14.23,14.23,0,0,0,5.32-5.21,30.31,30.31,0,0,1,4.36-6c.45-.44.89-.55,1.36-.11a42.19,42.19,0,0,1,3.59,3.55q3,3.55,5.69,7.33a61.24,61.24,0,0,1,7.2,12.51,13.18,13.18,0,0,1,1,7.12,24.49,24.49,0,0,1-2.52,6.93c-1.38,2.78-2.84,5.53-4.19,8.33A7.58,7.58,0,0,0,68,57.52,1.41,1.41,0,0,0,69.39,59h.07a9,9,0,0,0,3.87-1A47.33,47.33,0,0,0,83.75,51.5a1,1,0,0,0,.29-.7c0-4.64,0-9.28-.18-13.92a12.85,12.85,0,0,0-.94-4.12c-.76-2-1.78-3.82-2.67-5.73a14.52,14.52,0,0,1-1.45-6.1V17.54a13,13,0,0,1,1.11-4.77,23.92,23.92,0,0,1,4.6-6.54c1.82-2,3.76-3.86,5.61-5.81A1.36,1.36,0,0,1,91.39,0c.9.1,1.81.21,2.71.29,1.33.12,2.66.17,4,.32,1.8.21,3.61.42,5.39.76a14.57,14.57,0,0,1,3.61,1.1,17.2,17.2,0,0,1,5.28,4.38,33,33,0,0,1,6.11,9.73,7.12,7.12,0,0,1,.66,4.27c-.48,2-1.23,3.9-1.9,5.83a11.25,11.25,0,0,0-.9,4.37c.06,1,.61,1.77,1.32,1.63a12.86,12.86,0,0,0,3.14-.91,13.66,13.66,0,0,0,2.67-1.92c1.43-1.22,2.81-2.49,4.32-3.85,1.84,1.32,3.69,2.6,5.49,4A16.13,16.13,0,0,1,138,36.44a33.71,33.71,0,0,0,1.86,3.41,1.23,1.23,0,0,0,2.27-.25,1.53,1.53,0,0,1,.35-.64c.83-1,1.64-1.93,2.52-2.82,1.36-1.37,2.86-2.62,4.14-4.06a3.24,3.24,0,0,1,3.14-1.18,8.65,8.65,0,0,0,.95.14c1.79.06,3.58.17,5.37.14,2.88,0,5.76-.15,8.64-.3,1.47-.08,1.81-.83,1.07-2.15a2.12,2.12,0,0,0-.39-.53,10.49,10.49,0,0,0-4.9-2.39c-2.47-.57-5-1-7.47-1.54-2-.48-3.92-1.37-4.65-3.53a38.61,38.61,0,0,1-1.19-4.9,27.08,27.08,0,0,1-.44-3.58c-.08-1.28-.22-1.46.94-2.18a15.76,15.76,0,0,1,2.24-1.23c3.06-1.28,6.13-2.56,9.23-3.74a19.27,19.27,0,0,1,7.61-1.49c1.91.08,3.83.33,5.73.59,2.21.3,4.43.58,6.6,1.07A11.68,11.68,0,0,1,188.87,10a28.77,28.77,0,0,0,2.27,3c.66.72,1.39,1.56,2.56,1.39,1.57-.24,3.14-.52,4.7-.81s3.31-.65,5-1c2.76-.54,5.52-1,8.28-1.6,2.18-.44,4.36-.88,6.52-1.41,2.89-.71,5.77-1.44,8.63-2.28A4.22,4.22,0,0,0,229.65,5a.94.94,0,0,1,.67-.47,12.29,12.29,0,0,1,2.69,0c2.68.44,5.36.9,8,1.49a35.24,35.24,0,0,1,9.8,3.4c2.47,1.39,4.92,2.84,7.25,4.45A15.3,15.3,0,0,1,263,18.72a3.49,3.49,0,0,1,0,4,7.21,7.21,0,0,1-3.75,2.36,29.2,29.2,0,0,1-8.7,1,14.23,14.23,0,0,0-5,1,7.86,7.86,0,0,0-2.22,1.44.71.71,0,0,0,.4,1.18,34.23,34.23,0,0,0,4.05.1c2.21-.12,4.42-.36,6.63-.57,1.35-.13,2.69-.33,4-.42a2.69,2.69,0,0,1,2.31.48,36,36,0,0,0,2.85,2.2A60.08,60.08,0,0,1,272,38.8a5.6,5.6,0,0,1,1.79,4.43,6.48,6.48,0,0,1-.91,2.58,30,30,0,0,1-3,3.76A3.87,3.87,0,0,1,267,50.73h-8.45a5.81,5.81,0,0,0,.44.81c.43.51.88,1,1.34,1.5,1.93,2,3.9,4,5.8,6.12a21,21,0,0,1,4.07,6.1,9.49,9.49,0,0,1,.87,3.89c-.1,2.22-1.6,3.69-3.5,4.67a10.85,10.85,0,0,1-7.5.54c-2.5-.55-4.88-1.2-7.33-1.75-.48-.11-1.34-.09-1.46.15-.29.59.4.93.83,1.21,1.88,1.27,3.8,2.5,5.69,3.76,4.9,3.26,9.8,6.51,13.74,11a16.74,16.74,0,0,1,3.76,6.83,4.19,4.19,0,0,1-2.41,5.18,17.59,17.59,0,0,1-5.19,1.47,14.52,14.52,0,0,0-4.23,1.13,2.13,2.13,0,0,0-.82,3.18c.86,1.22,1.81,2.38,2.77,3.53a14.83,14.83,0,0,1,2.59,4,15.7,15.7,0,0,1,.72,6.43,5.52,5.52,0,0,1-.45,2,16,16,0,0,1-5.94,6.7c-3.09,2.12-6.55,2.4-10.17,1.6a44.8,44.8,0,0,1-9.1-3.44c-1.91-.89-3.81-1.79-5.75-2.6a17.68,17.68,0,0,0-7.93-1,14.19,14.19,0,0,0-2.67.46c-.33.08-.58.44-.87.67a6.45,6.45,0,0,0,.78.89,26.7,26.7,0,0,1,2.17,1.63,27,27,0,0,1,2.06,2.33,21.4,21.4,0,0,1,3.58,5.37c.87,2.07.57,3.89-1.72,4.85-.74.31-1.49.62-2.21,1a1.65,1.65,0,0,0-1.06,1.7c.08,1.11.14,2.23.15,3.34,0,.66.22.89.91.89h13.35c3.93,0,7.86-.17,11.79-.3a3.82,3.82,0,0,0,3.3-1.76,13.67,13.67,0,0,1,1.38-1.58c.86.47,1.69.9,2.49,1.37,2.3,1.35,4.64,2.64,6.86,4.11a20.48,20.48,0,0,1,4.77,4.5,25,25,0,0,1,3.21,5.59,9.66,9.66,0,0,1,.73,6.3,12.15,12.15,0,0,1-6.5,8.47,13.8,13.8,0,0,1-9.71,1c-1.51-.36-2.93-1.07-4.41-1.54a40.4,40.4,0,0,0-13-1.8,6.5,6.5,0,0,0-1.65.32c-.46.13-.71.46-.39.94a10.06,10.06,0,0,0,1.21,1.66c1.45,1.43,2.92,2.84,4.46,4.17,1.83,1.57,3.68,3.13,5.62,4.55,2.61,1.9,5.27,3.75,8,5.48s5.53,3.34,8.34,4.92a10,10,0,0,0,5,1.21h3.26c.23,1.59.46,3.1.65,4.6q.34,2.63.61,5.28c.21,2,.47,4.07.57,6.11.07,1.46-.06,2.93-.13,4.39a13.71,13.71,0,0,1-2.16,6.85c-.52.81-.93,1.74-2,2.13a1.06,1.06,0,0,0-.16,1.88,6.5,6.5,0,0,0,1.92.84c2.25.63,4.54,1.16,6.78,1.83a9.82,9.82,0,0,1,4.31,2.45c1.27,1.3,1,1.79-.09,2.67a2.09,2.09,0,0,0-.7,2.22,5.3,5.3,0,0,0,1.39,2.62,1.88,1.88,0,0,1,.63,2c-.3.75-.63,1.48-.9,2.24a1.5,1.5,0,0,0,1.57,2,6.65,6.65,0,0,1-.36,3.6c-.52,1.34-1,2.72.37,3.92.08.07.08.28.07.42-.12,1.23.28,2.5-.45,3.71a3.67,3.67,0,0,0-.14,1.91,8.25,8.25,0,0,1-1.08,4.16,4.08,4.08,0,0,0-.1,4.08,1.82,1.82,0,0,1-.07,1.94,4.54,4.54,0,0,1-.84,1,4.77,4.77,0,0,0-1.42,5.09,4,4,0,0,1-1.2,4.28c-1.18,1.06-2.32,2.16-3.58,3.11a17.3,17.3,0,0,1-9.6,3.64,31,31,0,0,1-5.33-.28,30.42,30.42,0,0,1-9-2.71,14.23,14.23,0,0,0-7.79-1c-2.08.25-4.15.52-6.23.73-1.38.14-2.76.23-4.14.3l-8.76.45-6.62.3-8.34.3-4.47.15-5.07.15-5.52.15c-2.37.06-4.73.12-7.1.15-4.49.06-9,.13-13.47.14-2.67,0-5.33-.08-8-.14-1,0-1.93-.08-2.9-.15-2.54-.19-5.07-.38-7.61-.6-1.94-.17-3.88-.35-5.8-.61-2.11-.29-4.21-.65-6.31-1-3-.54-5.95-1-8.85-1.73-4-1-7.85-2.37-11.8-3.44a38,38,0,0,0-7-1.36,43.62,43.62,0,0,0-7.28.27c-2.39.22-4.76.64-7.14,1-2.85.47-5.7,1-8.53,1.51a6.31,6.31,0,0,0-5.33,4.74,32.42,32.42,0,0,1-1,3.27,10.86,10.86,0,0,1-3,4.51,4.13,4.13,0,0,1-2.81,1,6.76,6.76,0,0,1-4.54-2.31c-1.85-1.77-3.65-3.59-5.43-5.43-.77-.79-1.41-1.71-2.13-2.55s-1.5-1.81-2.34-2.62a1.14,1.14,0,0,0-2,.23c-.87,1.33-1.71,2.68-2.47,4.07-1.16,2.11-2.22,4.27-3.36,6.38A23.48,23.48,0,0,1,60.55,295.05ZM182.38,147.9v-.11l4-.34a2.65,2.65,0,0,0,2.57-2.26,22.74,22.74,0,0,0,.57-2.79,5.3,5.3,0,0,0-1-4.17,21.38,21.38,0,0,0-5-4.08c-1.24-.76-2.52-1.63-2.75-3.17a6.89,6.89,0,0,1,.62-4.47,1.75,1.75,0,0,0-.24-2.2,23,23,0,0,0-2.51-2.51,17.71,17.71,0,0,1-4.2-4.93,3.74,3.74,0,0,1-.33-3.52,3.37,3.37,0,0,0,.19-2.44,18.27,18.27,0,0,0-4.21-7,1,1,0,0,0-1.27-.29c-.87.37-1.78.67-2.66,1-1.69.71-3.35,1.5-5.06,2.15a31.09,31.09,0,0,1-8.37,1.49c-2.69.24-5.39.34-8.09.46-.55,0-.64.23-.67.72a33.25,33.25,0,0,1-.4,4,13.73,13.73,0,0,1-2.9,5.94c-.72.92-1.4,1.95-.92,3.25,1,2.59,1.91,5.17,2.88,7.75a36.18,36.18,0,0,1,2.08,8.3c.23,1.83.33,3.69.46,5.53.16,2.29.27,4.59.47,6.88.13,1.46.36,2.92.6,4.37.13.76.63,1,1.21.42a25.86,25.86,0,0,0,2.39-2.5,32.34,32.34,0,0,1,5-5.28,4.21,4.21,0,0,1,3.64-1.06,25.23,25.23,0,0,0,3.43.69c2.15.19,4.31.29,6.46.31,2.86,0,5.73-.09,8.6-.13C178.75,147.85,180.56,147.9,182.38,147.9Zm-60.53,55.54s-.08.07-.08.09c0,4.46.06,8.93.15,13.39a13.77,13.77,0,0,0,.46,2.82,1.2,1.2,0,0,0,.65.71,5.61,5.61,0,0,0,1.57.35c2.56.22,5.12.45,7.68.6s5.11.22,7.66.31l5,.15c1.89.05,3.78.11,5.67.15,3.46.06,6.93.15,10.39.14,4.46,0,8.93-.09,13.39-.14.79,0,1-.32.6-1a19,19,0,0,0-2.08-2.92c-1.84-2-3.8-3.89-5.65-5.87a1.55,1.55,0,0,0-1.78-.46c-2,.53-4.08,1-6.14,1.39s-4.18.58-6.25.93a15.31,15.31,0,0,1-5.67-.25,9.82,9.82,0,0,1-6.48-4.59,4.73,4.73,0,0,0-2.58-2.22c-.7-.2-1.47-.15-2.16-.38a23.86,23.86,0,0,1-4-1.57C128.91,203.24,125.39,203.3,121.85,203.44Zm59-31a4.17,4.17,0,0,0-.88-.35c-2.1-.27-4.19-.55-6.29-.76-1.55-.15-3.11-.17-4.66-.32-2.08-.21-4.15-.45-6.22-.75a57.88,57.88,0,0,1-10.24-2.46,17.93,17.93,0,0,1-6.16-3.18c-1.37-1.18-2.36-.49-3.07.42A22.78,22.78,0,0,0,140,170.9a7.62,7.62,0,0,0-.42,4.2c.42,2.16,2,3.55,3.47,4.93a6.19,6.19,0,0,1,2.28,4.72,12.4,12.4,0,0,0,.16,2.14,2.32,2.32,0,0,0,2,2.13,12.1,12.1,0,0,0,5.06-.26,53.78,53.78,0,0,0,13-5.16,65,65,0,0,0,9.19-5.75,36.24,36.24,0,0,0,6.06-5.43ZM117.18,71.85c-.08.82-.19,1.53-.22,2.24-.07,2-.13,3.93-.14,5.89a6.86,6.86,0,0,0,.29,1.8,1.89,1.89,0,0,0,1.74,1.64,19.76,19.76,0,0,0,2.41,0,17.8,17.8,0,0,0,5.82-1.64,16.48,16.48,0,0,0,4.87-3.39c.92-.9,1.84-1.16,2.56-.49,1.46,1.36,2.83,2.83,4.21,4.28a2.75,2.75,0,0,1,.57,1,1.89,1.89,0,0,0,1.54,1.3,8.19,8.19,0,0,0,7-1.7c1.5-1.14,3.07-2.22,4.47-3.48a34.53,34.53,0,0,0,3.38-3.65c.48-.58.3-1-.42-1.2a27.31,27.31,0,0,0-2.74-.77,55.58,55.58,0,0,1-10.16-2.74,14.77,14.77,0,0,1-3.25-2,2.51,2.51,0,0,0-1.44-.71,10.82,10.82,0,0,0-5.37,1.62,21.41,21.41,0,0,1-8.74,2C121.44,71.92,119.31,71.85,117.18,71.85Zm113.77,144h-.12c.14,2.23.21,4.46.46,6.67a5.47,5.47,0,0,0,.94,2.32,3.35,3.35,0,0,0,3,1.22c3,0,5.91-.11,8.86-.3q3.5-.22,7-.76a33.65,33.65,0,0,0,4.67-1.2,5,5,0,0,0,1.3-1,5.6,5.6,0,0,0-.93-1.05c-1.52-1-3.08-2-4.61-3l-10.65-7c-2.6-1.75-5.16-3.55-7.74-5.33-.91-.62-1.56-.4-1.7.66-.22,1.68-.36,3.38-.45,5.08C230.89,213.35,230.95,214.58,230.95,215.85ZM37.6,241.52h.15v7.61a1.24,1.24,0,0,0,1.71,1.33c.8-.21,1.59-.45,2.38-.71a13.4,13.4,0,0,0,7.49-6.43,28,28,0,0,0,3.26-11.71c.07-.86.16-1.73.16-2.59,0-2.15,0-4.31-.06-6.46,0-.81-.42-.94-1.07-.4-2.12,1.77-4.25,3.53-6.29,5.39s-3.76,3.64-5.64,5.46c-.52.5-1,1-1.6,1.45a1.36,1.36,0,0,0-.53,1.15C37.62,237.58,37.6,239.55,37.6,241.52Zm-3-93.72a4.21,4.21,0,0,0,1-.2A30.48,30.48,0,0,0,38.5,146c2.29-1.5,4.58-3,6.8-4.6a21.07,21.07,0,0,0,3-2.71c1.15-1.23,1.19-2.87,1.25-4.43.08-2.27,0-4.54,0-6.82a21.88,21.88,0,0,0-.3-2.93c-.13-.84-.49-1-1.26-.75a4.71,4.71,0,0,0-.87.38l-9.53,5.78a6.61,6.61,0,0,0-3.34,6.29c.07,2.45,0,4.89,0,7.34.08,1.38.22,2.76.32,4.28ZM48.86,76.85a7.64,7.64,0,0,0-1,.58c-1.51,1.23-3.11,2.42-4.47,3.74C40.63,83.9,38,86.72,35.3,89.54a4.84,4.84,0,0,0-1.57,3c-.09,2.12-.06,4.25,0,6.38a6.74,6.74,0,0,0,.48,2,1.11,1.11,0,0,0,1.8.62c.58-.36,1.18-.7,1.73-1.1,3.81-2.81,7.61-5.59,11.43-8.4a.88.88,0,0,0,.43-.83V86.34q-.1-3.9-.31-7.81A9.08,9.08,0,0,0,48.86,76.85ZM141.44,58.2a1.2,1.2,0,0,0,.42-.11c.53-.4,1-.83,1.56-1.24a7.67,7.67,0,0,1,5-2c1.94.06,3.88.15,5.82.14,3.56,0,7.12-.09,10.69-.14l8.66-.16h.08a8.51,8.51,0,0,0,.37-.77c.42-1.16.83-2.33,1.24-3.5.2-.58-.16-.76-.62-.79-2.15-.12-4.31-.23-6.46-.3s-4.18-.1-6.27-.16-4.08-.08-6.12-.16c-1.46-.06-2.91-.19-4.36-.29A21.63,21.63,0,0,1,144.81,47a14.94,14.94,0,0,0-3-.81c-.77-.13-1,.15-1,.89,0,1.59.06,3.18.15,4.77C141.08,54,141.28,56.06,141.44,58.2ZM224,77.58c.36,0,1-.14,1.69-.17l6.61-.31a19.08,19.08,0,0,0,2.14-.16c2.17-.24,4.35-.44,6.52-.76a25.91,25.91,0,0,0,4.13-.93A1.86,1.86,0,0,0,246.18,74c.07-.53-.64-.69-1.15-.79a4.35,4.35,0,0,0-.57-.14c-1.8-.11-3.61-.28-5.41-.29-2.61,0-5.23.08-7.84.13l-6.57.15-10.66.3c-1.21,0-2.43.06-3.64.15-2.38.18-4.77.34-7.15.61a7.69,7.69,0,0,0-4.79,2.64c-.3.32-.36.81.28.95a12.23,12.23,0,0,0,2.45.43c3.86,0,7.73-.07,11.59-.13,1,0,2-.11,3-.14Zm-154.71,8c.09.7.19,1.21.22,1.72.16,2.54.27,5.09.47,7.63.11,1.39.34,2.77.58,4.15.15.83.44,1,1.26.77A69.11,69.11,0,0,0,83.07,95.6,4.43,4.43,0,0,0,85.86,92c.2-1.77.23-3.56.32-5.34a3.23,3.23,0,0,0,0-.52c-1.65-.08-3.24-.18-4.82-.22-3-.07-5.93-.11-8.89-.16H72ZM35,188.43c.18,1.33.34,2.84.61,4.34a1.06,1.06,0,0,0,1.54.76,5.16,5.16,0,0,0,1.38-.66c1.35-1,2.68-2.09,4-3.2,2-1.74,4-3.49,5.9-5.32a5.38,5.38,0,0,0,1.83-3.19,33.34,33.34,0,0,0,.19-4.53A10.41,10.41,0,0,0,50,174a1,1,0,0,0-1.23-.7l-.19.07a17.39,17.39,0,0,0-3,1.41c-2.3,1.49-4.58,3-6.75,4.69a7.34,7.34,0,0,0-3.24,4.39C35.3,185.25,35.23,186.74,35,188.43Zm167.4,90.19c1.14-.08,2.17-.18,3.21-.21,2.44-.07,4.88-.11,7.32-.16l7.69-.15,8.52-.15c1.32,0,2.63-.1,3.95-.15,2.83-.1,5.66-.19,8.49-.31q2.41-.1,4.81-.31a2.25,2.25,0,0,0,2.09-1.61c.39-1.23.24-2.22-1.28-2.4a10,10,0,0,0-3.36,0,49,49,0,0,1-7.21.68c-2.45.2-4.91.23-7.36.32l-4.77.15c-1.79,0-3.58.12-5.37.15l-10.84.16c-1.39,0-2.78.08-4.17.15-1.1.06-1.68.49-1.71,1.26s0,1.61,0,2.58Zm14.3-224.23,4.52-.24,8.38-.45,5.94-.3c.74,0,1.48-.09,2.22-.15,2.14-.19,4.27-.36,6.4-.6q2.78-.31,5.54-.77a2.82,2.82,0,0,0,1.24-.57c.47-.37.39-.92-.17-1.08a12.52,12.52,0,0,0-2.86-.55c-2.69-.12-5.38-.12-8.07-.17l-6.57-.15c-1.64,0-3.28-.09-4.92-.15-2.43-.09-4.86-.21-7.29-.29-2.21-.07-4.43-.13-6.64-.14-1.36,0-2.73.09-4.09.14a1.22,1.22,0,0,0-1.26,1.16,6,6,0,0,0,.11.79A2.84,2.84,0,0,0,211.77,54h.14C213.61,54.24,215.37,54.28,216.75,54.39ZM73,178.48a6.15,6.15,0,0,0,.78,0c1.26-.19,2.54-.31,3.77-.6,2-.46,4-1,5.93-1.59a2,2,0,0,0,1-1.09,5.49,5.49,0,0,0,.33-1.94v-9a12.73,12.73,0,0,0-.4-2.76c-.25-1-.83-1.16-1.6-.4a15.49,15.49,0,0,1-1.75,1.75c-2.49,1.73-5,3.38-7.56,5.06a1,1,0,0,0-.51.95v9.62ZM75.09,224c2,.12,3.89.28,5.79.34,1.21,0,2.43-.06,3.64-.14,1-.07,1.54-.4,1.64-1.15a17.15,17.15,0,0,0,.17-2.74c0-1.21-.19-2.41-.28-3.61-.11-1.43-.19-2.86-.31-4.29-.07-.77-.2-1.53-.32-2.37-1.24.08-2.39.06-3.51.24a39.85,39.85,0,0,0-5.16,1.07,3,3,0,0,0-2.4,2.77,25,25,0,0,0,0,3.23c.21,2.23.49,4.46.74,6.66Zm49.6-98.68h.15c.07,1.29.13,2.58.22,3.87a1.08,1.08,0,0,0,1.08,1.08h.07a27.84,27.84,0,0,0,3.16-.31,7.32,7.32,0,0,0,4.91-3,15.33,15.33,0,0,0,2.15-5.19,5.83,5.83,0,0,0,.25-2.39,3.84,3.84,0,0,0-2.71-2.94,8.92,8.92,0,0,0-5.08-.44c-2,.44-3,.83-3.38,3.11-.36,2.11-.55,4.17-.82,6.22Zm81.7-24.12h1l6.78-.59c1.84-.16,3.69-.29,5.53-.46,2.73-.24,5.45-.51,8.18-.74a1.19,1.19,0,0,0,1.15-.77,6.27,6.27,0,0,0,.36-1.34c.17-1.27-.17-1.93-1.06-2.09a8.79,8.79,0,0,0-1.76-.16c-2.08.07-4.16.19-6.24.29l-3.94.15c-1,0-1.93.07-2.89.16-2.19.18-4.38.34-6.55.61a23.32,23.32,0,0,0-3.92.85,1.82,1.82,0,0,0-.28,3.33c1.11.79,2.41.65,3.64.77ZM94.46,133.94h1.47c1.17-.13,2.34-.28,3.51-.43,1.9-.25,3.8-.48,5.68-.78a1.28,1.28,0,0,0,1.2-1.08,26.12,26.12,0,0,0,.25-7.67,5.73,5.73,0,0,0-.41-1.62,1.59,1.59,0,0,0-1.91-1.19l-.2.06c-1.63.41-3.26.83-4.86,1.34A4.48,4.48,0,0,0,95.8,126C95.32,128.6,94.92,131.21,94.46,133.94Zm94,73.58h-.1v-.6a1.45,1.45,0,0,0-1.72-1.54,7.51,7.51,0,0,0-1.78.41c-2.58,1-5.15,2-7.73,2.93-1.23.45-2.53.75-3.75,1.24-.47.19-1.13.7-1.14,1.08s.56,1,1,1.22c3.22,1.86,6.62,3.12,10.43,2.55,1.81-.27,3.42-1.06,4-2.92a32.46,32.46,0,0,0,.78-4.37ZM71.2,139.72v4a3.52,3.52,0,0,0,.5,1.49c.3.53.69.38,1-.09a11.34,11.34,0,0,0,.63-1.16c.82-1.85,1.72-3.68,2.4-5.58,1-2.82,1.93-5.68,2.78-8.55.25-.85.21-1.19-.76-1.57-.59-.23-1.13-.61-1.74-.78-1.15-.33-2.32-.58-3.48-.83-.41-.09-.71,0-.74.56,0,.73-.23,1.45-.27,2.19-.12,2.45-.22,4.91-.3,7.36C71.17,137.72,71.2,138.72,71.2,139.72Zm77.94,56.22.05.16c2.18-.51,4.41-.91,6.55-1.56a59.65,59.65,0,0,0,15.13-7.36,19.42,19.42,0,0,0,2.84-2.41,1.14,1.14,0,0,0,0-1.09,1.18,1.18,0,0,0-1-.32,11.26,11.26,0,0,0-2.26.83c-3.78,1.86-7.53,3.79-11.32,5.62a51.72,51.72,0,0,1-8.41,3,18.39,18.39,0,0,0-3.21,1.38,1.14,1.14,0,0,0-.48.91c0,.23.4.55.69.64A8,8,0,0,0,149.14,195.94Zm23.14-6.79-.07-.18a17.13,17.13,0,0,0-2,.8c-1.63.89-3.16,2-4.84,2.74q-4.22,2-8.57,3.62c-2.34.89-4.79,1.52-7.16,2.35a8.91,8.91,0,0,0-2.27,1.31c-.53.39-.36.91.29,1.05A6.29,6.29,0,0,0,149,201a22.22,22.22,0,0,0,6.87-1.43,79.84,79.84,0,0,0,11-4.56,30.92,30.92,0,0,0,6.22-3.85,2,2,0,0,0,.7-1.43c-.08-.59-.8-.61-1.37-.57Zm-52.45-32a3,3,0,0,0-.46.79,10.72,10.72,0,0,0-.31,2.1v7.12a6.68,6.68,0,0,0,.25,1.59,1.36,1.36,0,0,0,1.56,1c.87-.15,1.74-.25,2.6-.45,1.25-.29,2.47-.65,3.65-1,.07-2-5.37-10.27-7.29-11.12Zm81-128.73a15.78,15.78,0,0,0,2-.79c2.44-1.35,4.89-2.68,7.25-4.15a30.38,30.38,0,0,0,3.38-2.73c.16-.13.19-.42.28-.63a2,2,0,0,0-.64-.07c-1.5.34-3,.61-4.47,1.09-3,1-5.88,2.06-8.81,3.14a11.45,11.45,0,0,0-1.63.92,16.77,16.77,0,0,0,1.08,2.13c.4.52.75,1.17,1.6,1.12Zm-12.9,250.77c1.67-.13,3.28-.2,4.88-.4a7.48,7.48,0,0,0,2.2-.74,1.21,1.21,0,0,0,.6-.89.85.85,0,0,0-.77-.92c-1.26-.15-2.51-.48-3.77-.54-2-.09-4,0-6,0a7.36,7.36,0,0,0-1.73.29,1.85,1.85,0,0,0-1.16,1.9c.07.79.79.85,1.32.92,1.52.21,3,.29,4.47.42Z" transform="translate(0 0.03)"/>
  <path class="e" d="M60.55,295.05H57.1a3.3,3.3,0,0,0-.48-.39A11.39,11.39,0,0,1,53,291.58a40.26,40.26,0,0,1-5.3-9.88c-1.46-3.7-2.72-7.48-4-11.24-.71-2.08-1.24-4.22-1.92-6.3s-1.12-4.17-2.42-5.94c-.26-.35-.77-.78-1.12-.74s-.75.57-.93,1a15.38,15.38,0,0,0-1,6,94.84,94.84,0,0,1-.48,10,14,14,0,0,1-1.67,5.37,4.24,4.24,0,0,1-3.7,2.29,3.92,3.92,0,0,1-3.42-2,54.92,54.92,0,0,1-4.09-6.69c-2.29-4.63-4.44-9.33-6.51-14.07a50.5,50.5,0,0,1-2.56-7.24,35.49,35.49,0,0,1-.85-6c-.23-2.66-.33-5.34-.47-8q-.17-3.19-.3-6.39c-.11-2.53-.2-5.06-.3-7.59,0-1.34-.11-2.68-.15-4-.06-1.89-.14-3.78-.14-5.67,0-2.11.08-4.23.15-6.34a4.37,4.37,0,0,1,.22-.89,7.37,7.37,0,0,1,.94.31c.92.44,1.8,1,2.74,1.36s1.43.06,1.49-.84c.17-2.37.41-4.74.43-7.11,0-3.94-.07-7.88-.13-11.82,0-2.44-.09-4.88-.15-7.32q-.06-2.61-.15-5.22-.14-4.25-.3-8.49c-.09-2.26-.21-4.51-.3-6.77q-.16-4.13-.3-8.27-.09-2.65-.15-5.3c-.06-2.27-.13-4.53-.14-6.8V129.43c0-2.74-.09-5.48-.15-8.22,0-2-.1-4.08-.15-6.12s-.1-3.78-.15-5.67q-.07-2.31-.15-4.62-.14-3.87-.3-7.74C15,94.78,15,92.5,14.8,90.22c-.14-2-.32-4.08-.61-6.1a10,10,0,0,0-1.91-4.87C9.75,76,7.14,72.95,4.6,69.85a11.14,11.14,0,0,1-2.71-5.1,30,30,0,0,1-.56-4.07A5.52,5.52,0,0,1,2,57.19a1.44,1.44,0,0,0,.08-1.11c-.34-1-.75-2-1.18-3S.12,51,1,49.92a2.51,2.51,0,0,0,.45-1.29,15.82,15.82,0,0,0,0-2.26,11.69,11.69,0,0,1,.74-4.86,3.35,3.35,0,0,0-.21-3A29.62,29.62,0,0,0,.28,35.85c-.45-.63-.36-.91.24-1.42,1.68-1.46,3.23-3,4.87-4.58C6,29.33,6.5,28.78,7.1,28.3c2.18-1.76,4.3-3.6,6.59-5.21,2.78-2,5.6-3.88,9.1-4.41a5.29,5.29,0,0,1,4.87,1.43c1.12,1.15,2.09,2.44,3.2,3.6a4.15,4.15,0,0,0,3.42,1.44,13.29,13.29,0,0,0,4.84-1.6c2.69-1.36,5.35-2.79,8-4.23a14.23,14.23,0,0,0,5.32-5.21,30.31,30.31,0,0,1,4.36-6c.45-.44.89-.55,1.36-.11a42.19,42.19,0,0,1,3.59,3.55q3,3.55,5.69,7.33a61.24,61.24,0,0,1,7.2,12.51,13.18,13.18,0,0,1,1,7.12,24.49,24.49,0,0,1-2.52,6.93c-1.38,2.78-2.84,5.53-4.19,8.33A7.58,7.58,0,0,0,68,57.52,1.41,1.41,0,0,0,69.39,59h.07a9,9,0,0,0,3.87-1A47.33,47.33,0,0,0,83.75,51.5a1,1,0,0,0,.29-.7c0-4.64,0-9.28-.18-13.92a12.85,12.85,0,0,0-.94-4.12c-.76-2-1.78-3.82-2.67-5.73a14.52,14.52,0,0,1-1.45-6.1V17.54a13,13,0,0,1,1.11-4.77,23.92,23.92,0,0,1,4.6-6.54c1.82-2,3.76-3.86,5.61-5.81A1.36,1.36,0,0,1,91.39,0c.9.1,1.81.21,2.71.29,1.33.12,2.66.17,4,.32,1.8.21,3.61.42,5.39.76a14.57,14.57,0,0,1,3.61,1.1,17.2,17.2,0,0,1,5.28,4.38,33,33,0,0,1,6.11,9.73,7.12,7.12,0,0,1,.66,4.27c-.48,2-1.23,3.9-1.9,5.83a11.25,11.25,0,0,0-.9,4.37c.06,1,.61,1.77,1.32,1.63a12.86,12.86,0,0,0,3.14-.91,13.66,13.66,0,0,0,2.67-1.92c1.43-1.22,2.81-2.49,4.32-3.85,1.84,1.32,3.69,2.6,5.49,4A16.13,16.13,0,0,1,138,36.44a33.71,33.71,0,0,0,1.86,3.41,1.23,1.23,0,0,0,2.27-.25,1.53,1.53,0,0,1,.35-.64c.83-1,1.64-1.93,2.52-2.82,1.36-1.37,2.86-2.62,4.14-4.06a3.24,3.24,0,0,1,3.14-1.18,8.65,8.65,0,0,0,.95.14c1.79.06,3.58.17,5.37.14,2.88,0,5.76-.15,8.64-.3,1.47-.08,1.81-.83,1.07-2.15a2.12,2.12,0,0,0-.39-.53,10.49,10.49,0,0,0-4.9-2.39c-2.47-.57-5-1-7.47-1.54-2-.48-3.92-1.37-4.65-3.53a38.61,38.61,0,0,1-1.19-4.9,27.08,27.08,0,0,1-.44-3.58c-.08-1.28-.22-1.46.94-2.18a15.76,15.76,0,0,1,2.24-1.23c3.06-1.28,6.13-2.56,9.23-3.74a19.27,19.27,0,0,1,7.61-1.49c1.91.08,3.83.33,5.73.59,2.21.3,4.43.58,6.6,1.07A11.68,11.68,0,0,1,188.87,10a28.77,28.77,0,0,0,2.27,3c.66.72,1.39,1.56,2.56,1.39,1.57-.24,3.14-.52,4.7-.81s3.31-.65,5-1c2.76-.54,5.52-1,8.28-1.6,2.18-.44,4.36-.88,6.52-1.41,2.89-.71,5.77-1.44,8.63-2.28A4.22,4.22,0,0,0,229.65,5a.94.94,0,0,1,.67-.47,12.29,12.29,0,0,1,2.69,0c2.68.44,5.36.9,8,1.49a35.24,35.24,0,0,1,9.8,3.4c2.47,1.39,4.92,2.84,7.25,4.45A15.3,15.3,0,0,1,263,18.72a3.49,3.49,0,0,1,0,4,7.21,7.21,0,0,1-3.75,2.36,29.2,29.2,0,0,1-8.7,1,14.23,14.23,0,0,0-5,1,7.86,7.86,0,0,0-2.22,1.44.71.71,0,0,0,.4,1.18,34.23,34.23,0,0,0,4.05.1c2.21-.12,4.42-.36,6.63-.57,1.35-.13,2.69-.33,4-.42a2.69,2.69,0,0,1,2.31.48,36,36,0,0,0,2.85,2.2A60.08,60.08,0,0,1,272,38.8a5.6,5.6,0,0,1,1.79,4.43,6.48,6.48,0,0,1-.91,2.58,30,30,0,0,1-3,3.76A3.87,3.87,0,0,1,267,50.73h-8.45a5.81,5.81,0,0,0,.44.81c.43.51.88,1,1.34,1.5,1.93,2,3.9,4,5.8,6.12a21,21,0,0,1,4.07,6.1,9.49,9.49,0,0,1,.87,3.89c-.1,2.22-1.6,3.69-3.5,4.67a10.85,10.85,0,0,1-7.5.54c-2.5-.55-4.88-1.2-7.33-1.75-.48-.11-1.34-.09-1.46.15-.29.59.4.93.83,1.21,1.88,1.27,3.8,2.5,5.69,3.76,4.9,3.26,9.8,6.51,13.74,11a16.74,16.74,0,0,1,3.76,6.83,4.19,4.19,0,0,1-2.41,5.18,17.59,17.59,0,0,1-5.19,1.47,14.52,14.52,0,0,0-4.23,1.13,2.13,2.13,0,0,0-.82,3.18c.86,1.22,1.81,2.38,2.77,3.53a14.83,14.83,0,0,1,2.59,4,15.7,15.7,0,0,1,.72,6.43,5.52,5.52,0,0,1-.45,2,16,16,0,0,1-5.94,6.7c-3.09,2.12-6.55,2.4-10.17,1.6a44.8,44.8,0,0,1-9.1-3.44c-1.91-.89-3.81-1.79-5.75-2.6a17.68,17.68,0,0,0-7.93-1,14.19,14.19,0,0,0-2.67.46c-.33.08-.58.44-.87.67a6.45,6.45,0,0,0,.78.89,26.7,26.7,0,0,1,2.17,1.63,27,27,0,0,1,2.06,2.33,21.4,21.4,0,0,1,3.58,5.37c.87,2.07.57,3.89-1.72,4.85-.74.31-1.49.62-2.21,1a1.65,1.65,0,0,0-1.06,1.7c.08,1.11.14,2.23.15,3.34,0,.66.22.89.91.89h13.35c3.93,0,7.86-.17,11.79-.3a3.82,3.82,0,0,0,3.3-1.76,13.67,13.67,0,0,1,1.38-1.58c.86.47,1.69.9,2.49,1.37,2.3,1.35,4.64,2.64,6.86,4.11a20.48,20.48,0,0,1,4.77,4.5,25,25,0,0,1,3.21,5.59,9.66,9.66,0,0,1,.73,6.3,12.15,12.15,0,0,1-6.5,8.47,13.8,13.8,0,0,1-9.71,1c-1.51-.36-2.93-1.07-4.41-1.54a40.4,40.4,0,0,0-13-1.8,6.5,6.5,0,0,0-1.65.32c-.46.13-.71.46-.39.94a10.06,10.06,0,0,0,1.21,1.66c1.45,1.43,2.92,2.84,4.46,4.17,1.83,1.57,3.68,3.13,5.62,4.55,2.61,1.9,5.27,3.75,8,5.48s5.53,3.34,8.34,4.92a10,10,0,0,0,5,1.21h3.26c.23,1.59.46,3.1.65,4.6q.34,2.63.61,5.28c.21,2,.47,4.07.57,6.11.07,1.46-.06,2.93-.13,4.39a13.71,13.71,0,0,1-2.16,6.85c-.52.81-.93,1.74-2,2.13a1.06,1.06,0,0,0-.16,1.88,6.5,6.5,0,0,0,1.92.84c2.25.63,4.54,1.16,6.78,1.83a9.82,9.82,0,0,1,4.31,2.45c1.27,1.3,1,1.79-.09,2.67a2.09,2.09,0,0,0-.7,2.22,5.3,5.3,0,0,0,1.39,2.62,1.88,1.88,0,0,1,.63,2c-.3.75-.63,1.48-.9,2.24a1.5,1.5,0,0,0,1.57,2,6.65,6.65,0,0,1-.36,3.6c-.52,1.34-1,2.72.37,3.92.08.07.08.28.07.42-.12,1.23.28,2.5-.45,3.71a3.67,3.67,0,0,0-.14,1.91,8.25,8.25,0,0,1-1.08,4.16,4.08,4.08,0,0,0-.1,4.08,1.82,1.82,0,0,1-.07,1.94,4.54,4.54,0,0,1-.84,1,4.77,4.77,0,0,0-1.42,5.09,4,4,0,0,1-1.2,4.28c-1.18,1.06-2.32,2.16-3.58,3.11a17.3,17.3,0,0,1-9.6,3.64,31,31,0,0,1-5.33-.28,30.42,30.42,0,0,1-9-2.71,14.23,14.23,0,0,0-7.79-1c-2.08.25-4.15.52-6.23.73-1.38.14-2.76.23-4.14.3l-8.76.45-6.62.3-8.34.3-4.47.15-5.07.15-5.52.15c-2.37.06-4.73.12-7.1.15-4.49.06-9,.13-13.47.14-2.67,0-5.33-.08-8-.14-1,0-1.93-.08-2.9-.15-2.54-.19-5.07-.38-7.61-.6-1.94-.17-3.88-.35-5.8-.61-2.11-.29-4.21-.65-6.31-1-3-.54-5.95-1-8.85-1.73-4-1-7.85-2.37-11.8-3.44a38,38,0,0,0-7-1.36,43.62,43.62,0,0,0-7.28.27c-2.39.22-4.76.64-7.14,1-2.85.47-5.7,1-8.53,1.51a6.31,6.31,0,0,0-5.33,4.74,32.42,32.42,0,0,1-1,3.27,10.86,10.86,0,0,1-3,4.51,4.13,4.13,0,0,1-2.81,1,6.76,6.76,0,0,1-4.54-2.31c-1.85-1.77-3.65-3.59-5.43-5.43-.77-.79-1.41-1.71-2.13-2.55s-1.5-1.81-2.34-2.62a1.14,1.14,0,0,0-2,.23c-.87,1.33-1.71,2.68-2.47,4.07-1.16,2.11-2.22,4.27-3.36,6.38A23.48,23.48,0,0,1,60.55,295.05ZM182.38,147.9v-.11l4-.34a2.65,2.65,0,0,0,2.57-2.26,22.74,22.74,0,0,0,.57-2.79,5.3,5.3,0,0,0-1-4.17,21.38,21.38,0,0,0-5-4.08c-1.24-.76-2.52-1.63-2.75-3.17a6.89,6.89,0,0,1,.62-4.47,1.75,1.75,0,0,0-.24-2.2,23,23,0,0,0-2.51-2.51,17.71,17.71,0,0,1-4.2-4.93,3.74,3.74,0,0,1-.33-3.52,3.37,3.37,0,0,0,.19-2.44,18.27,18.27,0,0,0-4.21-7,1,1,0,0,0-1.27-.29c-.87.37-1.78.67-2.66,1-1.69.71-3.35,1.5-5.06,2.15a31.09,31.09,0,0,1-8.37,1.49c-2.69.24-5.39.34-8.09.46-.55,0-.64.23-.67.72a33.25,33.25,0,0,1-.4,4,13.73,13.73,0,0,1-2.9,5.94c-.72.92-1.4,1.95-.92,3.25,1,2.59,1.91,5.17,2.88,7.75a36.18,36.18,0,0,1,2.08,8.3c.23,1.83.33,3.69.46,5.53.16,2.29.27,4.59.47,6.88.13,1.46.36,2.92.6,4.37.13.76.63,1,1.21.42a25.86,25.86,0,0,0,2.39-2.5,32.34,32.34,0,0,1,5-5.28,4.21,4.21,0,0,1,3.64-1.06,25.23,25.23,0,0,0,3.43.69c2.15.19,4.31.29,6.46.31,2.86,0,5.73-.09,8.6-.13C178.75,147.85,180.56,147.9,182.38,147.9Zm-60.53,55.54s-.08.07-.08.09c0,4.46.06,8.93.15,13.39a13.77,13.77,0,0,0,.46,2.82,1.2,1.2,0,0,0,.65.71,5.61,5.61,0,0,0,1.57.35c2.56.22,5.12.45,7.68.6s5.11.22,7.66.31l5,.15c1.89.05,3.78.11,5.67.15,3.46.06,6.93.15,10.39.14,4.46,0,8.93-.09,13.39-.14.79,0,1-.32.6-1a19,19,0,0,0-2.08-2.92c-1.84-2-3.8-3.89-5.65-5.87a1.55,1.55,0,0,0-1.78-.46c-2,.53-4.08,1-6.14,1.39s-4.18.58-6.25.93a15.31,15.31,0,0,1-5.67-.25,9.82,9.82,0,0,1-6.48-4.59,4.73,4.73,0,0,0-2.58-2.22c-.7-.2-1.47-.15-2.16-.38a23.86,23.86,0,0,1-4-1.57C128.91,203.24,125.39,203.3,121.85,203.44Zm59-31a4.17,4.17,0,0,0-.88-.35c-2.1-.27-4.19-.55-6.29-.76-1.55-.15-3.11-.17-4.66-.32-2.08-.21-4.15-.45-6.22-.75a57.88,57.88,0,0,1-10.24-2.46,17.93,17.93,0,0,1-6.16-3.18c-1.37-1.18-2.36-.49-3.07.42A22.78,22.78,0,0,0,140,170.9a7.62,7.62,0,0,0-.42,4.2c.42,2.16,2,3.55,3.47,4.93a6.19,6.19,0,0,1,2.28,4.72,12.4,12.4,0,0,0,.16,2.14,2.32,2.32,0,0,0,2,2.13,12.1,12.1,0,0,0,5.06-.26,53.78,53.78,0,0,0,13-5.16,65,65,0,0,0,9.19-5.75,36.24,36.24,0,0,0,6.06-5.43ZM117.18,71.85c-.08.82-.19,1.53-.22,2.24-.07,2-.13,3.93-.14,5.89a6.86,6.86,0,0,0,.29,1.8,1.89,1.89,0,0,0,1.74,1.64,19.76,19.76,0,0,0,2.41,0,17.8,17.8,0,0,0,5.82-1.64,16.48,16.48,0,0,0,4.87-3.39c.92-.9,1.84-1.16,2.56-.49,1.46,1.36,2.83,2.83,4.21,4.28a2.75,2.75,0,0,1,.57,1,1.89,1.89,0,0,0,1.54,1.3,8.19,8.19,0,0,0,7-1.7c1.5-1.14,3.07-2.22,4.47-3.48a34.53,34.53,0,0,0,3.38-3.65c.48-.58.3-1-.42-1.2a27.31,27.31,0,0,0-2.74-.77,55.58,55.58,0,0,1-10.16-2.74,14.77,14.77,0,0,1-3.25-2,2.51,2.51,0,0,0-1.44-.71,10.82,10.82,0,0,0-5.37,1.62,21.41,21.41,0,0,1-8.74,2C121.44,71.92,119.31,71.85,117.18,71.85Zm113.77,144h-.12c.14,2.23.21,4.46.46,6.67a5.47,5.47,0,0,0,.94,2.32,3.35,3.35,0,0,0,3,1.22c3,0,5.91-.11,8.86-.3q3.5-.22,7-.76a33.65,33.65,0,0,0,4.67-1.2,5,5,0,0,0,1.3-1,5.6,5.6,0,0,0-.93-1.05c-1.52-1-3.08-2-4.61-3l-10.65-7c-2.6-1.75-5.16-3.55-7.74-5.33-.91-.62-1.56-.4-1.7.66-.22,1.68-.36,3.38-.45,5.08C230.89,213.35,230.95,214.58,230.95,215.85ZM37.6,241.52h.15v7.61a1.24,1.24,0,0,0,1.71,1.33c.8-.21,1.59-.45,2.38-.71a13.4,13.4,0,0,0,7.49-6.43,28,28,0,0,0,3.26-11.71c.07-.86.16-1.73.16-2.59,0-2.15,0-4.31-.06-6.46,0-.81-.42-.94-1.07-.4-2.12,1.77-4.25,3.53-6.29,5.39s-3.76,3.64-5.64,5.46c-.52.5-1,1-1.6,1.45a1.36,1.36,0,0,0-.53,1.15C37.62,237.58,37.6,239.55,37.6,241.52Zm-3-93.72a4.21,4.21,0,0,0,1-.2A30.48,30.48,0,0,0,38.5,146c2.29-1.5,4.58-3,6.8-4.6a21.07,21.07,0,0,0,3-2.71c1.15-1.23,1.19-2.87,1.25-4.43.08-2.27,0-4.54,0-6.82a21.88,21.88,0,0,0-.3-2.93c-.13-.84-.49-1-1.26-.75a4.71,4.71,0,0,0-.87.38l-9.53,5.78a6.61,6.61,0,0,0-3.34,6.29c.07,2.45,0,4.89,0,7.34.08,1.38.22,2.76.32,4.28ZM48.86,76.85a7.64,7.64,0,0,0-1,.58c-1.51,1.23-3.11,2.42-4.47,3.74C40.63,83.9,38,86.72,35.3,89.54a4.84,4.84,0,0,0-1.57,3c-.09,2.12-.06,4.25,0,6.38a6.74,6.74,0,0,0,.48,2,1.11,1.11,0,0,0,1.8.62c.58-.36,1.18-.7,1.73-1.1,3.81-2.81,7.61-5.59,11.43-8.4a.88.88,0,0,0,.43-.83V86.34q-.1-3.9-.31-7.81A9.08,9.08,0,0,0,48.86,76.85ZM141.44,58.2a1.2,1.2,0,0,0,.42-.11c.53-.4,1-.83,1.56-1.24a7.67,7.67,0,0,1,5-2c1.94.06,3.88.15,5.82.14,3.56,0,7.12-.09,10.69-.14l8.66-.16h.08a8.51,8.51,0,0,0,.37-.77c.42-1.16.83-2.33,1.24-3.5.2-.58-.16-.76-.62-.79-2.15-.12-4.31-.23-6.46-.3s-4.18-.1-6.27-.16-4.08-.08-6.12-.16c-1.46-.06-2.91-.19-4.36-.29A21.63,21.63,0,0,1,144.81,47a14.94,14.94,0,0,0-3-.81c-.77-.13-1,.15-1,.89,0,1.59.06,3.18.15,4.77C141.08,54,141.28,56.06,141.44,58.2ZM224,77.58c.36,0,1-.14,1.69-.17l6.61-.31a19.08,19.08,0,0,0,2.14-.16c2.17-.24,4.35-.44,6.52-.76a25.91,25.91,0,0,0,4.13-.93A1.86,1.86,0,0,0,246.18,74c.07-.53-.64-.69-1.15-.79a4.35,4.35,0,0,0-.57-.14c-1.8-.11-3.61-.28-5.41-.29-2.61,0-5.23.08-7.84.13l-6.57.15-10.66.3c-1.21,0-2.43.06-3.64.15-2.38.18-4.77.34-7.15.61a7.69,7.69,0,0,0-4.79,2.64c-.3.32-.36.81.28.95a12.23,12.23,0,0,0,2.45.43c3.86,0,7.73-.07,11.59-.13,1,0,2-.11,3-.14Zm-154.71,8c.09.7.19,1.21.22,1.72.16,2.54.27,5.09.47,7.63.11,1.39.34,2.77.58,4.15.15.83.44,1,1.26.77A69.11,69.11,0,0,0,83.07,95.6,4.43,4.43,0,0,0,85.86,92c.2-1.77.23-3.56.32-5.34a3.23,3.23,0,0,0,0-.52c-1.65-.08-3.24-.18-4.82-.22-3-.07-5.93-.11-8.89-.16H72ZM35,188.43c.18,1.33.34,2.84.61,4.34a1.06,1.06,0,0,0,1.54.76,5.16,5.16,0,0,0,1.38-.66c1.35-1,2.68-2.09,4-3.2,2-1.74,4-3.49,5.9-5.32a5.38,5.38,0,0,0,1.83-3.19,33.34,33.34,0,0,0,.19-4.53A10.41,10.41,0,0,0,50,174a1,1,0,0,0-1.23-.7l-.19.07a17.39,17.39,0,0,0-3,1.41c-2.3,1.49-4.58,3-6.75,4.69a7.34,7.34,0,0,0-3.24,4.39C35.3,185.25,35.23,186.74,35,188.43Zm167.4,90.19c1.14-.08,2.17-.18,3.21-.21,2.44-.07,4.88-.11,7.32-.16l7.69-.15,8.52-.15c1.32,0,2.63-.1,3.95-.15,2.83-.1,5.66-.19,8.49-.31q2.41-.1,4.81-.31a2.25,2.25,0,0,0,2.09-1.61c.39-1.23.24-2.22-1.28-2.4a10,10,0,0,0-3.36,0,49,49,0,0,1-7.21.68c-2.45.2-4.91.23-7.36.32l-4.77.15c-1.79,0-3.58.12-5.37.15l-10.84.16c-1.39,0-2.78.08-4.17.15-1.1.06-1.68.49-1.71,1.26s0,1.61,0,2.58Zm14.3-224.23,4.52-.24,8.38-.45,5.94-.3c.74,0,1.48-.09,2.22-.15,2.14-.19,4.27-.36,6.4-.6q2.78-.31,5.54-.77a2.82,2.82,0,0,0,1.24-.57c.47-.37.39-.92-.17-1.08a12.52,12.52,0,0,0-2.86-.55c-2.69-.12-5.38-.12-8.07-.17l-6.57-.15c-1.64,0-3.28-.09-4.92-.15-2.43-.09-4.86-.21-7.29-.29-2.21-.07-4.43-.13-6.64-.14-1.36,0-2.73.09-4.09.14a1.22,1.22,0,0,0-1.26,1.16,6,6,0,0,0,.11.79A2.84,2.84,0,0,0,211.77,54h.14C213.61,54.24,215.37,54.28,216.75,54.39ZM73,178.48a6.15,6.15,0,0,0,.78,0c1.26-.19,2.54-.31,3.77-.6,2-.46,4-1,5.93-1.59a2,2,0,0,0,1-1.09,5.49,5.49,0,0,0,.33-1.94v-9a12.73,12.73,0,0,0-.4-2.76c-.25-1-.83-1.16-1.6-.4a15.49,15.49,0,0,1-1.75,1.75c-2.49,1.73-5,3.38-7.56,5.06a1,1,0,0,0-.51.95v9.62ZM75.09,224c2,.12,3.89.28,5.79.34,1.21,0,2.43-.06,3.64-.14,1-.07,1.54-.4,1.64-1.15a17.15,17.15,0,0,0,.17-2.74c0-1.21-.19-2.41-.28-3.61-.11-1.43-.19-2.86-.31-4.29-.07-.77-.2-1.53-.32-2.37-1.24.08-2.39.06-3.51.24a39.85,39.85,0,0,0-5.16,1.07,3,3,0,0,0-2.4,2.77,25,25,0,0,0,0,3.23c.21,2.23.49,4.46.74,6.66Zm49.6-98.68h.15c.07,1.29.13,2.58.22,3.87a1.08,1.08,0,0,0,1.08,1.08h.07a27.84,27.84,0,0,0,3.16-.31,7.32,7.32,0,0,0,4.91-3,15.33,15.33,0,0,0,2.15-5.19,5.83,5.83,0,0,0,.25-2.39,3.84,3.84,0,0,0-2.71-2.94,8.92,8.92,0,0,0-5.08-.44c-2,.44-3,.83-3.38,3.11-.36,2.11-.55,4.17-.82,6.22Zm81.7-24.12h1l6.78-.59c1.84-.16,3.69-.29,5.53-.46,2.73-.24,5.45-.51,8.18-.74a1.19,1.19,0,0,0,1.15-.77,6.27,6.27,0,0,0,.36-1.34c.17-1.27-.17-1.93-1.06-2.09a8.79,8.79,0,0,0-1.76-.16c-2.08.07-4.16.19-6.24.29l-3.94.15c-1,0-1.93.07-2.89.16-2.19.18-4.38.34-6.55.61a23.32,23.32,0,0,0-3.92.85,1.82,1.82,0,0,0-.28,3.33c1.11.79,2.41.65,3.64.77ZM94.46,133.94h1.47c1.17-.13,2.34-.28,3.51-.43,1.9-.25,3.8-.48,5.68-.78a1.28,1.28,0,0,0,1.2-1.08,26.12,26.12,0,0,0,.25-7.67,5.73,5.73,0,0,0-.41-1.62,1.59,1.59,0,0,0-1.91-1.19l-.2.06c-1.63.41-3.26.83-4.86,1.34A4.48,4.48,0,0,0,95.8,126C95.32,128.6,94.92,131.21,94.46,133.94Zm94,73.58h-.1v-.6a1.45,1.45,0,0,0-1.72-1.54,7.51,7.51,0,0,0-1.78.41c-2.58,1-5.15,2-7.73,2.93-1.23.45-2.53.75-3.75,1.24-.47.19-1.13.7-1.14,1.08s.56,1,1,1.22c3.22,1.86,6.62,3.12,10.43,2.55,1.81-.27,3.42-1.06,4-2.92a32.46,32.46,0,0,0,.78-4.37ZM71.2,139.72v4a3.52,3.52,0,0,0,.5,1.49c.3.53.69.38,1-.09a11.34,11.34,0,0,0,.63-1.16c.82-1.85,1.72-3.68,2.4-5.58,1-2.82,1.93-5.68,2.78-8.55.25-.85.21-1.19-.76-1.57-.59-.23-1.13-.61-1.74-.78-1.15-.33-2.32-.58-3.48-.83-.41-.09-.71,0-.74.56,0,.73-.23,1.45-.27,2.19-.12,2.45-.22,4.91-.3,7.36C71.17,137.72,71.2,138.72,71.2,139.72Zm77.94,56.22.05.16c2.18-.51,4.41-.91,6.55-1.56a59.65,59.65,0,0,0,15.13-7.36,19.42,19.42,0,0,0,2.84-2.41,1.14,1.14,0,0,0,0-1.09,1.18,1.18,0,0,0-1-.32,11.26,11.26,0,0,0-2.26.83c-3.78,1.86-7.53,3.79-11.32,5.62a51.72,51.72,0,0,1-8.41,3,18.39,18.39,0,0,0-3.21,1.38,1.14,1.14,0,0,0-.48.91c0,.23.4.55.69.64A8,8,0,0,0,149.14,195.94Zm23.14-6.79-.07-.18a17.13,17.13,0,0,0-2,.8c-1.63.89-3.16,2-4.84,2.74q-4.22,2-8.57,3.62c-2.34.89-4.79,1.52-7.16,2.35a8.91,8.91,0,0,0-2.27,1.31c-.53.39-.36.91.29,1.05A6.29,6.29,0,0,0,149,201a22.22,22.22,0,0,0,6.87-1.43,79.84,79.84,0,0,0,11-4.56,30.92,30.92,0,0,0,6.22-3.85,2,2,0,0,0,.7-1.43c-.08-.59-.8-.61-1.37-.57Zm-52.45-32a3,3,0,0,0-.46.79,10.72,10.72,0,0,0-.31,2.1v7.12a6.68,6.68,0,0,0,.25,1.59,1.36,1.36,0,0,0,1.56,1c.87-.15,1.74-.25,2.6-.45,1.25-.29,2.47-.65,3.65-1,.07-2-5.37-10.27-7.29-11.12Zm81-128.73a15.78,15.78,0,0,0,2-.79c2.44-1.35,4.89-2.68,7.25-4.15a30.38,30.38,0,0,0,3.38-2.73c.16-.13.19-.42.28-.63a2,2,0,0,0-.64-.07c-1.5.34-3,.61-4.47,1.09-3,1-5.88,2.06-8.81,3.14a11.45,11.45,0,0,0-1.63.92,16.77,16.77,0,0,0,1.08,2.13c.4.52.75,1.17,1.6,1.12Zm-12.9,250.77c1.67-.13,3.28-.2,4.88-.4a7.48,7.48,0,0,0,2.2-.74,1.21,1.21,0,0,0,.6-.89.85.85,0,0,0-.77-.92c-1.26-.15-2.51-.48-3.77-.54-2-.09-4,0-6,0a7.36,7.36,0,0,0-1.73.29,1.85,1.85,0,0,0-1.16,1.9c.07.79.79.85,1.32.92,1.52.21,3,.29,4.47.42Z" transform="translate(0 0.03)"/>
  <path d="M60.55,295.05H57.1a3.3,3.3,0,0,0-.48-.39A11.39,11.39,0,0,1,53,291.58a40.26,40.26,0,0,1-5.3-9.88c-1.46-3.7-2.72-7.48-4-11.24-.71-2.08-1.24-4.22-1.92-6.3s-1.12-4.17-2.42-5.94c-.26-.35-.77-.78-1.12-.74s-.75.57-.93,1a15.38,15.38,0,0,0-1,6,94.84,94.84,0,0,1-.48,10,14,14,0,0,1-1.67,5.37,4.24,4.24,0,0,1-3.7,2.29,3.92,3.92,0,0,1-3.42-2,54.92,54.92,0,0,1-4.09-6.69c-2.29-4.63-4.44-9.33-6.51-14.07a50.5,50.5,0,0,1-2.56-7.24,35.49,35.49,0,0,1-.85-6c-.23-2.66-.33-5.34-.47-8q-.17-3.19-.3-6.39c-.11-2.53-.2-5.06-.3-7.59,0-1.34-.11-2.68-.15-4-.06-1.89-.14-3.78-.14-5.67,0-2.11.08-4.23.15-6.34a4.37,4.37,0,0,1,.22-.89,7.37,7.37,0,0,1,.94.31c.92.44,1.8,1,2.74,1.36s1.43.06,1.49-.84c.17-2.37.41-4.74.43-7.11,0-3.94-.07-7.88-.13-11.82,0-2.44-.09-4.88-.15-7.32q-.06-2.61-.15-5.22-.14-4.25-.3-8.49c-.09-2.26-.21-4.51-.3-6.77q-.16-4.13-.3-8.27-.09-2.65-.15-5.3c-.06-2.27-.13-4.53-.14-6.8V129.43c0-2.74-.09-5.48-.15-8.22,0-2-.1-4.08-.15-6.12s-.1-3.78-.15-5.67q-.07-2.31-.15-4.62-.14-3.87-.3-7.74C15,94.78,15,92.5,14.8,90.22c-.14-2-.32-4.08-.61-6.1a10,10,0,0,0-1.91-4.87C9.75,76,7.14,72.95,4.6,69.85a11.14,11.14,0,0,1-2.71-5.1,30,30,0,0,1-.56-4.07A5.52,5.52,0,0,1,2,57.19a1.44,1.44,0,0,0,.08-1.11c-.34-1-.75-2-1.18-3S.12,51,1,49.92a2.51,2.51,0,0,0,.45-1.29,15.82,15.82,0,0,0,0-2.26,11.69,11.69,0,0,1,.74-4.86,3.35,3.35,0,0,0-.21-3A29.62,29.62,0,0,0,.28,35.85c-.45-.63-.36-.91.24-1.42,1.68-1.46,3.23-3,4.87-4.58C6,29.33,6.5,28.78,7.1,28.3c2.18-1.76,4.3-3.6,6.59-5.21,2.78-2,5.6-3.88,9.1-4.41a5.29,5.29,0,0,1,4.87,1.43c1.12,1.15,2.09,2.44,3.2,3.6a4.15,4.15,0,0,0,3.42,1.44,13.29,13.29,0,0,0,4.84-1.6c2.69-1.36,5.35-2.79,8-4.23a14.23,14.23,0,0,0,5.32-5.21,30.31,30.31,0,0,1,4.36-6c.45-.44.89-.55,1.36-.11a42.19,42.19,0,0,1,3.59,3.55q3,3.55,5.69,7.33a61.24,61.24,0,0,1,7.2,12.51,13.18,13.18,0,0,1,1,7.12,24.49,24.49,0,0,1-2.52,6.93c-1.38,2.78-2.84,5.53-4.19,8.33A7.58,7.58,0,0,0,68,57.52,1.41,1.41,0,0,0,69.39,59h.07a9,9,0,0,0,3.87-1A47.33,47.33,0,0,0,83.75,51.5a1,1,0,0,0,.29-.7c0-4.64,0-9.28-.18-13.92a12.85,12.85,0,0,0-.94-4.12c-.76-2-1.78-3.82-2.67-5.73a14.52,14.52,0,0,1-1.45-6.1V17.54a13,13,0,0,1,1.11-4.77,23.92,23.92,0,0,1,4.6-6.54c1.82-2,3.76-3.86,5.61-5.81A1.36,1.36,0,0,1,91.39,0c.9.1,1.81.21,2.71.29,1.33.12,2.66.17,4,.32,1.8.21,3.61.42,5.39.76a14.57,14.57,0,0,1,3.61,1.1,17.2,17.2,0,0,1,5.28,4.38,33,33,0,0,1,6.11,9.73,7.12,7.12,0,0,1,.66,4.27c-.48,2-1.23,3.9-1.9,5.83a11.25,11.25,0,0,0-.9,4.37c.06,1,.61,1.77,1.32,1.63a12.86,12.86,0,0,0,3.14-.91,13.66,13.66,0,0,0,2.67-1.92c1.43-1.22,2.81-2.49,4.32-3.85,1.84,1.32,3.69,2.6,5.49,4A16.13,16.13,0,0,1,138,36.44a33.71,33.71,0,0,0,1.86,3.41,1.23,1.23,0,0,0,2.27-.25,1.53,1.53,0,0,1,.35-.64c.83-1,1.64-1.93,2.52-2.82,1.36-1.37,2.86-2.62,4.14-4.06a3.24,3.24,0,0,1,3.14-1.18,8.65,8.65,0,0,0,.95.14c1.79.06,3.58.17,5.37.14,2.88,0,5.76-.15,8.64-.3,1.47-.08,1.81-.83,1.07-2.15a2.12,2.12,0,0,0-.39-.53,10.49,10.49,0,0,0-4.9-2.39c-2.47-.57-5-1-7.47-1.54-2-.48-3.92-1.37-4.65-3.53a38.61,38.61,0,0,1-1.19-4.9,27.08,27.08,0,0,1-.44-3.58c-.08-1.28-.22-1.46.94-2.18a15.76,15.76,0,0,1,2.24-1.23c3.06-1.28,6.13-2.56,9.23-3.74a19.27,19.27,0,0,1,7.61-1.49c1.91.08,3.83.33,5.73.59,2.21.3,4.43.58,6.6,1.07A11.68,11.68,0,0,1,188.87,10a28.77,28.77,0,0,0,2.27,3c.66.72,1.39,1.56,2.56,1.39,1.57-.24,3.14-.52,4.7-.81s3.31-.65,5-1c2.76-.54,5.52-1,8.28-1.6,2.18-.44,4.36-.88,6.52-1.41,2.89-.71,5.77-1.44,8.63-2.28A4.22,4.22,0,0,0,229.65,5a.94.94,0,0,1,.67-.47,12.29,12.29,0,0,1,2.69,0c2.68.44,5.36.9,8,1.49a35.24,35.24,0,0,1,9.8,3.4c2.47,1.39,4.92,2.84,7.25,4.45A15.3,15.3,0,0,1,263,18.72a3.49,3.49,0,0,1,0,4,7.21,7.21,0,0,1-3.75,2.36,29.2,29.2,0,0,1-8.7,1,14.23,14.23,0,0,0-5,1,7.86,7.86,0,0,0-2.22,1.44.71.71,0,0,0,.4,1.18,34.23,34.23,0,0,0,4.05.1c2.21-.12,4.42-.36,6.63-.57,1.35-.13,2.69-.33,4-.42a2.69,2.69,0,0,1,2.31.48,36,36,0,0,0,2.85,2.2A60.08,60.08,0,0,1,272,38.8a5.6,5.6,0,0,1,1.79,4.43,6.48,6.48,0,0,1-.91,2.58,30,30,0,0,1-3,3.76A3.87,3.87,0,0,1,267,50.73h-8.45a5.81,5.81,0,0,0,.44.81c.43.51.88,1,1.34,1.5,1.93,2,3.9,4,5.8,6.12a21,21,0,0,1,4.07,6.1,9.49,9.49,0,0,1,.87,3.89c-.1,2.22-1.6,3.69-3.5,4.67a10.85,10.85,0,0,1-7.5.54c-2.5-.55-4.88-1.2-7.33-1.75-.48-.11-1.34-.09-1.46.15-.29.59.4.93.83,1.21,1.88,1.27,3.8,2.5,5.69,3.76,4.9,3.26,9.8,6.51,13.74,11a16.74,16.74,0,0,1,3.76,6.83,4.19,4.19,0,0,1-2.41,5.18,17.59,17.59,0,0,1-5.19,1.47,14.52,14.52,0,0,0-4.23,1.13,2.13,2.13,0,0,0-.82,3.18c.86,1.22,1.81,2.38,2.77,3.53a14.83,14.83,0,0,1,2.59,4,15.7,15.7,0,0,1,.72,6.43,5.52,5.52,0,0,1-.45,2,16,16,0,0,1-5.94,6.7c-3.09,2.12-6.55,2.4-10.17,1.6a44.8,44.8,0,0,1-9.1-3.44c-1.91-.89-3.81-1.79-5.75-2.6a17.68,17.68,0,0,0-7.93-1,14.19,14.19,0,0,0-2.67.46c-.33.08-.58.44-.87.67a6.45,6.45,0,0,0,.78.89,26.7,26.7,0,0,1,2.17,1.63,27,27,0,0,1,2.06,2.33,21.4,21.4,0,0,1,3.58,5.37c.87,2.07.57,3.89-1.72,4.85-.74.31-1.49.62-2.21,1a1.65,1.65,0,0,0-1.06,1.7c.08,1.11.14,2.23.15,3.34,0,.66.22.89.91.89h13.35c3.93,0,7.86-.17,11.79-.3a3.82,3.82,0,0,0,3.3-1.76,13.67,13.67,0,0,1,1.38-1.58c.86.47,1.69.9,2.49,1.37,2.3,1.35,4.64,2.64,6.86,4.11a20.48,20.48,0,0,1,4.77,4.5,25,25,0,0,1,3.21,5.59,9.66,9.66,0,0,1,.73,6.3,12.15,12.15,0,0,1-6.5,8.47,13.8,13.8,0,0,1-9.71,1c-1.51-.36-2.93-1.07-4.41-1.54a40.4,40.4,0,0,0-13-1.8,6.5,6.5,0,0,0-1.65.32c-.46.13-.71.46-.39.94a10.06,10.06,0,0,0,1.21,1.66c1.45,1.43,2.92,2.84,4.46,4.17,1.83,1.57,3.68,3.13,5.62,4.55,2.61,1.9,5.27,3.75,8,5.48s5.53,3.34,8.34,4.92a10,10,0,0,0,5,1.21h3.26c.23,1.59.46,3.1.65,4.6q.34,2.63.61,5.28c.21,2,.47,4.07.57,6.11.07,1.46-.06,2.93-.13,4.39a13.71,13.71,0,0,1-2.16,6.85c-.52.81-.93,1.74-2,2.13a1.06,1.06,0,0,0-.16,1.88,6.5,6.5,0,0,0,1.92.84c2.25.63,4.54,1.16,6.78,1.83a9.82,9.82,0,0,1,4.31,2.45c1.27,1.3,1,1.79-.09,2.67a2.09,2.09,0,0,0-.7,2.22,5.3,5.3,0,0,0,1.39,2.62,1.88,1.88,0,0,1,.63,2c-.3.75-.63,1.48-.9,2.24a1.5,1.5,0,0,0,1.57,2,6.65,6.65,0,0,1-.36,3.6c-.52,1.34-1,2.72.37,3.92.08.07.08.28.07.42-.12,1.23.28,2.5-.45,3.71a3.67,3.67,0,0,0-.14,1.91,8.25,8.25,0,0,1-1.08,4.16,4.08,4.08,0,0,0-.1,4.08,1.82,1.82,0,0,1-.07,1.94,4.54,4.54,0,0,1-.84,1,4.77,4.77,0,0,0-1.42,5.09,4,4,0,0,1-1.2,4.28c-1.18,1.06-2.32,2.16-3.58,3.11a17.3,17.3,0,0,1-9.6,3.64,31,31,0,0,1-5.33-.28,30.42,30.42,0,0,1-9-2.71,14.23,14.23,0,0,0-7.79-1c-2.08.25-4.15.52-6.23.73-1.38.14-2.76.23-4.14.3l-8.76.45-6.62.3-8.34.3-4.47.15-5.07.15-5.52.15c-2.37.06-4.73.12-7.1.15-4.49.06-9,.13-13.47.14-2.67,0-5.33-.08-8-.14-1,0-1.93-.08-2.9-.15-2.54-.19-5.07-.38-7.61-.6-1.94-.17-3.88-.35-5.8-.61-2.11-.29-4.21-.65-6.31-1-3-.54-5.95-1-8.85-1.73-4-1-7.85-2.37-11.8-3.44a38,38,0,0,0-7-1.36,43.62,43.62,0,0,0-7.28.27c-2.39.22-4.76.64-7.14,1-2.85.47-5.7,1-8.53,1.51a6.31,6.31,0,0,0-5.33,4.74,32.42,32.42,0,0,1-1,3.27,10.86,10.86,0,0,1-3,4.51,4.13,4.13,0,0,1-2.81,1,6.76,6.76,0,0,1-4.54-2.31c-1.85-1.77-3.65-3.59-5.43-5.43-.77-.79-1.41-1.71-2.13-2.55s-1.5-1.81-2.34-2.62a1.14,1.14,0,0,0-2,.23c-.87,1.33-1.71,2.68-2.47,4.07-1.16,2.11-2.22,4.27-3.36,6.38A23.48,23.48,0,0,1,60.55,295.05ZM182.38,147.9v-.11l4-.34a2.65,2.65,0,0,0,2.57-2.26,22.74,22.74,0,0,0,.57-2.79,5.3,5.3,0,0,0-1-4.17,21.38,21.38,0,0,0-5-4.08c-1.24-.76-2.52-1.63-2.75-3.17a6.89,6.89,0,0,1,.62-4.47,1.75,1.75,0,0,0-.24-2.2,23,23,0,0,0-2.51-2.51,17.71,17.71,0,0,1-4.2-4.93,3.74,3.74,0,0,1-.33-3.52,3.37,3.37,0,0,0,.19-2.44,18.27,18.27,0,0,0-4.21-7,1,1,0,0,0-1.27-.29c-.87.37-1.78.67-2.66,1-1.69.71-3.35,1.5-5.06,2.15a31.09,31.09,0,0,1-8.37,1.49c-2.69.24-5.39.34-8.09.46-.55,0-.64.23-.67.72a33.25,33.25,0,0,1-.4,4,13.73,13.73,0,0,1-2.9,5.94c-.72.92-1.4,1.95-.92,3.25,1,2.59,1.91,5.17,2.88,7.75a36.18,36.18,0,0,1,2.08,8.3c.23,1.83.33,3.69.46,5.53.16,2.29.27,4.59.47,6.88.13,1.46.36,2.92.6,4.37.13.76.63,1,1.21.42a25.86,25.86,0,0,0,2.39-2.5,32.34,32.34,0,0,1,5-5.28,4.21,4.21,0,0,1,3.64-1.06,25.23,25.23,0,0,0,3.43.69c2.15.19,4.31.29,6.46.31,2.86,0,5.73-.09,8.6-.13C178.75,147.85,180.56,147.9,182.38,147.9Zm-60.53,55.54s-.08.07-.08.09c0,4.46.06,8.93.15,13.39a13.77,13.77,0,0,0,.46,2.82,1.2,1.2,0,0,0,.65.71,5.61,5.61,0,0,0,1.57.35c2.56.22,5.12.45,7.68.6s5.11.22,7.66.31l5,.15c1.89.05,3.78.11,5.67.15,3.46.06,6.93.15,10.39.14,4.46,0,8.93-.09,13.39-.14.79,0,1-.32.6-1a19,19,0,0,0-2.08-2.92c-1.84-2-3.8-3.89-5.65-5.87a1.55,1.55,0,0,0-1.78-.46c-2,.53-4.08,1-6.14,1.39s-4.18.58-6.25.93a15.31,15.31,0,0,1-5.67-.25,9.82,9.82,0,0,1-6.48-4.59,4.73,4.73,0,0,0-2.58-2.22c-.7-.2-1.47-.15-2.16-.38a23.86,23.86,0,0,1-4-1.57C128.91,203.24,125.39,203.3,121.85,203.44Zm59-31a4.17,4.17,0,0,0-.88-.35c-2.1-.27-4.19-.55-6.29-.76-1.55-.15-3.11-.17-4.66-.32-2.08-.21-4.15-.45-6.22-.75a57.88,57.88,0,0,1-10.24-2.46,17.93,17.93,0,0,1-6.16-3.18c-1.37-1.18-2.36-.49-3.07.42A22.78,22.78,0,0,0,140,170.9a7.62,7.62,0,0,0-.42,4.2c.42,2.16,2,3.55,3.47,4.93a6.19,6.19,0,0,1,2.28,4.72,12.4,12.4,0,0,0,.16,2.14,2.32,2.32,0,0,0,2,2.13,12.1,12.1,0,0,0,5.06-.26,53.78,53.78,0,0,0,13-5.16,65,65,0,0,0,9.19-5.75,36.24,36.24,0,0,0,6.06-5.43ZM117.18,71.85c-.08.82-.19,1.53-.22,2.24-.07,2-.13,3.93-.14,5.89a6.86,6.86,0,0,0,.29,1.8,1.89,1.89,0,0,0,1.74,1.64,19.76,19.76,0,0,0,2.41,0,17.8,17.8,0,0,0,5.82-1.64,16.48,16.48,0,0,0,4.87-3.39c.92-.9,1.84-1.16,2.56-.49,1.46,1.36,2.83,2.83,4.21,4.28a2.75,2.75,0,0,1,.57,1,1.89,1.89,0,0,0,1.54,1.3,8.19,8.19,0,0,0,7-1.7c1.5-1.14,3.07-2.22,4.47-3.48a34.53,34.53,0,0,0,3.38-3.65c.48-.58.3-1-.42-1.2a27.31,27.31,0,0,0-2.74-.77,55.58,55.58,0,0,1-10.16-2.74,14.77,14.77,0,0,1-3.25-2,2.51,2.51,0,0,0-1.44-.71,10.82,10.82,0,0,0-5.37,1.62,21.41,21.41,0,0,1-8.74,2C121.44,71.92,119.31,71.85,117.18,71.85Zm113.77,144h-.12c.14,2.23.21,4.46.46,6.67a5.47,5.47,0,0,0,.94,2.32,3.35,3.35,0,0,0,3,1.22c3,0,5.91-.11,8.86-.3q3.5-.22,7-.76a33.65,33.65,0,0,0,4.67-1.2,5,5,0,0,0,1.3-1,5.6,5.6,0,0,0-.93-1.05c-1.52-1-3.08-2-4.61-3l-10.65-7c-2.6-1.75-5.16-3.55-7.74-5.33-.91-.62-1.56-.4-1.7.66-.22,1.68-.36,3.38-.45,5.08C230.89,213.35,230.95,214.58,230.95,215.85ZM37.6,241.52h.15v7.61a1.24,1.24,0,0,0,1.71,1.33c.8-.21,1.59-.45,2.38-.71a13.4,13.4,0,0,0,7.49-6.43,28,28,0,0,0,3.26-11.71c.07-.86.16-1.73.16-2.59,0-2.15,0-4.31-.06-6.46,0-.81-.42-.94-1.07-.4-2.12,1.77-4.25,3.53-6.29,5.39s-3.76,3.64-5.64,5.46c-.52.5-1,1-1.6,1.45a1.36,1.36,0,0,0-.53,1.15C37.62,237.58,37.6,239.55,37.6,241.52Zm-3-93.72a4.21,4.21,0,0,0,1-.2A30.48,30.48,0,0,0,38.5,146c2.29-1.5,4.58-3,6.8-4.6a21.07,21.07,0,0,0,3-2.71c1.15-1.23,1.19-2.87,1.25-4.43.08-2.27,0-4.54,0-6.82a21.88,21.88,0,0,0-.3-2.93c-.13-.84-.49-1-1.26-.75a4.71,4.71,0,0,0-.87.38l-9.53,5.78a6.61,6.61,0,0,0-3.34,6.29c.07,2.45,0,4.89,0,7.34.08,1.38.22,2.76.32,4.28ZM48.86,76.85a7.64,7.64,0,0,0-1,.58c-1.51,1.23-3.11,2.42-4.47,3.74C40.63,83.9,38,86.72,35.3,89.54a4.84,4.84,0,0,0-1.57,3c-.09,2.12-.06,4.25,0,6.38a6.74,6.74,0,0,0,.48,2,1.11,1.11,0,0,0,1.8.62c.58-.36,1.18-.7,1.73-1.1,3.81-2.81,7.61-5.59,11.43-8.4a.88.88,0,0,0,.43-.83V86.34q-.1-3.9-.31-7.81A9.08,9.08,0,0,0,48.86,76.85ZM141.44,58.2a1.2,1.2,0,0,0,.42-.11c.53-.4,1-.83,1.56-1.24a7.67,7.67,0,0,1,5-2c1.94.06,3.88.15,5.82.14,3.56,0,7.12-.09,10.69-.14l8.66-.16h.08a8.51,8.51,0,0,0,.37-.77c.42-1.16.83-2.33,1.24-3.5.2-.58-.16-.76-.62-.79-2.15-.12-4.31-.23-6.46-.3s-4.18-.1-6.27-.16-4.08-.08-6.12-.16c-1.46-.06-2.91-.19-4.36-.29A21.63,21.63,0,0,1,144.81,47a14.94,14.94,0,0,0-3-.81c-.77-.13-1,.15-1,.89,0,1.59.06,3.18.15,4.77C141.08,54,141.28,56.06,141.44,58.2ZM224,77.58c.36,0,1-.14,1.69-.17l6.61-.31a19.08,19.08,0,0,0,2.14-.16c2.17-.24,4.35-.44,6.52-.76a25.91,25.91,0,0,0,4.13-.93A1.86,1.86,0,0,0,246.18,74c.07-.53-.64-.69-1.15-.79a4.35,4.35,0,0,0-.57-.14c-1.8-.11-3.61-.28-5.41-.29-2.61,0-5.23.08-7.84.13l-6.57.15-10.66.3c-1.21,0-2.43.06-3.64.15-2.38.18-4.77.34-7.15.61a7.69,7.69,0,0,0-4.79,2.64c-.3.32-.36.81.28.95a12.23,12.23,0,0,0,2.45.43c3.86,0,7.73-.07,11.59-.13,1,0,2-.11,3-.14Zm-154.71,8c.09.7.19,1.21.22,1.72.16,2.54.27,5.09.47,7.63.11,1.39.34,2.77.58,4.15.15.83.44,1,1.26.77A69.11,69.11,0,0,0,83.07,95.6,4.43,4.43,0,0,0,85.86,92c.2-1.77.23-3.56.32-5.34a3.23,3.23,0,0,0,0-.52c-1.65-.08-3.24-.18-4.82-.22-3-.07-5.93-.11-8.89-.16H72ZM35,188.43c.18,1.33.34,2.84.61,4.34a1.06,1.06,0,0,0,1.54.76,5.16,5.16,0,0,0,1.38-.66c1.35-1,2.68-2.09,4-3.2,2-1.74,4-3.49,5.9-5.32a5.38,5.38,0,0,0,1.83-3.19,33.34,33.34,0,0,0,.19-4.53A10.41,10.41,0,0,0,50,174a1,1,0,0,0-1.23-.7l-.19.07a17.39,17.39,0,0,0-3,1.41c-2.3,1.49-4.58,3-6.75,4.69a7.34,7.34,0,0,0-3.24,4.39C35.3,185.25,35.23,186.74,35,188.43Zm167.4,90.19c1.14-.08,2.17-.18,3.21-.21,2.44-.07,4.88-.11,7.32-.16l7.69-.15,8.52-.15c1.32,0,2.63-.1,3.95-.15,2.83-.1,5.66-.19,8.49-.31q2.41-.1,4.81-.31a2.25,2.25,0,0,0,2.09-1.61c.39-1.23.24-2.22-1.28-2.4a10,10,0,0,0-3.36,0,49,49,0,0,1-7.21.68c-2.45.2-4.91.23-7.36.32l-4.77.15c-1.79,0-3.58.12-5.37.15l-10.84.16c-1.39,0-2.78.08-4.17.15-1.1.06-1.68.49-1.71,1.26s0,1.61,0,2.58Zm14.3-224.23,4.52-.24,8.38-.45,5.94-.3c.74,0,1.48-.09,2.22-.15,2.14-.19,4.27-.36,6.4-.6q2.78-.31,5.54-.77a2.82,2.82,0,0,0,1.24-.57c.47-.37.39-.92-.17-1.08a12.52,12.52,0,0,0-2.86-.55c-2.69-.12-5.38-.12-8.07-.17l-6.57-.15c-1.64,0-3.28-.09-4.92-.15-2.43-.09-4.86-.21-7.29-.29-2.21-.07-4.43-.13-6.64-.14-1.36,0-2.73.09-4.09.14a1.22,1.22,0,0,0-1.26,1.16,6,6,0,0,0,.11.79A2.84,2.84,0,0,0,211.77,54h.14C213.61,54.24,215.37,54.28,216.75,54.39ZM73,178.48a6.15,6.15,0,0,0,.78,0c1.26-.19,2.54-.31,3.77-.6,2-.46,4-1,5.93-1.59a2,2,0,0,0,1-1.09,5.49,5.49,0,0,0,.33-1.94v-9a12.73,12.73,0,0,0-.4-2.76c-.25-1-.83-1.16-1.6-.4a15.49,15.49,0,0,1-1.75,1.75c-2.49,1.73-5,3.38-7.56,5.06a1,1,0,0,0-.51.95v9.62ZM75.09,224c2,.12,3.89.28,5.79.34,1.21,0,2.43-.06,3.64-.14,1-.07,1.54-.4,1.64-1.15a17.15,17.15,0,0,0,.17-2.74c0-1.21-.19-2.41-.28-3.61-.11-1.43-.19-2.86-.31-4.29-.07-.77-.2-1.53-.32-2.37-1.24.08-2.39.06-3.51.24a39.85,39.85,0,0,0-5.16,1.07,3,3,0,0,0-2.4,2.77,25,25,0,0,0,0,3.23c.21,2.23.49,4.46.74,6.66Zm49.6-98.68h.15c.07,1.29.13,2.58.22,3.87a1.08,1.08,0,0,0,1.08,1.08h.07a27.84,27.84,0,0,0,3.16-.31,7.32,7.32,0,0,0,4.91-3,15.33,15.33,0,0,0,2.15-5.19,5.83,5.83,0,0,0,.25-2.39,3.84,3.84,0,0,0-2.71-2.94,8.92,8.92,0,0,0-5.08-.44c-2,.44-3,.83-3.38,3.11-.36,2.11-.55,4.17-.82,6.22Zm81.7-24.12h1l6.78-.59c1.84-.16,3.69-.29,5.53-.46,2.73-.24,5.45-.51,8.18-.74a1.19,1.19,0,0,0,1.15-.77,6.27,6.27,0,0,0,.36-1.34c.17-1.27-.17-1.93-1.06-2.09a8.79,8.79,0,0,0-1.76-.16c-2.08.07-4.16.19-6.24.29l-3.94.15c-1,0-1.93.07-2.89.16-2.19.18-4.38.34-6.55.61a23.32,23.32,0,0,0-3.92.85,1.82,1.82,0,0,0-.28,3.33c1.11.79,2.41.65,3.64.77ZM94.46,133.94h1.47c1.17-.13,2.34-.28,3.51-.43,1.9-.25,3.8-.48,5.68-.78a1.28,1.28,0,0,0,1.2-1.08,26.12,26.12,0,0,0,.25-7.67,5.73,5.73,0,0,0-.41-1.62,1.59,1.59,0,0,0-1.91-1.19l-.2.06c-1.63.41-3.26.83-4.86,1.34A4.48,4.48,0,0,0,95.8,126C95.32,128.6,94.92,131.21,94.46,133.94Zm94,73.58h-.1v-.6a1.45,1.45,0,0,0-1.72-1.54,7.51,7.51,0,0,0-1.78.41c-2.58,1-5.15,2-7.73,2.93-1.23.45-2.53.75-3.75,1.24-.47.19-1.13.7-1.14,1.08s.56,1,1,1.22c3.22,1.86,6.62,3.12,10.43,2.55,1.81-.27,3.42-1.06,4-2.92a32.46,32.46,0,0,0,.78-4.37ZM71.2,139.72v4a3.52,3.52,0,0,0,.5,1.49c.3.53.69.38,1-.09a11.34,11.34,0,0,0,.63-1.16c.82-1.85,1.72-3.68,2.4-5.58,1-2.82,1.93-5.68,2.78-8.55.25-.85.21-1.19-.76-1.57-.59-.23-1.13-.61-1.74-.78-1.15-.33-2.32-.58-3.48-.83-.41-.09-.71,0-.74.56,0,.73-.23,1.45-.27,2.19-.12,2.45-.22,4.91-.3,7.36C71.17,137.72,71.2,138.72,71.2,139.72Zm77.94,56.22.05.16c2.18-.51,4.41-.91,6.55-1.56a59.65,59.65,0,0,0,15.13-7.36,19.42,19.42,0,0,0,2.84-2.41,1.14,1.14,0,0,0,0-1.09,1.18,1.18,0,0,0-1-.32,11.26,11.26,0,0,0-2.26.83c-3.78,1.86-7.53,3.79-11.32,5.62a51.72,51.72,0,0,1-8.41,3,18.39,18.39,0,0,0-3.21,1.38,1.14,1.14,0,0,0-.48.91c0,.23.4.55.69.64A8,8,0,0,0,149.14,195.94Zm23.14-6.79-.07-.18a17.13,17.13,0,0,0-2,.8c-1.63.89-3.16,2-4.84,2.74q-4.22,2-8.57,3.62c-2.34.89-4.79,1.52-7.16,2.35a8.91,8.91,0,0,0-2.27,1.31c-.53.39-.36.91.29,1.05A6.29,6.29,0,0,0,149,201a22.22,22.22,0,0,0,6.87-1.43,79.84,79.84,0,0,0,11-4.56,30.92,30.92,0,0,0,6.22-3.85,2,2,0,0,0,.7-1.43c-.08-.59-.8-.61-1.37-.57Zm-52.45-32a3,3,0,0,0-.46.79,10.72,10.72,0,0,0-.31,2.1v7.12a6.68,6.68,0,0,0,.25,1.59,1.36,1.36,0,0,0,1.56,1c.87-.15,1.74-.25,2.6-.45,1.25-.29,2.47-.65,3.65-1,.07-2-5.37-10.27-7.29-11.12Zm81-128.73a15.78,15.78,0,0,0,2-.79c2.44-1.35,4.89-2.68,7.25-4.15a30.38,30.38,0,0,0,3.38-2.73c.16-.13.19-.42.28-.63a2,2,0,0,0-.64-.07c-1.5.34-3,.61-4.47,1.09-3,1-5.88,2.06-8.81,3.14a11.45,11.45,0,0,0-1.63.92,16.77,16.77,0,0,0,1.08,2.13c.4.52.75,1.17,1.6,1.12Zm-12.9,250.77c1.67-.13,3.28-.2,4.88-.4a7.48,7.48,0,0,0,2.2-.74,1.21,1.21,0,0,0,.6-.89.85.85,0,0,0-.77-.92c-1.26-.15-2.51-.48-3.77-.54-2-.09-4,0-6,0a7.36,7.36,0,0,0-1.73.29,1.85,1.85,0,0,0-1.16,1.9c.07.79.79.85,1.32.92,1.52.21,3,.29,4.47.42Z" transform="translate(0 0.03)"/>
</svg>
